<svg xmlns="http://www.w3.org/2000/svg" width="161" height="58" viewBox="0 0 161 58">
    <g fill="none" fill-rule="evenodd">
        <path fill="#0A0F32" fill-rule="nonzero" d="M39 48.658c0 3.47-2.836 5.656-7.294 5.656h-2.31V58H24V43h7.706C36.164 43 39 45.186 39 48.658zm-5.442 0c0-1.094-.709-1.758-2.195-1.758h-1.966v3.515h1.966c1.486 0 2.195-.665 2.195-1.757z"/>
        <path fill="#0A0F32" d="M41 43h5.13v11.079H53V58H41z"/>
        <path fill="#0A0F32" fill-rule="nonzero" d="M68.449 55.385H62.46L61.403 58H56l6.888-15h5.224L75 58h-5.493l-1.058-2.615zm-1.463-3.642l-1.53-3.771-1.532 3.771h3.062z"/>
        <path fill="#0A0F32" d="M78.443 46.921H74V43h14v3.921h-4.443V58h-5.114zM96.807 46.814v2.572h7.184V53.2h-7.184V58H91V43h14v3.814z"/>
        <path fill="#0A0F32" fill-rule="nonzero" d="M105 50.5c0-4.344 3.594-7.5 8.5-7.5 4.906 0 8.5 3.156 8.5 7.5 0 4.344-3.594 7.5-8.5 7.5-4.906 0-8.5-3.156-8.5-7.5zm11.879 0c0-2.233-1.507-3.586-3.379-3.586s-3.379 1.353-3.379 3.586c0 2.233 1.507 3.586 3.38 3.586 1.87 0 3.378-1.353 3.378-3.586zM131.706 54.229h-1.43V58H125V43h7.534c4.358 0 7.13 2.186 7.13 5.657.08 1.994-1.077 3.844-2.95 4.714L140 58h-5.633l-2.66-3.771zm.492-7.329h-1.922v3.515h1.922c1.453 0 2.146-.665 2.146-1.757 0-1.094-.693-1.757-2.146-1.757z"/>
        <path fill="#0A0F32" d="M156.137 58l-.046-6.835-3.438 5.485h-2.352l-3.438-5.25V58H142V43h4.388l5.157 7.993L156.566 43h4.388L161 58z"/>
        <path fill="#28DC96" d="M28.636 0H16.364c-4.34 0-8.502 1.72-11.571 4.784A16.318 16.318 0 0 0 0 16.334v16.333c0 4.332 1.724 8.486 4.793 11.55A16.379 16.379 0 0 0 16.363 49V36.75a4.08 4.08 0 0 1 1.199-2.887 4.095 4.095 0 0 1 2.893-1.196h8.181C37.674 32.667 45 25.354 45 16.333c0-4.332-1.724-8.486-4.793-11.55A16.379 16.379 0 0 0 28.637 0z"/>
    </g>
</svg>
