<?xml version="1.0" encoding="utf-8"?>
<!-- Generator: Adobe Illustrator 22.0.0, SVG Export Plug-In . SVG Version: 6.00 Build 0)  -->
<svg version="1.1" id="Слой_1" xmlns="http://www.w3.org/2000/svg" xmlns:xlink="http://www.w3.org/1999/xlink" x="0px" y="0px"
	 viewBox="0 0 471 392" style="enable-background:new 0 0 471 392;" xml:space="preserve">
<style type="text/css">
	.st0{fill:#FDBF14;}
	.st1{fill:#FFA813;}
	.st2{fill:#163F59;}
	.st3{fill:#E9D6B8;}
	.st4{fill:#D1DBEA;}
	.st5{fill:#0A0F32;}
	.st6{fill:#2C3365;}
	.st7{fill:#B0BFDE;}
	.st8{fill:#194866;}
	.st9{fill:#CCD9E9;}
	.st10{fill:#28DC96;}
	.st11{fill:#E5E8EC;}
	.st12{fill:#136FB7;}
	.st13{fill:#1386B7;}
	.st14{fill:#BCD0E2;}
	.st15{fill:#D8E8ED;}
	.st16{fill:#E2B348;}
	.st17{fill:#F8C44F;}
	.st18{fill:#D5EAF6;}
	.st19{fill:#A0C4DF;}
	.st20{fill:#06597D;}
	.st21{fill:#107099;}
	.st22{fill:#06497D;}
	.st23{fill:#FFFFFF;}
	.st24{fill:#021E4C;}
	.st25{fill:#1FB97D;}
	.st26{fill:#2E95D1;}
	.st27{fill:#C4D1E1;}
	.st28{fill:#96B7DB;}
	.st29{fill:#B6D7E7;}
	.st30{fill:#4A90E2;}
	.st31{fill:#01284C;}
	.st32{fill:#98B8CE;}
	.st33{fill:#CDDEE5;}
	.st34{fill:#CBA141;}
	.st35{fill:#282723;}
	.st36{fill:#E6B09C;}
	.st37{fill:#161711;}
	.st38{fill:#FFC4AD;}
	.st39{fill:#CDD5D7;}
	.st40{fill:#B7BEC0;}
	.st41{fill:#3C463B;}
	.st42{fill:#323B31;}
	.st43{fill:#B6C2C9;}
	.st44{fill:#879BA6;}
	.st45{fill:#D7DFE2;}
</style>
<g>
	<path class="st0" d="M156.9,5.9c-2.7,0-5,2.2-5,5l0,34.1c0,40.8,33.1,74,73.8,74c3.8,0,7.6-0.3,11.3-0.9V26.7h-42.4
		c-6.1,0-11-4.9-11-10.9v-4.9c0-2.7-2.2-5-5-5C178.7,5.9,156.9,5.9,156.9,5.9z M225.7,125c-44,0-79.7-35.9-79.7-80l0-34.1
		c0-6,4.9-10.9,10.9-10.9h21.8c6,0,10.9,4.9,10.9,10.9v4.9c0,2.7,2.3,4.9,5.1,4.9H243v102.3l-2.4,0.5
		C235.7,124.5,230.7,125,225.7,125z M285.9,118.2c3.8,0.6,7.6,0.9,11.3,0.9c40.7,0,73.8-33.2,73.8-74l0-34.1c0-2.7-2.2-5-5-5h-21.8
		c-2.7,0-5,2.2-5,5v4.9c0,6-4.9,10.9-11,10.9h-42.4L285.9,118.2L285.9,118.2z M297.3,125c-4.9,0-9.9-0.5-14.8-1.4l-2.4-0.5V20.8
		h48.4c2.8,0,5.1-2.3,5.1-4.9v-4.9c0-6,4.9-10.9,10.9-10.9h21.8c6,0,10.9,4.9,10.9,10.9l0,34.1C377,89.1,341.2,125,297.3,125
		L297.3,125z M253,240h17V138h-17V240z"/>
	<path class="st1" d="M253,167h17v-10h-17V167z"/>
	<path class="st1" d="M250,162h23v-26h-23V162z"/>
	<path class="st0" d="M250,162h23v-6h-23V162z M299.8,250c-7.7,0-13.9-6.2-14.2-14h-47.1c-0.3,7.8-6.5,14-14.2,14H210v15h104v-15
		H299.8 M211,33v82.2c0,20.3,16.3,36.8,36.4,36.8h28.2c20.1,0,36.4-16.5,36.4-36.8V33H211"/>
	<path class="st0" d="M203,35h117V19H203V35z"/>
	<path class="st1" d="M261.5,55l6.6,13.5l14.9,2.2l-10.7,10.5l2.5,14.8l-13.3-7l-13.3,7l2.5-14.8L240,70.6l14.9-2.2L261.5,55
		 M211,41h101v-8H211V41z M217,264h97v-12h-97V264z"/>
	<path class="st2" d="M435.2,389.6c-0.4,0.5-0.1,1.9-0.1,1.9s6.8,0.9,9,0.3c0.6-0.1,1.5-0.7,2.4-1.2c0.2-0.1,0.4-0.7,0.6-0.8
		c0.3-0.2,0.4,0.1,0.7,0c0.6-0.4,1-0.7,1-0.8c0.6-3.4-0.2-4.8-0.2-4.8s-5.8-2.1-6.9-0.7C439.1,387,436.1,388.5,435.2,389.6
		 M401,385.7l-1,5.3h-2.6c0,0-0.3-0.7-0.7-0.7c-0.4,0-0.9,0.7-1.4,0.7h-13.3c0,0-0.2-1.1,0.1-1.5c0.1-0.2,1-0.5,1.6-0.7
		c2.7-0.8,10.4-3.2,11.8-5.9C397.1,379.7,401,385.7,401,385.7"/>
	<path class="st3" d="M437.1,267l5.2-3.1l0.6-0.7l-0.7-1.2l-1.2,0.2l0.2-3.6l-5.5-1L433,256l2.6,9.9"/>
	<path class="st4" d="M412.1,179.8c0,0,6.1,6.8-12.8,24.7c-18.9,18-22.3,12.7-22.3,12.7l-5.7-3.8l-4.2-20l9.1-2.1l1,1.2
		c0,0,2,0.2,2.9-1.2c1-1.4,7.2-6.1,16.3-17.8C400.5,168.1,410.9,178.5,412.1,179.8"/>
	<path class="st3" d="M367.7,194.5c0,0-19-0.3-20.5-20c-0.5-5.9-2-0.2-3,5.4c-1,5.6,2.4,21.3,12.6,27.7c10.2,6.3,14.5,7.9,18.4,5.3
		C379.1,210.2,367.7,194.5,367.7,194.5"/>
	<path class="st5" d="M396.2,385c0,0,3,4.3,5.1,0.3c5-9.3,12.4-32.2,12.7-42.7c0.4-15-2.2-25.4-2.2-25.4L396,312L396.2,385"/>
	<path class="st5" d="M396.7,243.5L396,312l14.2,8c0,0,8.5-16.3,9.6-37.2c0.5-8.9,0.7-28.7-4.2-35.5
		C409,238.2,396.7,243.5,396.7,243.5"/>
	<path class="st6" d="M402,243.1l2.4,23.9l6.4,25.9l6.8,24.2l24.3,67.3l7.1,0.6c0,0-0.9-50.5-9.5-65.2c-4.6-7.8-4.6-25.1-6.7-43.7
		c-0.4-3.4,1.5-10.9,1.2-14c-1.2-12.1-7.3-21.1-7.3-21.1L402,243.1"/>
	<path class="st4" d="M396.4,244l31.1-0.7l13.3-44.6c0,0,8.6-27-7.9-27.3c-16.5-0.3-35.5-0.3-35.5-0.3S383.7,196.1,396.4,244"/>
	<path class="st3" d="M452.9,231L433,254.8c0,0,0.7,3.5,2.3,1.6c0.2-0.2-0.8-0.9,0.4-1.6c4.9-2.6,16.4-6.7,20.7-10.7
		c5.6-5.3,9.6-11.6,9.6-11.6L452.9,231"/>
	<path class="st7" d="M414,176.6l0.8,5.3l9.2-8.7V172L414,176.6 M410.6,173l-1.6,7l4-3.5L410.6,173 M383,197.2l-2.4-4.5l-1.1-1.7
		c-1,0.9-2.5,0.7-2.5,0.7l2.4,3l2.2,4.1l1.3,6.2L383,197.2"/>
	<path class="st4" d="M439.7,198.4l10.9,31.2l2.4,0.9l-1.3,2.1l13.5,2.3l5.9-10.2l-15.7-42.4c0,0-6.1-8.9-19.6-10.4
		C425.8,170.9,438.9,195.8,439.7,198.4"/>
	<path class="st7" d="M466,227c0,0-9,1.8-13.7,2.5l1,0.4L452,232l4.6,0.8l6.7,0.2l1-2.6l-1.9-0.5L466,227"/>
	<path class="st3" d="M425,165c-0.4,1.7-1,4.4-1.7,6c-1.1,2.5-10.3,5.6-11.8,6c-1.4,0.4,0.4-7.4,0.4-9.1c0-1.3,0.8-0.9-0.2-2.9
		L425,165"/>
	<path class="st3" d="M410,160.9c-0.2,1.5,0.7,2.8,2.2,3.1l11.9,1.9c1.5,0.2,2.8-0.8,3.1-2.2L430,146c0.2-1.5-0.8-2.8-2.2-3.1
		l-11.8-1.9c-1.5-0.2-2.8,0.8-3,2.2L410,160.9"/>
	<path class="st2" d="M411.6,147c0,0-1.5-1.9-1.6-3c-0.1-0.5,0.9-2.4,2.4-2.9c1.6-0.5,2.6,1,2.6,1s-2.5,0.8-2.7,1.2
		C412.1,143.7,411.6,147,411.6,147"/>
	<path class="st8" d="M430.1,154.7c0,0,2.9-6.6,2.9-8.7c0-2.1,0-3.5-2.4-4.1c-3.6-0.9-3.8-0.1-5.4-1.6c-1.6-1.4-4.4-4.6-5.5-5.1
		c-1.8-0.7-4.8-0.6-5.4,2.9c-0.5,2.5-2.2,2.9-2.2,3c0.1,0.3,0.7,0.7,1.8,1.5c3.1,2.2,5.1,2.9,7.8,2.6c2.7-0.3,7.7-0.9,8,1
		c0.3,2-0.9,7.8-0.8,8.3C429,155.1,429.6,155,430.1,154.7"/>
	<path class="st3" d="M425,159.5c-0.1,0.5,0.2,1,0.7,1l2.5,0.4c0.5,0.1,0.9-0.3,1-0.8l0.7-4.8c0.1-0.5-0.2-1-0.7-1l-2.5-0.4
		c-0.5-0.1-0.9,0.2-1,0.7c0,0,0,0,0,0L425,159.5 M410,156.5c-0.1,0.5,0.2,1,0.7,1l2.5,0.4c0.5,0.1,0.9-0.3,1-0.8l0.7-4.8
		c0.1-0.5-0.2-1-0.7-1l-2.5-0.4c-0.5-0.1-0.9,0.3-1,0.8L410,156.5"/>
	<path class="st8" d="M428,156c0,0-1.1,7.2-1.5,9.7c-0.3,2.2-1.9,6.8-13.7,4.9c-7-1.2-5.9-6.5-5.6-8.3c0.2-1.3,2.3-5.1,3.1-5.8
		l-0.5,3c0,0,1.9-2.7,5.2-2.1c5.3,0.9,6.1,4.4,8.4,4.7C425.4,162.3,427.2,159.5,428,156"/>
	<path class="st3" d="M416.8,162l-4-0.6c-0.5-0.1-0.9-0.5-0.8-1l0.1-0.5l5.9,0.8l-0.1,0.5C417.8,161.7,417.3,162,416.8,162
		 M346.9,177.4c0,0,1.8-6.3,0.9-7.8c-0.9-1.6-4.7-7-4.7-7l-1.1-1.3c0,0-1.9,0.5,0.6,4.2c2.5,3.7,0.4,2.6,0.4,2.6l-3.4-2.3l-4.4-2.5
		l-1.8-1.4c0,0-1-0.9-1.4-0.9c-1.1,0-0.7,1-0.7,1l6.7,6.1l-7.5-3.7c0,0-1-0.3-1.4,0.2c-0.3,0.5,0,0.7,0,0.7l7.6,6.4l-4.1-1.4
		c0,0-1-0.3-1.4,0.2c-0.4,0.5-0.5,0.7-0.5,0.7l15,7.9L346.9,177.4"/>
	<path class="st3" d="M337,169.7l-5.4-2.2c0,0-1.2-0.6-1.9-0.6c-0.8,0.1-0.8,0.8-0.8,0.8l7.8,4.1L337,169.7"/>
	<path class="st9" d="M365.1,168.8L337,128.4c1.2,0.4,2.6,0.1,3.8-1.1c0.3-0.3,0.7-0.8,1-1.3l30.2,43.4L353,202l0,0
		c-0.4,0.7-0.8,1.3-1.2,1.7c-1.6,1.7-3.8,1.7-5,0.1c-0.2-0.4-0.5-1.3-0.2-2.1c0.3-0.9,1-1.9,1-1.9l17.7-30.2
		C365.3,169.3,365.3,169,365.1,168.8"/>
	<path class="st10" d="M344.5,204.6c-0.1,0-0.1-0.1-0.1-0.1l-0.1-0.2l-31.1-44.7c-0.2-0.2-0.2-0.6,0-0.9l19.4-33.3
		c0-0.1,0.1-0.1,0.1-0.2c0.1-0.1,0.2-0.2,0.4-0.2c0.2,0,0.4,0,0.5,0.2l3.9,5.7l26.1,37.5c0.2,0.2,0.2,0.6,0,0.9l-17.6,30
		c0,0-0.6,1-0.9,1.9c-0.3,0.8,0,1.7,0.2,2.1c1.2,1.6,3.3,1.5,5-0.1c0.4-0.4,0.8-1,1.2-1.7l0,0l18.9-32.4l-30.1-43.2l0,0
		c0.4-0.7,0.4-0.7,0.5-0.7c0.3-0.3,0.7-0.3,0.9,0l30.1,43.2c0.2,0.2,0.1,0.6,0,0.9l-19.4,33.3c0,0.1-0.1,0.1-0.1,0.1
		c-0.4,0.6-0.8,1.1-1.2,1.6C348.9,206.5,346.1,206.5,344.5,204.6"/>
	<path class="st11" d="M371.4,170.3L371.4,170.3c-1.2,1.2-2.5,1.7-3.8,1.6c-1.1-0.1-2.1-0.6-2.8-1.5l-0.1-0.1l0-0.1l0-0.1l0.4-0.7
		c0.2-0.3,0.2-0.7,0-0.9L337,128.4c1.2,0.4,2.6,0.1,3.8-1.1c0.3-0.3,0.7-0.8,1-1.3l30.2,43.3L371.4,170.3"/>
	<path class="st3" d="M324.2,184.8l-2.2-5.2l2.4-3.4l3.3-3.9l1.2-1.9c0,0,0.6-1.1,1-1.3c1.1-0.5,1.1,0.5,1.1,0.5l-4.1,7.8l5.8-6.3
		c0,0,0.9-0.7,1.4-0.4c0.5,0.3,0.3,0.5,0.3,0.5l-4.8,8.6l3.4-2.9c0,0,0.9-0.7,1.4-0.4c0.6,0.3,0.7,0.3,0.7,0.3l-5.3,6.5l1.9,2.2
		l-4,0.4L324.2,184.8"/>
	<path class="st3" d="M328,177.2l4.3-4c0,0,0.9-1,1.6-1.2c0.8-0.3,1.1,0.4,1.1,0.4l-5.9,6.6L328,177.2"/>
	<path class="st12" d="M178,344.5h2.7c0.9,0,1.6-1,1.6-2.2v-23.7c0-1.2-0.7-2.2-1.6-2.2H178V312h174.1c2.7,0,4.9,3,4.9,6.7v23.7
		c0,3.7-2.2,6.7-4.9,6.7H178V344.5"/>
	<path class="st13" d="M178,344.5h2.7c0.9,0,1.6-1,1.6-2.2v-23.7c0-1.2-0.7-2.2-1.6-2.2H178V312h90v37h-90V344.5"/>
	<path class="st14" d="M182.6,342.8v-23.6c0-1.2-0.7-2.2-1.6-2.2h171.4c0.9,0,1.6,1,1.6,2.2v23.6c0,1.2-0.7,2.2-1.6,2.2H181
		C181.9,345,182.6,344,182.6,342.8"/>
	<path class="st15" d="M182.6,342.8v-23.6c0-1.2-0.7-2.2-1.6-2.2h90.4c0.9,0,1.6,1,1.6,2.2v23.6c0,1.2-0.7,2.2-1.6,2.2H181
		C181.9,345,182.6,344,182.6,342.8"/>
	<path class="st16" d="M189,309.3h2.4c0.8,0,1.4-0.6,1.4-1.3v-14.1c0-0.7-0.6-1.3-1.4-1.3H189V290h152.7c2.4,0,4.3,1.8,4.3,4V308
		c0,2.2-1.9,4-4.3,4H189V309.3"/>
	<path class="st17" d="M189,309.3h2.4c0.8,0,1.4-0.6,1.4-1.3v-14.1c0-0.7-0.6-1.3-1.4-1.3H189V290h79v22h-79V309.3"/>
	<path class="st14" d="M192.4,307.6v-14.3c0-0.7-0.7-1.3-1.4-1.3h150.6c0.8,0,1.4,0.6,1.4,1.3v14.3c0,0.7-0.6,1.3-1.4,1.3H191
		C191.8,309,192.4,308.4,192.4,307.6"/>
	<path class="st15" d="M192.4,307.6v-14.3c0-0.7-0.6-1.3-1.4-1.3h79.6c0.8,0,1.4,0.6,1.4,1.3v14.3c0,0.7-0.6,1.3-1.4,1.3H191
		C191.8,309,192.4,308.4,192.4,307.6"/>
	<path class="st14" d="M349.6,270.1c-0.4,2.3-0.8,0.4-1-1.5c-0.2-2-0.4-3.9-0.4-1.3c0,5.9,0.6,11.5,1.7,16.7H215v-13.9L349.6,270.1"
		/>
	<path class="st18" d="M347.6,273h-0.5c-0.1-1-0.1-2-0.1-3h0.4c0.1,0.6,0.2,1,0.3,1c0.1,0,0.2-0.3,0.3-1
		C347.9,271,347.7,272,347.6,273"/>
	<path class="st19" d="M348.9,273H227v-3h121.7C348.7,271,348.8,272,348.9,273 M349.6,271c-0.1,0-0.3-0.4-0.4-1h0.8
		C349.9,270.7,349.7,271,349.6,271"/>
	<path class="st20" d="M209.6,265h141.9c0.9,0,1.5,0.6,1.5,1.4v3.6h-65.2v14H353v3.6c0,0.8-0.7,1.4-1.5,1.4H209.6
		c-0.9,0-1.5-0.6-1.5-1.4v-21.1C208,265.6,208.7,265,209.6,265"/>
	<path class="st13" d="M174.5,265H283c-0.8,0-1.5,0.6-1.5,1.4v21.1c0,0.8,0.7,1.4,1.5,1.4H174.5c-0.8,0-1.5-0.6-1.5-1.4v-21.1
		C173,265.6,173.7,265,174.5,265"/>
	<path class="st21" d="M174.5,265H283c-0.8,0-1.5,0.6-1.5,1.4v4.6H173v-4.6C173,265.6,173.7,265,174.5,265"/>
	<path class="st12" d="M216,328.5h-3.2c-1.1,0-1.9-1-1.9-2.2v-23.7c0-1.2,0.9-2.2,1.9-2.2h3.2V296H11.8c-3.2,0-5.8,3-5.8,6.7v23.7
		c0,3.7,2.6,6.7,5.8,6.7H216V328.5"/>
	<path class="st22" d="M216,328.5h-3.2c-1.1,0-1.9-1-1.9-2.2v-23.7c0-1.2,0.9-2.2,1.9-2.2h3.2V296H110v37h106V328.5"/>
	<path class="st23" d="M211.1,325.8v-23.6c0-1.2,0.9-2.2,1.9-2.2H11.9c-1.1,0-1.9,1-1.9,2.2v23.6c0,1.2,0.9,2.2,1.9,2.2H213
		C211.9,328,211.1,327,211.1,325.8"/>
	<path class="st14" d="M211.1,325.8v-23.6c0-1.2,0.9-2.2,1.9-2.2H106.9c-1.1,0-1.9,1-1.9,2.2v23.6c0,1.2,0.9,2.2,1.9,2.2H213
		C211.9,328,211.1,327,211.1,325.8"/>
	<path class="st22" d="M195,291.9h-2.3c-0.8,0-1.4-0.7-1.4-1.5v-26.9c0-0.8,0.6-1.5,1.4-1.5h2.3v-3H19.1c-2.3,0-4.1,2-4.1,4.6v26.9
		c0,2.5,1.9,4.6,4.1,4.6H195V291.9"/>
	<path class="st24" d="M195,291.9h-2.3c-0.8,0-1.4-0.7-1.4-1.5v-26.9c0-0.8,0.6-1.5,1.4-1.5h2.3v-3H90v36h105V291.9"/>
	<path class="st23" d="M191.6,290.5v-27c0-0.8,0.6-1.5,1.4-1.5H19.4c-0.8,0-1.4,0.7-1.4,1.5v27c0,0.8,0.6,1.5,1.4,1.5H193
		C192.2,292,191.6,291.3,191.6,290.5"/>
	<path class="st14" d="M191.6,290.5v-27c0-0.8,0.6-1.5,1.4-1.5H87.4c-0.8,0-1.4,0.7-1.4,1.5v27c0,0.8,0.6,1.5,1.4,1.5H193
		C192.3,292,191.6,291.3,191.6,290.5"/>
	<path class="st25" d="M37,308l-6.5-4.2L24,308v-21h13V308"/>
	<path class="st22" d="M38,255.1h2.3c0.7,0,1.3-0.6,1.3-1.4v-15.4c0-0.8-0.6-1.4-1.3-1.4H38V234h143c2.2,0,4,1.9,4,4.3v15.4
		c0,2.4-1.8,4.3-4,4.3H38V255.1"/>
	<path class="st26" d="M37,255.1h2.2c0.7,0,1.3-0.6,1.3-1.4v-15.4c0-0.8-0.6-1.4-1.3-1.4H37V234h74v24H37V255.1"/>
	<path class="st27" d="M41.4,253.6v-15.2c0-0.8-0.6-1.4-1.3-1.4h140.7c0.7,0,1.3,0.6,1.3,1.4v15.1c0,0.8-0.6,1.4-1.3,1.4H40
		C40.7,255,41.4,254.3,41.4,253.6"/>
	<path class="st23" d="M41.3,253.6v-15.2c0-0.8-0.6-1.4-1.3-1.4h73.7c0.7,0,1.3,0.6,1.3,1.4v15.1c0,0.8-0.6,1.4-1.3,1.4H40
		C40.7,255,41.3,254.3,41.3,253.6"/>
	<path class="st7" d="M194.6,215.1c-0.4,2.3-0.8,0.4-1-1.5c-0.2-2-0.4-3.9-0.4-1.3c0,5.9,0.6,11.5,1.8,16.7H58v-13.9L194.6,215.1"/>
	<path class="st18" d="M194.6,219h-0.5c-0.1-1-0.1-2-0.1-3h0.4c0.1,0.6,0.2,1,0.3,1c0.1,0,0.2-0.3,0.3-1
		C194.9,217,194.7,218,194.6,219"/>
	<path class="st28" d="M193.8,219H71v-3h122.7C193.7,217,193.8,218,193.8,219 M194.6,217c-0.1,0-0.3-0.4-0.4-1h0.8
		C194.9,216.7,194.7,217,194.6,217"/>
	<path class="st16" d="M52.6,210h143.9c0.9,0,1.6,0.6,1.6,1.4v3.6H132v14H198v3.6c0,0.8-0.7,1.4-1.6,1.4H52.6
		c-0.9,0-1.6-0.6-1.6-1.4v-21.1C51,210.6,51.7,210,52.6,210"/>
	<path class="st17" d="M17.6,210H128c-0.9,0-1.6,0.6-1.6,1.4v21.1c0,0.8,0.7,1.4,1.6,1.4H17.6c-0.9,0-1.6-0.6-1.6-1.4v-21.1
		C16,210.6,16.7,210,17.6,210"/>
	<path class="st15" d="M19.4,338c0.4,2.3,0.8,0.4,1-1.5c0.2-1.9,0.4-3.9,0.4-1.3c0,5.8-0.6,21.6-1.8,26.7h137v-24H19.4"/>
	<path class="st18" d="M19.9,341h-0.5c-0.1-1-0.3-2-0.4-3c0.1,0.7,0.2,1,0.3,1c0.1,0,0.2-0.4,0.3-1H20C20,338.9,20,339.9,19.9,341"
		/>
	<path class="st29" d="M143,341H20.3c0-1.1,0.1-2.1,0.1-3H143V341 M19.4,339c-0.1,0-0.3-0.3-0.4-1h0.8C19.7,338.5,19.6,339,19.4,339
		"/>
	<path class="st30" d="M161.4,333H17.6c-0.9,0-1.6,0.6-1.6,1.4v3.5h66.1v24.2H16v3.5c0,0.8,0.7,1.4,1.6,1.4h143.9
		c0.9,0,1.6-0.6,1.6-1.4v-31.2C163,333.6,162.3,333,161.4,333"/>
	<path class="st6" d="M196.4,333H86c0.9,0,1.6,0.6,1.6,1.4v31.2c0,0.8-0.7,1.4-1.6,1.4h110.4c0.9,0,1.6-0.6,1.6-1.4v-31.2
		C198,333.6,197.3,333,196.4,333"/>
	<path class="st5" d="M196.4,333H86c0.9,0,1.6,0.6,1.6,1.4v4.6H198v-4.6C198,333.6,197.3,333,196.4,333"/>
	<path class="st20" d="M311,379.7h-2.5c-0.8,0-1.5-0.7-1.5-1.7v-11.1c0-0.9,0.7-1.6,1.5-1.6h2.5V362H117.6c-2.5,0-4.5,2.2-4.5,5V378
		c0,2.7,2,4.9,4.5,4.9H311V379.7"/>
	<path class="st31" d="M311,379.7h-2.5c-0.8,0-1.5-0.7-1.5-1.7v-11.1c0-0.9,0.7-1.6,1.5-1.6h2.5V362H196v21h115V379.7"/>
	<path class="st23" d="M306.5,378.3v-11.6c0-1,0.7-1.7,1.5-1.7H117.5c-0.8,0-1.5,0.8-1.5,1.7v11.6c0,0.9,0.7,1.7,1.5,1.7H308
		C307.2,380,306.5,379.2,306.5,378.3"/>
	<path class="st14" d="M306.5,378.3v-11.6c0-1,0.7-1.7,1.5-1.7H192.5c-0.8,0-1.5,0.8-1.5,1.7v11.6c0,0.9,0.7,1.7,1.5,1.7H308
		C307.2,380,306.5,379.2,306.5,378.3"/>
	<path class="st23" d="M126.8,312.2c0.4,2.3,0.7,0.9,0.9-0.5c0.2-1.5,0.3-2.9,0.3-0.3c0,5.9-0.6,11.5-1.6,16.7h123.8v-15.9
		L126.8,312.2"/>
	<path class="st32" d="M127.9,315.5h-0.7c-0.1-1.1-0.3-2.2-0.5-3.3c0.2,0.9,0.3,1.2,0.4,1.2c0.2,0,0.3-0.6,0.4-1.2h0.4
		C128,313.3,128,314.4,127.9,315.5"/>
	<path class="st33" d="M239,315.5h-111c0-1.1,0.1-2.2,0.1-3.3H239V315.5 M127.2,313.4c-0.1,0-0.3-0.3-0.4-1.2h0.8
		C127.5,312.8,127.4,313.4,127.2,313.4"/>
	<path class="st17" d="M255.2,307.2H125.4c-0.8,0-1.4,0.6-1.4,1.4v3.5h59.6V328H124v3.5c0,0.8,0.6,1.4,1.4,1.4h129.8
		c0.8,0,1.4-0.6,1.4-1.4v-23C256.6,307.8,256,307.2,255.2,307.2"/>
	<path class="st16" d="M287.2,307.2H186.9c0.8,0,1.4,0.6,1.4,1.4v23c0,0.8-0.6,1.4-1.4,1.4h100.3c0.8,0,1.4-0.6,1.4-1.4v-23
		C288.7,307.8,288,307.2,287.2,307.2"/>
	<path class="st34" d="M287.2,307.2H186.9c0.8,0,1.4,0.6,1.4,1.4v4.7h100.3v-4.7C288.7,307.8,288,307.2,287.2,307.2"/>
	<path class="st20" d="M138.3,358.3h2.5c0.8,0,1.5-0.8,1.5-1.7v-18.4c0-1-0.7-1.7-1.5-1.7h-2.5V333h155.9c2.4,0,4.4,2.3,4.4,5.2
		v18.4c0,2.9-2,5.2-4.4,5.2H138.3V358.3"/>
	<path class="st13" d="M138.3,358.3h2.5c0.8,0,1.5-0.8,1.5-1.7v-18.4c0-1-0.7-1.7-1.5-1.7h-2.5V333h80.9v28.7h-80.9V358.3"/>
	<path class="st7" d="M142.3,356.5v-18.4c0-1-0.7-1.7-1.5-1.7h153.4c0.8,0,1.5,0.8,1.5,1.7v18.4c0,1-0.7,1.7-1.5,1.7H140.8
		C141.6,358.3,142.3,357.5,142.3,356.5"/>
	<path class="st15" d="M142.3,356.5v-18.4c0-1-0.7-1.7-1.5-1.7h81.4c0.8,0,1.5,0.8,1.5,1.7v18.4c0,1-0.7,1.7-1.5,1.7h-81.3
		C141.6,358.3,142.3,357.5,142.3,356.5"/>
	<path class="st35" d="M80.7,148.7c2.9,5.9,10.1,8.3,16.1,5.4c6-2.9,8.6-10.1,5.7-16c-2.9-5.9-10.1-8.3-16.1-5.4
		C80.4,135.6,77.9,142.8,80.7,148.7"/>
	<path class="st35" d="M74.6,163.9c3.6,7.5,12.7,10.5,20.3,6.8c7.6-3.7,10.8-12.8,7.2-20.2c-3.6-7.5-12.7-10.5-20.3-6.8
		C74.2,147.4,71,156.4,74.6,163.9"/>
	<path class="st36" d="M87.4,180.4c0,0,0.4,2-9.1,4.4c-9.6,2.4-24.3,3.6-24.3,3.6l21.6-7.7C75.6,180.8,84,178.2,87.4,180.4"/>
	<path class="st36" d="M61.7,187.2c-4.5,1.3-5.8,4.1-7.4,5.3c-1.6,1.2-3.1,2.8-3.1,2.8c0.5-2.2,1.9-2.7,2.4-3.5
		c0.6-0.8,0.5-0.5-1.2-0.1c-0.9,0.2-2.1,2.3-3,3.5c-0.8,1.1-1.4,1.3-1.4,1.3s0.7-2,1.8-3.7c1.4-2.1,3.2-4.1,3.7-4.4
		c0.9-0.7,3.8-1.6,6.1-2C62.2,186,65,186.3,61.7,187.2"/>
	<path class="st36" d="M53.9,188.4c0,0-3.2,1.9-3.7,2.5c-0.3,0.4-1.6,2.8-1.6,2.8s1.2-0.6,1.8-1.5C51,191.3,53.9,188.4,53.9,188.4"
		/>
	<path class="st7" d="M82,177.5c0,0,8.9-2,9.8,3.4c0.5,3.1-1.2,4.7-3.9,5.2c-5,1-10.8,1.9-10.8,1.9l-4.8-7.4L82,177.5"/>
	<path class="st7" d="M81.5,173l2.5-24.4c0,0-0.2-6.4,2.1-6.3c3.3,0.2,3.9,5.7,4.2,7.7c0.6,4,1.4,5.6,1.4,15.8
		c0,6.3,0.4,13.3,0,17.5c-0.3,2.9-3.1-0.3-6-0.6C80.2,182.2,81.5,173,81.5,173"/>
	<path class="st36" d="M28.1,241.3L20,259l-11.3,0.2L3,258.1l12.3-2.9l6.6-16.4L28.1,241.3"/>
	<path class="st37" d="M18.8,261.8l-1.5-0.4l-0.8-1.8L7.3,260L0,258.7c0,0,0.1-0.6,0.5-0.7c1.3-0.7,7-1,7-1s-0.6,1.6,0,1.9
		c0.6,0.3,7.7-0.1,9.3-0.3c2.9-0.4,4.4-1.1,4.3-0.8C21,258.3,18.8,261.8,18.8,261.8"/>
	<path class="st25" d="M73.1,205.4l-26.6-0.7l-19.8,43.4l-8.2-3.2l19.3-52.3c0,0,1.5-3.3,9.6-3.3c7.8,0,39.3-0.9,42.9,0.1
		C98.9,191.8,71.7,198.2,73.1,205.4"/>
	<path class="st35" d="M92.1,133.2c2.9,5.9,10.1,8.3,16.1,5.4c6-2.9,8.6-10.1,5.7-16c-2.9-5.9-10.1-8.3-16.1-5.4
		C91.7,120.1,89.2,127.3,92.1,133.2"/>
	<path class="st35" d="M79.7,129.4c2.2,4.5,7.7,6.4,12.2,4.2l0.2-4.9c4.5-2.2,6.4-7.7,4.2-12.2l-1.5-3.1c-2.2-4.5-7.7-6.4-12.2-4.2
		l-2.1,1c-4.5,2.2-6.4,7.7-4.2,12.2L79.7,129.4"/>
	<path class="st38" d="M77.1,115.7c0.4,0.8,0.8,1.5,1.3,2.2c3.4,4.9,8.6,7.3,12.3,6.1c1.3,2.3,2.8,4.3,4.3,5.8
		c1.7,1.8,5.2,2.8,5.2,2.8c2.4,3.4,1,13.2-7.5,14.2c-5.1,0.6-4.1-4.8-2.3-8.2c0.8-1.6,1.6-3.4,1.5-4.3c-0.6-3.1-1.8-3.5-3.6-4.6
		c-3.1-1.4-5.9,0.1-5.9,0.1c-0.3,0.1-0.6,0.1-0.8,0c-0.4-0.5-0.8-1-1.1-1.6l-3.3-6.8C76.2,119.6,76.2,117.5,77.1,115.7"/>
	<path class="st5" d="M103.8,196.8c0,0-3.9,0.8-5,1.2c-1.4,0.5-5.7-0.1-5.7-0.1s-0.5-20.9-1.6-28.2c-1-7.3-2.9-9.3-2.9-11.6
		c0-3.6,0.3-4.5,1-7.3c0.6-2.8-1.2-6.6-0.6-5.9c1,1.2,4.9,3,8.5-1C98.2,143.2,103.8,196.8,103.8,196.8"/>
	<path class="st4" d="M90,136.4c0,0-5.3,5.4-5.1,7.1c0.2,1.8-0.3,9.1,0.9,17c1.2,7.9,2.2,9.8,2.4,15.6c0.2,5.7-1.1,7-0.6,14.1
		c0.4,5.5,1.2,10.4,1.2,10.4s2.5,0.7,4.4-1.3c1.9-2.1,1.2-21.2,0.5-26c-0.7-4.7-3.5-17.1-3.3-20.4c0.2-3.3,1.2-11.2,1.8-12.2
		C93.7,138,90.4,136.7,90,136.4"/>
	<path class="st7" d="M90,135.9c0,0,0.3,0.5,0.7,0.7c0.7,0.5,1.6,1.4,1.6,1.4s-1.1-0.5-1.5,0.4c-0.5,1.1-0.8,3.7-0.8,3.7
		s-2-3.2-1.5-4.3C89.3,136,90,135.9,90,135.9"/>
	<path class="st35" d="M97.3,148.6c2,6.6,9.1,10.2,15.8,8.1c6.7-2.1,10.5-9.1,8.4-15.7c-2-6.6-9.1-10.2-15.8-8.1
		S95.2,142.1,97.3,148.6"/>
	<path class="st36" d="M54.4,245.2L54,257.6l-2.5,3l-6.7,3.9l-5-0.9l8.8-6.5l0.6-13L54.4,245.2"/>
	<path class="st37" d="M53.6,260.3l-2.3,1.6l-0.7-0.5l-6.2,3.9c0,0-5.7,1.5-6.7,0.2c-0.4-0.4,0.6-1.1,1.8-2c1-0.7,1.6-1,1.6-1
		s0.3,1,2.5,1.3c0.7,0.1,5.1-2.8,6.7-3.6c2.7-1.4,3.8-3.3,4-3.1C54.6,257.5,53.6,260.3,53.6,260.3"/>
	<path class="st10" d="M107,180l-3.2,7.6l-5.5,0.7l-44.5,2.8c0,0-4-1.2-6.5,5.1c-3.6,9,1.1,53.9,1.1,53.9l6.6-0.1l3.6-42.3
		c0,0,42.7,7.5,55.1,3.7c4.7-1.5,8.3-9.8,7.7-18.3c-0.5-6.6-4.9-12.7-4.9-12.7L107,180"/>
	<path class="st4" d="M100.9,195.9c0,0-2.1-18.7-3.2-27.5c-1.2-8.8-0.9-23.7-1.2-25.8c-0.3-2.1-1.4-5.2-1.4-5.2s2.1-4.8,4.9-4.7
		c2.5,0.1,10.3,2.8,14,4.3c2.6,1.1,1.2,30.8,1.5,32.4c0.8,5.7,3.6,12.1,5.4,16.6c1.4,3.6,2.5,8.9,2.5,8.9S109.3,193.2,100.9,195.9"
		/>
	<path class="st7" d="M99.5,131.2l-2.1,2.4c0,0-2.9,4-2,3.5c1.2-0.7,2.6,3.5,2.6,3.5l3.9-8L99.5,131.2"/>
	<path class="st38" d="M116.6,176.6c0,0,3.3,2.3-9,3.6c-12.3,1.3-30.6,0.4-30.6,0.4l28.1-5.3C105,175.2,112.8,173.7,116.6,176.6"/>
	<path class="st38" d="M86.7,180.4c-5.8,0.8-8,3.8-10.2,4.9c-2.2,1.1-4.3,2.7-4.3,2.7c1-2.4,2.9-2.8,3.7-3.6
		c0.8-0.9,0.6-0.5-1.4-0.3c-1.2,0.1-3,2.2-4.4,3.5c-1.2,1.1-2,1.3-2,1.3s1.2-2.1,3-3.9c2.1-2.2,4.7-4.1,5.4-4.4
		c1.2-0.6,5.1-1.2,7.9-1.3C87.5,179.1,90.9,179.9,86.7,180.4"/>
	<path class="st36" d="M76.8,180.5c0,0-4.3,1.6-5,2.3c-0.5,0.4-2.5,2.9-2.5,2.9s1.6-0.5,2.5-1.4C72.6,183.3,76.8,180.5,76.8,180.5"
		/>
	<path class="st7" d="M109.3,173.2l-4-27.1c0,0,1-5.6,2.7-7.5c2.1-2.3,6-1.6,6-1.6s4.6,3.8,4.9,25.2c0.2,14.7,1.6,20.7-4.7,21.4
		c-5.9,0.6-12.6,1-12.6,1l-4.5-8.9L109.3,173.2"/>
	<path class="st39" d="M37.1,188.6h38.8v-0.8H37.1V188.6z"/>
	<path class="st39" d="M58.8,187.8c0,0.6-0.4,1.1-1,1.1H37.9c-0.5,0-1.3-0.4-1.9-2l-9.8-18c0-0.8,0.6-1.3,1.1-1.1l20.4,0.6
		c0.5,0.1,1,0.5,1.3,1.4L58.8,187.8"/>
	<path class="st40" d="M56.4,188.6H76c-0.7,0.4-1.9,0.6-3.2,0.6H40.2c-1.3,0-2.5-0.2-3.2-0.6H56.4"/>
	<path class="st41" d="M188.6,307.4c0,0,30.7,0.1,42.5,0.2c8.2,0.1,8.9-11.6,5.7-13.3c-9.8-5.3-40.4-8.1-40.4-8.1l-20.8,19.2
		C175.6,305.4,176.7,305.4,188.6,307.4"/>
	<path class="st25" d="M217.5,244.7c0,0,7.9-2.2,11.3,8.1c5.3,15.8,4.8,30.4,4.1,33.5c-0.3,1.4-1.4,6.3-10.2,6.5
		c-3.6,0.1-2.1-7.6-2.1-7.6s-2.3-6.5-4.7-17.5C213.4,256.7,217.5,244.7,217.5,244.7"/>
	<path class="st10" d="M223.7,245.6l-20.2-6.6l-15.3-1l-16.8,5.1c0,0-5.5,3.8-0.4,16c5.1,12.2,3.1,31.3,3.1,31.3l43.3,1.4
		c0,0,0.8-17.6,3.7-35.3C221.8,252.5,221.9,247.9,223.7,245.6"/>
	<path class="st25" d="M194.1,290.9h2.2c2.3-17,2.2-34.6-0.3-51.6c-0.7,0.4-1.3,0.8-2,1.2C194.5,257.9,193.5,275.2,194.1,290.9"/>
	<path class="st36" d="M202.7,243.8c-0.3,2.3-2.2,4.4-4.2,4.5h-5.7c-2-0.1-3.9-2.1-4.2-4.5c-0.5-3.9-0.9-7.7-1.4-11.6
		c-0.3-2.3,1.1-7,4.1-8.3c2.8-1.2,6-1.2,8.8,0c3,1.4,4.4,6,4.1,8.3L202.7,243.8"/>
	<path class="st25" d="M195.4,248.6l-3.6,6l-6.6-8.3l1-4.4l2.2-1.8l0,3.3L195.4,248.6 M195.8,248.6l3.6,6l6.2-7.8l-1-4.8l-1.6-2
		l-0.6,3.9L195.8,248.6"/>
	<path class="st2" d="M194.7,216.5c-1.5,0-3,0.8-3.8,2.1h-1.6c-2,0-3.5,1.6-3.5,3.5c0,0,0,0,0,0v8.8h2.5v-3.6c0-1.4,1.1-2.5,2.5-2.5
		h1.5h-2.3h1.5c2.5,0,4.6-2.1,4.6-4.6c0,0,0,0,0,0v-3.7H194.7"/>
	<path class="st36" d="M190.3,234.2c0,1.2-1,2.2-2.2,2.2c0,0,0,0,0,0h-0.2c-1.2,0-2.2-1-2.2-2.2v-2.6c0-1.2,1-2.2,2.2-2.2h0.2
		c0.9,0,1.6,0.5,2,1.3"/>
	<path class="st2" d="M192.8,220v-3.5h7.5c2.5,0,4.6,2.1,4.6,4.6v3.5h-7.5C194.8,224.6,192.8,222.6,192.8,220"/>
	<path class="st38" d="M204.2,237.5c0,1.8-1.4,4.9-3.7,5.9c-3.1,1.3-6.8,1.3-10,0c-2.3-1-3.7-4.1-3.7-5.9V222c0-1.8,1.8-3.4,4.1-3.4
		h9.2c2.3,0,4.1,1.6,4.1,3.4L204.2,237.5"/>
	<path class="st2" d="M197.3,216.5c1.6,0,3,0.8,3.8,2.1h1.6c2,0,3.5,1.6,3.5,3.5c0,0,0,0,0,0v8.8h-2.5v-3.6c0-1.4-1.1-2.5-2.5-2.5h0
		h0.9h-4c-2.5,0-4.6-2.1-4.6-4.6c0,0,0,0,0,0v-3.7H197.3"/>
	<path class="st38" d="M201.8,231.6c0-1.2,1-2.2,2.2-2.2h0.2c1.2,0,2.2,1,2.2,2.2v2.6c0,1.2-1,2.2-2.2,2.2h-0.2
		c-0.9,0-1.6-0.5-2-1.3"/>
	<path class="st2" d="M193.5,220.9c0.1-0.3,0.1-0.6,0.1-0.9v-3.5h-3.2c-2.5,0-4.6,2.1-4.6,4.6c0,0,0,0,0,0v3.5h3.2
		c0.3,0,0.6,0,0.9-0.1C190.3,222.7,191.7,221.3,193.5,220.9"/>
	<path class="st37" d="M153.4,366.2c-0.5,0.6-0.1,2.1-0.1,2.1s8.3,0.9,10.9,0.3c0.7-0.2,1.9-0.8,3-1.4c0.2-0.1,0.5-0.7,0.7-0.8
		c0.3-0.2,0.5,0.1,0.8,0c0.7-0.5,1.3-0.8,1.3-0.9c0.7-3.8-0.2-5.3-0.2-5.3s-7-2.3-8.3-0.7C158.1,363.2,154.4,364.9,153.4,366.2
		 M230.5,362.1l0.6,6.2l6.2,0.6c0,0,0.4-0.8,1-0.8c0.4,0,0.9,1,1.5,1c1.3,0.1,2.8,0.3,3.4,0.3c1.2,0.1,12.5,1.2,12.5,1.2
		s0.4-1.3,0.1-1.7c-0.1-0.2-1.2-0.7-1.8-1c-3.1-1.2-12.1-5-13.4-8.2C239,355.8,230.5,362.1,230.5,362.1"/>
	<path class="st38" d="M221.1,283l-21.1,8.6c0,0,15,2.1,24.3,0.2C230.6,290.5,221.4,282.7,221.1,283"/>
	<path class="st41" d="M173.1,296.1c0,0-2,19.3-1.7,29.5c0.2,7.7,0.2,22.5-1.6,35c-0.1,0.8-9.9,0.2-9.9,0.2s-3.5-47.9-4.6-55.8
		C154.3,297.2,157.3,291.5,173.1,296.1"/>
	<path class="st42" d="M234.9,300.8c0,0-3.2,5-11.8,6.2c-3.1,0.4,5.1,56.1,5.1,56.1l12.8-4.1l-2.5-61.5L234.9,300.8 M199.5,307
		c0,0-16.8,2.4-27.9,3.6c-4.1,0.4-7.7-11.1-8.1-11.6c-3-3.1-6-2.7-5.8-2.9c2.4-2.6,15-5.1,28.1-8.1c13.1-3.1,15.1-1.1,15.1-1.1
		L199.5,307"/>
	<path class="st41" d="M185.7,288c-13.1,3.1-25.7,5.5-28.1,8.1c-0.1,0.1,2.8-0.3,5.8,2.9c0.1,0.1,0.9,3.8,1.4,5.1
		c-2.1-3.9,28.7-14.7,35.3-17.6C199,286.1,195.4,285.7,185.7,288"/>
	<path class="st42" d="M171.3,306.8l-1.3,37.6l-1.3,8.7l-0.1-8.7l0.3-5.4l-3-8.4l-1.6-19.6l2.3,0.9l-0.3-8.6L171.3,306.8"/>
	<path class="st41" d="M234.5,296.1l3.1,0.9l1.1,45.2l-6.6,16.2l3.1-11l-1.3-22.7c0,0-4.6,11-4.6,10.4c0-0.6,3.8-23.9,3.8-23.9
		s-4.3,3.6-3.8,3.4C229.9,314.4,232,298.2,234.5,296.1"/>
	<path class="st10" d="M180.7,243.3c0,0-6.7-5.3-13.3,4.5c-9.7,14.4-13.9,29.7-15.4,34.1c-1.2,3.4-0.5,13,3.4,17
		c0.9,1,6.6,0.2,6.6,0.2l3.7-2.6l-1.6-3l-0.1-2.4c0,0,4.8-11.6,10.7-22.5C180.7,257.6,180.7,243.3,180.7,243.3"/>
	<path class="st38" d="M164.2,287.3l21.9,1.1c0,0-21.1,9.7-21.8,8C160.4,287,164.2,287.3,164.2,287.3"/>
	<path class="st38" d="M176.3,286.6c1.3-0.6,1.2-0.6,1.2-0.6s1.2,1.4,2.9,1.7c0.8,0.1,3.6,0.2,3.6,0.2l4,0.1l1.9-0.1
		c0,0,1.1-0.1,1.3,0c0.8,0.5,0.1,0.9,0.1,0.9l-7.2,1l6.9,0.9c0,0,0.9,0.3,0.9,0.7c0,0.4-0.3,0.4-0.3,0.4l-8.1,0.9l3.5,0.8
		c0,0,0.8,0.3,0.9,0.7c0.1,0.5,0.1,0.6,0.1,0.6l-7.4-0.7C180.7,294.2,175,287.2,176.3,286.6"/>
	<path class="st38" d="M184.3,291.1l4.9,0.9c0,0,1.1,0.1,1.6,0.4c0.6,0.4,0.2,0.9,0.2,0.9l-7.4-0.6L184.3,291.1"/>
	<path class="st43" d="M214.7,294.9L214.7,294.9v-1.4h-43.1v1.4l0.1,0.3c0.7,1.2,2,1.4,3.6,1.4H211c1.5,0,2.8-0.2,3.6-1.4
		L214.7,294.9"/>
	<path class="st44" d="M178.9,294.8h28.5v-1h-28.5V294.8z"/>
	<path class="st45" d="M214.7,293.6l0.1-28.3c0-0.7-0.6-1.3-1.3-1.3c0,0,0,0,0,0h-40.3c-0.7,0-1.3,0.6-1.3,1.4l-0.1,28.3
		L214.7,293.6"/>
	<path class="st43" d="M195.8,278.8c0,1.4-1.2,2.6-2.6,2.6c-1.4,0-2.6-1.2-2.6-2.6c0,0,0,0,0,0c0-1.4,1.2-2.6,2.6-2.6
		C194.7,276.2,195.8,277.4,195.8,278.8C195.8,278.8,195.8,278.8,195.8,278.8"/>
	<path class="st25" d="M161.4,298.2l-1.5-9.6l2.5-2.6l5.5,0.9l-1.1,10.6L161.4,298.2"/>
	<path class="st10" d="M228.5,291.3l0.6-3.5l-7-6.3l-3.8,1.7l4.9,9.5L228.5,291.3"/>
</g>
</svg>
