<?xml version="1.0" encoding="utf-8"?>
<!-- Generator: Adobe Illustrator 22.0.0, SVG Export Plug-In . SVG Version: 6.00 Build 0)  -->
<svg version="1.1" id="Слой_1" xmlns="http://www.w3.org/2000/svg" xmlns:xlink="http://www.w3.org/1999/xlink" x="0px" y="0px"
	 viewBox="0 0 42 42" style="enable-background:new 0 0 42 42;" xml:space="preserve">
<g>
	<path d="M26.9,15.6c-3.4,2.1-6.7,4.2-10.1,6.3c-0.2,0.1-0.2,0.2-0.2,0.4c0.2,0.7,0.5,1.4,0.7,2.1l0.9,2.9v0l0,0c0,0,0-0.1,0-0.1
		c0.1-1,0.2-2.1,0.3-3.1c0-0.2,0.1-0.4,0.3-0.6c1.4-1.2,2.8-2.5,4.1-3.7c1.5-1.4,3-2.7,4.6-4.1c0.1-0.1,0.1-0.2,0.2-0.3
		c-0.1,0-0.3-0.1-0.4,0C27.2,15.4,27.1,15.5,26.9,15.6z"/>
	<path d="M21,0C9.4,0,0,9.4,0,21c0,11.6,9.4,21,21,21s21-9.4,21-21C42,9.4,32.6,0,21,0z M31.2,15.1c-1,4.6-1.9,9.2-2.9,13.7
		c-0.2,1.1-1,1.4-1.9,0.7c-1.5-1.1-3-2.2-4.5-3.3c-0.1-0.1-0.1-0.1-0.2-0.2v0c-0.8,0.8-1.6,1.6-2.4,2.3c-0.3,0.3-0.6,0.4-1,0.4
		c-0.3,0-0.4-0.1-0.5-0.4c-0.6-1.9-1.2-3.8-1.8-5.7c-0.1-0.2-0.1-0.3-0.3-0.3c-1.4-0.4-2.9-0.9-4.3-1.3c-0.2-0.1-0.4-0.2-0.6-0.3
		c-0.3-0.2-0.3-0.5-0.1-0.8c0.2-0.2,0.5-0.4,0.8-0.5c1.8-0.7,3.5-1.4,5.3-2l13.4-5.2c0.8-0.3,1.5,0.1,1.4,1.1
		C31.5,13.9,31.3,14.5,31.2,15.1z"/>
</g>
</svg>
