<svg xmlns="http://www.w3.org/2000/svg" width="22" height="21" viewBox="0 0 22 21">
    <g fill="#ED655F" fill-rule="nonzero">
        <path d="M12.5 19.108a1.013 1.013 0 0 1-.714-1.734l6.788-6.742a4.769 4.769 0 0 0 1.399-3.425 4.658 4.658 0 0 0-1.393-3.334c-1.822-1.821-5.02-1.815-6.824-.008L2.892 12.73a1.015 1.015 0 0 1-1.434-1.434L10.32 2.43A6.8 6.8 0 0 1 15.163.437a6.8 6.8 0 0 1 4.843 1.994C21.28 3.68 21.991 5.374 22 7.197a6.783 6.783 0 0 1-1.995 4.872l-6.79 6.745a1.014 1.014 0 0 1-.715.294z"/>
        <path d="M4.963 19.803h-.04a4.854 4.854 0 0 1-3.476-1.474c-1.931-1.932-1.931-5.092.01-7.034a1.015 1.015 0 0 1 1.434 1.434 2.955 2.955 0 0 0 0 4.177 2.85 2.85 0 0 0 2.048.87 2.873 2.873 0 0 0 2.13-.87l8.108-8.11a1.015 1.015 0 0 1 1.434 1.434l-8.109 8.11a4.97 4.97 0 0 1-3.54 1.463z"/>
        <path d="M9.2 11.422a1.014 1.014 0 0 1-.717-1.73l3.771-3.772c1.16-1.157 3.198-1.157 4.357 0 .56.525.886 1.276.898 2.091a3.092 3.092 0 0 1-.898 2.219 1.015 1.015 0 0 1-1.434-1.434c.198-.198.309-.472.305-.755a.922.922 0 0 0-.282-.666c-.436-.434-1.12-.414-1.512-.02l-3.771 3.77a1.014 1.014 0 0 1-.717.297z"/>
    </g>
</svg>
