<?xml version="1.0" encoding="utf-8"?>
<!-- Generator: Adobe Illustrator 22.0.0, SVG Export Plug-In . SVG Version: 6.00 Build 0)  -->
<svg version="1.1" xmlns="http://www.w3.org/2000/svg" xmlns:xlink="http://www.w3.org/1999/xlink" x="0px" y="0px"
	 viewBox="0 0 11 16" style="enable-background:new 0 0 11 16;" xml:space="preserve">
<style type="text/css">
	.st0{fill:#3D89E0;}
</style>
<g id="Слой_1">
</g>
<g id="Слой_2">
	<path class="st0" d="M9,16H2c-1.1,0-2-0.9-2-2V3c0-1.1,0.9-2,2-2h1v2h5V1h1c1.1,0,2,0.9,2,2v11C11,15.1,10.1,16,9,16z M2,2
		C1.4,2,1,2.4,1,3v11c0,0.6,0.4,1,1,1h7c0.6,0,1-0.4,1-1V3c0-0.6-0.4-1-1-1v2H2V2z M4,1l0,1h3V1H6l0-1H5l0,1H4z"/>
</g>
</svg>
