<svg xmlns="http://www.w3.org/2000/svg" width="28" height="13" viewBox="0 0 28 13">
    <path fill="#9C9C9C" fill-rule="evenodd" d="M2 0h24a2 2 0 0 1 2 2v9a2 2 0 0 1-2 2H2a2 2 0 0 1-2-2V2a2 2 0 0 1 2-2zm6.224 7.533c-.093.324-.23.558-.412.703a1.043 1.043 0 0 1-.673.219c-.392 0-.719-.14-.981-.422-.263-.28-.4-.673-.413-1.178h4.267c.024-1.306-.24-2.274-.794-2.907C8.665 3.316 7.91 3 6.952 3c-.853 0-1.558.302-2.116.906C4.28 4.51 4 5.346 4 6.412c0 .893.212 1.632.636 2.218.538.732 1.366 1.097 2.485 1.097.707 0 1.296-.162 1.767-.488.47-.325.815-.799 1.033-1.42l-1.697-.286zm2.576.212c.158.61.492 1.093 1.003 1.449.511.355 1.205.533 2.082.533.966 0 1.695-.212 2.188-.636.493-.424.74-.931.74-1.521 0-.542-.179-.964-.534-1.267-.36-.299-.993-.551-1.9-.758-.907-.206-1.438-.365-1.591-.478-.113-.085-.17-.188-.17-.31 0-.14.065-.256.194-.345.194-.125.515-.188.964-.188.355 0 .63.067.821.2a.993.993 0 0 1 .39.576l1.607-.297c-.162-.562-.457-.986-.885-1.273-.428-.287-1.083-.43-1.964-.43-.925 0-1.608.19-2.048.57-.44.38-.66.848-.66 1.406 0 .618.254 1.1.763 1.448.368.25 1.238.528 2.612.83.295.07.485.144.57.225.08.085.121.192.121.321 0 .19-.075.341-.224.455-.222.161-.554.242-.994.242-.4 0-.711-.086-.933-.258-.223-.171-.37-.423-.443-.754l-1.709.26zm13.115-2.697c-.202-.69-.534-1.205-.997-1.542C22.456 3.17 21.832 3 21.048 3c-.957 0-1.717.296-2.278.888-.562.592-.843 1.42-.843 2.482 0 1.05.28 1.872.84 2.466.56.594 1.31.891 2.251.891.828 0 1.49-.196 1.982-.588.493-.392.826-.971 1-1.739l-1.673-.285c-.085.449-.23.765-.436.949-.206.183-.47.275-.794.275-.432 0-.777-.157-1.033-.472-.257-.315-.385-.855-.385-1.619 0-.686.126-1.176.379-1.47.252-.292.59-.439 1.015-.439.319 0 .579.085.779.255.2.17.328.422.384.758l1.68-.304zm-15.594.764H5.776c-.004-.465.115-.832.357-1.103.243-.27.55-.406.922-.406.347 0 .642.128.884.385.243.256.37.631.382 1.124z"/>
</svg>
