<?xml version="1.0" encoding="utf-8"?>
<!-- Generator: Adobe Illustrator 22.0.0, SVG Export Plug-In . SVG Version: 6.00 Build 0)  -->
<svg version="1.1" id="Слой_1" xmlns="http://www.w3.org/2000/svg" xmlns:xlink="http://www.w3.org/1999/xlink" x="0px" y="0px"
	 viewBox="0 0 127 53" style="enable-background:new 0 0 127 53;" xml:space="preserve">
<style type="text/css">
	.st0{fill:#FFCA00;}
	.st1{fill:#4718B4;}
	.st2{fill:#E2086E;}
</style>
<g>
	<g transform="translate(100 100)">
		<path class="st0" d="M-64-100h45c1.7,0,3,1.3,3,3v8c0,1.7-1.3,3-3,3h-45c-1.7,0-3-1.3-3-3v-8C-67-98.7-65.7-100-64-100z"/>
		<path class="st1" d="M-67-89h58c1.7,0,3,1.3,3,3v36c0,1.7-1.3,3-3,3h-55c-1.7,0-3-1.3-3-3V-89z"/>
		<circle class="st0" cx="-19" cy="-68" r="3"/>
		<path class="st2" d="M-71-79h-17l-6-10.3l6-10.7h17l-5.9,10.7L-71-79z M18-68h3.2L27-57.7L21.2-47H18l5.6-10.7L18-68z"/>
		<path class="st0" d="M-2-68h17l6,10.3L15-47H-2l5.9-10.7L-2-68z"/>
		<path class="st1" d="M-91-79h-3.2l-5.8-10.3l5.8-10.7h3.2l-5.6,10.7L-91-79z"/>
	</g>
</g>
</svg>
