<?xml version="1.0" encoding="utf-8"?>
<!-- Generator: Adobe Illustrator 22.0.0, SVG Export Plug-In . SVG Version: 6.00 Build 0)  -->
<svg version="1.1" id="Слой_1" xmlns="http://www.w3.org/2000/svg" xmlns:xlink="http://www.w3.org/1999/xlink" x="0px" y="0px"
	 viewBox="0 0 142.5 41" style="enable-background:new 0 0 142.5 41;" xml:space="preserve">
<style type="text/css">
	.st0{fill:#E8006C;}
	.st1{fill:#4718B4;}
</style>
<g>
	<path class="st0" d="M12.7,10.1l-8,7L0,11.6L12.9,0.7h7.8v39.6h-8.1C12.7,40.3,12.7,10.1,12.7,10.1z M74.6,8.1H58.8l-0.2,6.1
		c0.9-0.3,2-0.4,3.5-0.4c2,0,3.9,0.3,5.5,0.9s3.1,1.5,4.3,2.6c1.2,1.1,2.2,2.5,2.8,4.1c0.7,1.6,1,3.4,1,5.5c0,2.2-0.4,4.2-1.1,6
		c-0.8,1.8-1.8,3.2-3.2,4.5s-2.9,2.1-4.8,2.8s-3.9,1-6,1c-3.4,0-6.3-0.8-8.6-2.5c-2.3-1.7-3.9-4.2-4.8-7.6l8.8-2
		c0.2,1.4,0.8,2.6,1.8,3.4c1,0.9,2.2,1.3,3.6,1.3c1.8,0,3.2-0.6,4.3-1.7c1.1-1.1,1.6-2.5,1.6-4.3c0-1.3-0.3-2.4-0.8-3.2
		c-0.5-0.8-1.3-1.5-2.1-2c-0.9-0.5-1.9-0.9-2.9-1c-1.1-0.2-2.2-0.3-3.2-0.3c-1.4,0-2.8,0.1-4.2,0.4c-1.4,0.3-2.8,0.6-4.1,1.1
		l0.4-21.9h24L74.6,8.1L74.6,8.1z M80.3,20.5c0-2.4,0.2-4.7,0.6-7.2c0.4-2.4,1.2-4.6,2.3-6.6c1.1-2,2.6-3.6,4.5-4.8
		C89.6,0.6,92.1,0,95,0s5.4,0.6,7.3,1.9c1.9,1.2,3.4,2.9,4.5,4.8c1.1,2,1.9,4.2,2.3,6.6c0.4,2.4,0.6,4.8,0.6,7.2
		c0,2.4-0.2,4.8-0.6,7.2c-0.4,2.4-1.2,4.6-2.3,6.6c-1.1,2-2.6,3.6-4.5,4.8C100.4,40.4,98,41,95,41s-5.4-0.6-7.3-1.9
		c-1.9-1.2-3.4-2.9-4.5-4.8c-1.1-2-1.9-4.2-2.3-6.6C80.5,25.3,80.3,22.9,80.3,20.5z M88.7,20.5c0,1,0,2.3,0.1,3.8
		c0.1,1.5,0.3,2.9,0.8,4.2c0.4,1.3,1,2.5,1.9,3.4c0.8,0.9,2,1.4,3.6,1.4c1.5,0,2.7-0.5,3.5-1.4c0.9-0.9,1.5-2.1,1.9-3.4
		c0.4-1.3,0.7-2.7,0.8-4.2c0.1-1.2,0.1-2.5,0.1-3.8c0-1.3-0.1-2.5-0.1-3.8c-0.1-1.4-0.3-2.8-0.8-4.2c-0.4-1.3-1-2.5-1.9-3.4
		s-2-1.4-3.5-1.4c-1.5,0-2.7,0.5-3.6,1.4c-0.8,0.9-1.5,2.1-1.9,3.4c-0.4,1.4-0.7,2.8-0.8,4.2C88.7,18,88.7,19.2,88.7,20.5z
		 M113.1,20.5c0-2.4,0.2-4.7,0.6-7.2c0.4-2.4,1.2-4.6,2.3-6.6c1.1-2,2.6-3.6,4.5-4.8c1.9-1.3,4.3-1.9,7.3-1.9c2.9,0,5.4,0.6,7.3,1.9
		c1.9,1.2,3.4,2.9,4.5,4.8c1.1,2,1.9,4.2,2.3,6.6c0.4,2.4,0.6,4.8,0.6,7.2c0,2.4-0.2,4.8-0.6,7.2c-0.4,2.4-1.2,4.6-2.3,6.6
		c-1.1,2-2.6,3.6-4.5,4.8c-1.9,1.3-4.3,1.9-7.3,1.9c-2.9,0-5.4-0.6-7.3-1.9c-1.9-1.2-3.4-2.9-4.5-4.8c-1.1-2-1.9-4.2-2.3-6.6
		C113.3,25.3,113.1,22.9,113.1,20.5z M121.5,20.5c0,1,0,2.3,0.1,3.8c0.1,1.5,0.3,2.9,0.8,4.2c0.4,1.3,1,2.5,1.9,3.4
		c0.8,0.9,2,1.4,3.6,1.4c1.5,0,2.7-0.5,3.5-1.4c0.9-0.9,1.5-2.1,1.9-3.4c0.4-1.3,0.7-2.7,0.8-4.2c0.1-1.2,0.1-2.5,0.1-3.8
		c0-1.3-0.1-2.5-0.1-3.8c-0.1-1.4-0.3-2.8-0.8-4.2c-0.4-1.3-1-2.5-1.9-3.4c-0.9-0.9-2-1.4-3.5-1.4c-1.5,0-2.7,0.5-3.6,1.4
		c-0.8,0.9-1.5,2.1-1.9,3.4c-0.4,1.4-0.7,2.8-0.8,4.2C121.5,18,121.5,19.2,121.5,20.5z"/>
	<path class="st1" d="M32.5,35.5c0-0.7,0.1-1.4,0.4-2c0.3-0.6,0.6-1.2,1.1-1.7c0.5-0.5,1-0.8,1.7-1.1c0.6-0.3,1.3-0.4,2-0.4
		c0.7,0,1.4,0.1,2,0.4c0.6,0.3,1.2,0.6,1.7,1.1c0.5,0.5,0.8,1,1.1,1.7c0.3,0.6,0.4,1.3,0.4,2c0,0.7-0.1,1.4-0.4,2
		c-0.3,0.6-0.6,1.2-1.1,1.7c-0.5,0.5-1,0.8-1.7,1.1c-0.6,0.3-1.3,0.4-2,0.4c-0.7,0-1.4-0.1-2-0.4C35,40,34.5,39.6,34,39.2
		c-0.5-0.5-0.8-1-1.1-1.7C32.7,36.9,32.5,36.2,32.5,35.5z M32.5,17.6c0-0.7,0.1-1.4,0.4-2c0.3-0.6,0.6-1.2,1.1-1.7
		c0.5-0.5,1-0.8,1.7-1.1c0.6-0.3,1.3-0.4,2-0.4c0.7,0,1.4,0.1,2,0.4c0.6,0.3,1.2,0.6,1.7,1.1c0.5,0.5,0.8,1,1.1,1.7
		c0.3,0.6,0.4,1.3,0.4,2c0,0.7-0.1,1.4-0.4,2c-0.3,0.6-0.6,1.2-1.1,1.7c-0.5,0.5-1,0.8-1.7,1.1c-0.6,0.3-1.3,0.4-2,0.4
		c-0.7,0-1.4-0.1-2-0.4c-0.6-0.3-1.2-0.6-1.7-1.1c-0.5-0.5-0.8-1-1.1-1.7C32.7,19,32.5,18.3,32.5,17.6z"/>
</g>
</svg>
