<?xml version="1.0" encoding="utf-8"?>
<!-- Generator: Adobe Illustrator 22.0.0, SVG Export Plug-In . SVG Version: 6.00 Build 0)  -->
<svg version="1.1" id="Слой_1" xmlns="http://www.w3.org/2000/svg" xmlns:xlink="http://www.w3.org/1999/xlink" x="0px" y="0px"
	 viewBox="0 0 80 87.7" style="enable-background:new 0 0 80 87.7;" xml:space="preserve">
<style type="text/css">
	.st0{fill:#E2086E;}
	.st1{fill:#FFCA00;}
	.st2{fill:#4718B4;}
</style>
<g>
	<path class="st0" d="M0,35.7h80v5H0V35.7z M0,47.7h80v5H0V47.7z"/>
	<path class="st1" d="M59,9.7v15.2L40.9,35.7L22,24.9V9.7l18.9,10.5L59,9.7z"/>
	<path class="st2" d="M59,78.7V63.5L40.9,52.7L22,63.5v15.2l18.9-10.5L59,78.7z M59,0.2V6L40.9,16.2L22,6V0.2l18.9,10L59,0.2z"/>
	<path class="st1" d="M59,87.7v-5.8L40.9,71.7L22,81.9v5.8l18.9-10L59,87.7z"/>
</g>
</svg>
