<?xml version="1.0" encoding="utf-8"?>
<!-- Generator: Adobe Illustrator 22.0.0, SVG Export Plug-In . SVG Version: 6.00 Build 0)  -->
<svg version="1.1" id="Слой_1" xmlns="http://www.w3.org/2000/svg" xmlns:xlink="http://www.w3.org/1999/xlink" x="0px" y="0px"
	 viewBox="0 0 103 73" style="enable-background:new 0 0 103 73;" xml:space="preserve">
<style type="text/css">
	.st0{fill:#4718B4;}
	.st1{fill:#FFCA00;}
	.st2{fill:#E2086E;}
	.st3{fill:#FFFFFF;}
</style>
<g>
	<g transform="translate(100 100)">
		<path class="st0" d="M-98-100H1c1.1,0,2,0.9,2,2v11c0,1.1-0.9,2-2,2h-99c-1.1,0-2-0.9-2-2v-11C-100-99.1-99.1-100-98-100z"/>
		<path class="st1" d="M-91-93h85v35c0,1.1-0.9,2-2,2h-81c-1.1,0-2-0.9-2-2V-93z"/>
		<path class="st2" d="M-33-46v10.7L-48.2-27L-64-35.3V-46l15.8,8.1L-33-46z"/>
		<circle class="st3" cx="-48" cy="-75" r="13"/>
	</g>
</g>
</svg>
