<svg xmlns="http://www.w3.org/2000/svg" xmlns:xlink="http://www.w3.org/1999/xlink" width="118" height="43" viewBox="0 0 118 43">
    <defs>
        <path id="a" d="M.225.343h13.632v7.613H.225z"/>
        <path id="c" d="M.36.478h17.11v7.478H.36z"/>
    </defs>
    <g fill="none" fill-rule="evenodd">
        <path fill="#1C1B19" d="M15.243 5.313H10.07c-.093 2.24-.198 4.279-.313 6.118a72.98 72.98 0 0 1-.468 4.968c-.198 1.473-.458 2.776-.782 3.908-.324 1.131-.741 2.11-1.25 2.935-.324.542-.69.99-1.094 1.344a5.757 5.757 0 0 1-1.267.848c-.44.213-.875.36-1.303.443A6.373 6.373 0 0 1 2.396 26c-.533 0-.979-.041-1.338-.123A5.171 5.171 0 0 1 0 25.505l.52-4.172a2.62 2.62 0 0 0 .834.14c.37 0 .735-.093 1.093-.283.36-.187.666-.506.921-.954.347-.518.648-1.278.903-2.28.254-1.003.48-2.281.676-3.838.197-1.556.354-3.412.47-5.569.114-2.157.195-4.673.243-7.549H20v24.752h-4.757V5.313M34.476 17.791l.174-2.555h-.105l-1.496 2.628L26.854 26H24V8h4.524v8.568l-.208 2.448h.139l1.427-2.556L36.146 8H39v18h-4.524v-8.209M57 12.14h-5.013V26h-4.831V12.14H42V8h15v4.14"/>
        <path fill="#DF5530" d="M67.121 4.155c-.465 0-.908.018-1.326.053-.419.035-.757.076-1.012.124v7.992c.092.023.232.047.419.07a10.638 10.638 0 0 0 1.204.07h.436c.629 0 1.252-.057 1.867-.175a4.585 4.585 0 0 0 1.66-.651 3.39 3.39 0 0 0 1.169-1.321c.29-.564.436-1.303.436-2.218 0-.775-.14-1.414-.419-1.92a3.449 3.449 0 0 0-1.1-1.214 4.25 4.25 0 0 0-1.553-.633 8.94 8.94 0 0 0-1.78-.177M60 .599a32.69 32.69 0 0 1 3.229-.44A39.01 39.01 0 0 1 66.737 0c1.21 0 2.427.1 3.648.3 1.222.199 2.323.598 3.3 1.197.977.598 1.774 1.431 2.39 2.499.616 1.069.925 2.46.925 4.172 0 1.55-.266 2.86-.803 3.927-.535 1.069-1.244 1.942-2.129 2.623a8.544 8.544 0 0 1-3.019 1.479c-1.129.306-2.299.458-3.507.458h-.56a19.934 19.934 0 0 1-1.624-.07 5.833 5.833 0 0 1-.576-.07V25H60V.599M86.681 10.668c-1.478.043-2.168.411-2.785 1.13-.613.713-.967 1.688-1.086 2.911l6.79.063c.096-1.294-.022-2.295-.515-2.99-.494-.696-1.343-1.145-2.404-1.114m6.737 13.28c-.728.576-1.716 1.062-2.965 1.458a13.072 13.072 0 0 1-3.981.594c-2.934 0-5.079-.846-6.437-2.538C78.678 21.772 78 19.45 78 16.5c0-3.166.763-5.542 2.29-7.125C81.817 7.791 83.963 7 86.726 7c.921 0 1.819.12 2.692.36.873.24 1.648.636 2.327 1.187.68.552 1.225 1.296 1.636 2.231.412.935.619 2.1.619 3.492 0 .502-.03 1.042-.091 1.618-.06.576-.151 1.175-.272 1.8h-10.96c.072 1.511.551 2.65 1.264 3.417.712.769 1.867 1.151 3.46 1.151.99 0 1.864-.19 2.664-.449.997-.322 1.935-.76 1.935-.76l1.418 2.901M108.11 10.92s-1.367-.294-2.444-.294c-3.064 0-5.054 1.854-5.054 5.945 0 3.838 1.518 5.734 4.718 5.734 1.044 0 3.055-.295 3.055-.295l.615 3.279a14.53 14.53 0 0 1-4.479.711C98.291 26 96 21.197 96 16.322 96 11.412 98.694 7 104.892 7c1.145 0 2.557.142 3.872.498l-.654 3.421M118 10.5a2.5 2.5 0 1 1-5 0 2.5 2.5 0 0 1 5 0M118 23.5a2.5 2.5 0 1 1-5 0 2.5 2.5 0 0 1 5 0"/>
        <g transform="translate(0 35)">
            <mask id="b" fill="#fff">
                <use xlink:href="#a"/>
            </mask>
            <path fill="#DF5530" d="M3.077 5.913c1.158 0 1.737-.794 1.737-2.383 0-1.568-.571-2.352-1.714-2.352-1.14 0-1.71.788-1.71 2.364 0 1.58.562 2.37 1.687 2.37zm-.017.834c-.861 0-1.55-.29-2.064-.871S.225 4.516.225 3.542c0-.986.257-1.765.774-2.34.516-.572 1.217-.859 2.1-.859.885 0 1.585.287 2.101.86.516.574.774 1.35.774 2.327 0 1.002-.259 1.787-.777 2.36-.518.571-1.23.857-2.137.857zM8.785 5.72h2.88V1.313H9.85v.107a8.977 8.977 0 0 1-1.065 4.3zM7.115 8V5.72h.55c.41-.62.718-1.327.923-2.119.205-.792.308-1.67.308-2.637V.478h3.868V5.72h1.093V8h-1.092V6.606H8.207V8H7.115z" mask="url(#b)"/>
        </g>
        <path fill="#DF5530" d="M16 42v-6h1.042v4.542L19.89 36H21v6h-1.041v-4.54L17.115 42H16M23 42v-6h1.109v2.437h2.782V36H28v6h-1.11v-2.745H24.11V42H23M34 42v-6h1.096l.007 2.625c.512 0 .84-.05.984-.15.146-.1.374-.432.686-1l.145-.254c.289-.522.541-.856.757-1.002.215-.146.57-.219 1.063-.219v.818h-.061c-.237 0-.419.054-.543.16-.124.107-.289.348-.492.725l-.095.176c-.22.401-.382.657-.49.768-.108.11-.316.23-.624.359.29.077.492.166.607.268.115.101.326.377.635.826l.262.375.228.332.29.425c.088.133.215.312.378.537L39 42h-1.191l-.167-.226a37.43 37.43 0 0 1-.752-1.055c-.33-.476-.654-.902-.97-1.277h-.824V42H34M40 42v-.818c.448-.036.777-.27.99-.7.21-.432.317-1.09.317-1.973l.041-1.21.02-.708V36H45v6h-1.018v-5.126h-1.689v.098c0 .089-.007.26-.02.515l-.068 1.414c-.054 1.035-.265 1.81-.632 2.326S40.682 42 40 42M48 42v-6h1.042v4.542L51.892 36H53v6h-1.041v-4.54L49.115 42H48"/>
        <g transform="translate(55 35)">
            <mask id="d" fill="#fff">
                <use xlink:href="#c"/>
            </mask>
            <path fill="#DF5530" d="M.36 6.606V.478h1.125l.005 2.68c.525 0 .862-.051 1.01-.151.15-.103.383-.443.703-1.022l.149-.26c.296-.534.555-.875.776-1.024.22-.148.584-.223 1.09-.223v.835h-.063c-.243 0-.429.055-.556.163-.128.11-.296.356-.505.74l-.097.181c-.225.41-.393.671-.503.784-.11.113-.323.235-.64.367.297.079.505.17.623.274.118.103.335.385.65.843l.269.384.234.338.297.435c.091.135.221.318.388.547l.171.237H4.265l-.171-.23a38.183 38.183 0 0 1-.771-1.079c-.339-.485-.67-.92-.994-1.304h-.844v2.613H.36" mask="url(#d)"/>
            <path fill="#0A0B09" d="M12.254 5.72h2.962V1.313h-1.867v.107c0 .768-.09 1.51-.274 2.227a8.857 8.857 0 0 1-.821 2.073zM10.535 8V5.72h.566c.421-.62.739-1.327.95-2.119.211-.792.316-1.67.316-2.637V.478h3.98V5.72h1.124V8h-1.125V6.606H11.66V8h-1.125z" mask="url(#d)"/>
        </g>
        <path fill="#0A0B09" d="M75.977 40.218c1.209 0 1.813-.744 1.813-2.232 0-1.47-.596-2.204-1.79-2.204-1.188 0-1.783.738-1.783 2.215 0 1.48.586 2.221 1.76 2.221zM75.96 41c-.9 0-1.618-.272-2.154-.816-.536-.545-.806-1.274-.806-2.187 0-.923.27-1.654.809-2.192C74.346 35.268 75.077 35 76 35c.923 0 1.654.268 2.193.805.537.538.807 1.266.807 2.181 0 .938-.27 1.674-.81 2.211-.54.535-1.284.803-2.23.803zM85 42v-6h1.097l.006 2.625c.511 0 .84-.05.985-.15.144-.1.373-.432.685-1l.145-.254c.29-.522.541-.856.757-1.002.215-.146.57-.219 1.064-.219v.818h-.062c-.237 0-.419.054-.543.16-.124.107-.288.348-.493.725l-.095.176c-.218.401-.382.657-.49.768-.107.11-.314.23-.623.359.289.077.492.166.608.268.114.101.326.377.634.826l.261.375.229.332.29.425c.089.133.215.312.378.537L90 42h-1.192l-.167-.226a38.921 38.921 0 0 1-.751-1.055c-.331-.476-.653-.902-.969-1.277h-.824V42H85M91 42v-6h1.109v2.437h2.782V36H96v6h-1.109v-2.745H92.11V42H91M98 42v-6h1.041v4.542l2.85-4.542H103v6h-1.041v-4.54L99.115 42H98M106 42v-6h4v.956h-3.003V42H106"/>
    </g>
</svg>
