<svg xmlns="http://www.w3.org/2000/svg" xmlns:xlink="http://www.w3.org/1999/xlink" width="143" height="52" viewBox="0 0 143 52">
    <defs>
        <path id="a" d="M.033.407h142.624V52H.033z"/>
    </defs>
    <g fill="none" fill-rule="evenodd">
        <g>
            <mask id="b" fill="#fff">
                <use xlink:href="#a"/>
            </mask>
            <path fill="#FFFFFE" d="M.033 52h142.624V.407H.033z" mask="url(#b)"/>
        </g>
        <path fill="#89C7A4" d="M39 9H8v31L39 9"/>
        <path fill="#105657" d="M11 43h31V12L11 43"/>
        <path fill="#161616" d="M67.242 19.813c0 3.529-2.099 5.394-6.069 5.394H56.9V14.424h4.273c4.14 0 6.069 1.653 6.069 5.203v.186zM61.173 9H50v34h6.9V30.298h4.415C69.377 30.298 74 26.477 74 19.813v-.186C74 12.873 69.325 9 61.173 9zM84.92 27.45h5.127c4.188 0 6.224 1.626 6.224 4.97v.187c0 3.33-2.014 5.02-5.986 5.02H84.92V27.45zm5.7-5.095h-5.7v-7.84h15.122V9H78v34h12.476C98.436 43 103 39.23 103 32.657v-.187c0-6.523-4.397-10.115-12.38-10.115zM119.41 25.257L133.325 9h-7.394l-12.195 14.626V9.046H107V43h6.736V27.97L125.975 43H134l-14.59-17.743"/>
    </g>
</svg>
