<svg xmlns="http://www.w3.org/2000/svg" xmlns:xlink="http://www.w3.org/1999/xlink" width="195" height="60" viewBox="0 0 195 60">
    <defs>
        <path id="a" d="M8.623 5.189L5.049 8.95.165 3.81 3.74.046 8.623 5.19"/>
        <path id="c" d="M.099 4.003L3.673.429l4.884 4.884-3.574 3.574L.099 4.003"/>
    </defs>
    <g fill="none" fill-rule="evenodd">
        <path fill="#000302" d="M86.131 18.336l-4.645 6.472-4.617-6.472V27H74V13h2.24l5.246 7.159 5.3-7.159H89v14h-2.869v-8.664M98.487 15.762c-.638 0-1.235.117-1.79.352a4.433 4.433 0 0 0-1.448.975 4.36 4.36 0 0 0-.956 1.489 5.205 5.205 0 0 0-.341 1.922c0 .704.113 1.345.34 1.922.228.578.547 1.079.957 1.503.41.424.892.749 1.448.974a4.694 4.694 0 0 0 1.79.339 4.61 4.61 0 0 0 1.816-.352 4.432 4.432 0 0 0 1.448-.975c.41-.415.728-.911.957-1.489a5.203 5.203 0 0 0 .342-1.922c0-.704-.115-1.344-.342-1.922a4.388 4.388 0 0 0-.957-1.49 4.448 4.448 0 0 0-1.448-.974 4.625 4.625 0 0 0-1.816-.352zm0 12.238c-1.075 0-2.068-.19-2.978-.569a7.448 7.448 0 0 1-2.377-1.557 6.878 6.878 0 0 1-1.572-2.369c-.374-.92-.56-1.922-.56-3.005s.186-2.085.56-3.005c.373-.92.897-1.71 1.572-2.37a7.463 7.463 0 0 1 2.377-1.557c.91-.378 1.903-.568 2.978-.568 1.074 0 2.072.19 2.99.568.92.38 1.713.899 2.378 1.557a7.166 7.166 0 0 1 1.57 2.37c.384.92.575 1.922.575 3.005s-.191 2.085-.574 3.005a7.155 7.155 0 0 1-1.57 2.37 7.278 7.278 0 0 1-2.378 1.556c-.92.38-1.917.569-2.991.569zM119.942 17.521a17.014 17.014 0 0 0-1.246-.717 9.568 9.568 0 0 0-1.273-.555 9.83 9.83 0 0 0-1.434-.352 8.926 8.926 0 0 0-1.517-.135c-.524 0-.939.036-1.246.108a3.46 3.46 0 0 0-.731.244c-.325.144-.55.32-.677.528-.127.207-.19.41-.19.609 0 .307.109.533.325.677.217.144.38.234.488.27.162.055.406.109.731.163.325.054.857.118 1.598.19l1.923.162c.757.072 1.484.216 2.18.433.694.217 1.276.533 1.746.948.307.253.613.618.92 1.096.308.479.461 1.097.461 1.855 0 .487-.108 1.056-.325 1.705-.217.65-.677 1.264-1.381 1.842a5.008 5.008 0 0 1-1.246.758 8.22 8.22 0 0 1-1.286.42c-.425.099-.84.162-1.245.19-.407.026-.772.04-1.097.04-1.5 0-2.916-.226-4.252-.677a11.813 11.813 0 0 1-1.678-.758 8.254 8.254 0 0 1-1.49-1.056l1.733-2.41c.379.311.795.608 1.246.891.45.283.92.525 1.408.726.505.202 1.01.348 1.516.44a9.48 9.48 0 0 0 1.68.136c.433 0 .86-.036 1.286-.109a3.401 3.401 0 0 0 1.15-.408c.415-.237.691-.5.827-.79.135-.291.202-.555.202-.792 0-.454-.135-.785-.406-.994a3.404 3.404 0 0 0-.731-.45 3.94 3.94 0 0 0-1.07-.273c-.352-.036-.69-.072-1.015-.108l-2.112-.164c-.94-.072-1.76-.225-2.465-.46-.704-.235-1.263-.57-1.678-1.002a3.05 3.05 0 0 1-.623-.92c-.163-.362-.244-.804-.244-1.327 0-.813.163-1.476.488-1.99.325-.515.667-.925 1.028-1.232.398-.325.948-.619 1.652-.88.704-.262 1.625-.393 2.763-.393.667 0 1.322.05 1.963.149.64.1 1.304.275 1.99.528.523.18 1.016.384 1.476.61.46.225.925.518 1.394.879l-1.516 2.355M138 24.02a7.531 7.531 0 0 1-1.162 1.679c-.45.487-.92.893-1.406 1.218a6.008 6.008 0 0 1-1.838.84 8.457 8.457 0 0 1-2.107.243c-.992 0-1.95-.149-2.879-.447-.928-.298-1.78-.844-2.554-1.638-.577-.578-1.063-1.322-1.459-2.234-.397-.91-.595-1.944-.595-3.1 0-.992.171-1.976.514-2.95a6.84 6.84 0 0 1 1.567-2.546c.234-.234.518-.474.852-.717.333-.244.72-.47 1.162-.677a7.307 7.307 0 0 1 1.513-.501 8.813 8.813 0 0 1 1.906-.19c.774 0 1.486.086 2.134.257a6.529 6.529 0 0 1 1.73.718c.45.253.892.582 1.325.988.432.406.82.862 1.162 1.368l-2.406 1.705a6.287 6.287 0 0 0-.716-.947 4.195 4.195 0 0 0-.905-.758 4.545 4.545 0 0 0-1.014-.407 4.971 4.971 0 0 0-1.337-.162c-.686 0-1.29.099-1.812.297-.523.2-1 .515-1.432.948-.343.343-.653.803-.932 1.381-.28.578-.42 1.3-.42 2.166 0 .758.131 1.435.393 2.031.26.595.59 1.092.986 1.489.36.361.797.646 1.31.853.514.208 1.113.31 1.799.31.54 0 1.027-.07 1.458-.216a4.54 4.54 0 0 0 1.244-.65c.306-.234.608-.518.906-.852.297-.334.544-.735.742-1.205L138 24.02M146.486 15.762c-.638 0-1.235.117-1.79.352a4.444 4.444 0 0 0-1.447.975c-.41.415-.73.911-.957 1.489a5.187 5.187 0 0 0-.342 1.922c0 .704.114 1.345.342 1.922.228.578.547 1.079.957 1.503.41.424.892.749 1.447.974a4.699 4.699 0 0 0 1.79.339c.656 0 1.26-.117 1.817-.352a4.428 4.428 0 0 0 1.448-.975c.41-.415.728-.911.957-1.489.227-.577.34-1.218.34-1.922s-.113-1.344-.34-1.922a4.382 4.382 0 0 0-.957-1.49 4.443 4.443 0 0 0-1.448-.974 4.627 4.627 0 0 0-1.817-.352zm0 12.238c-1.075 0-2.068-.19-2.978-.569a7.47 7.47 0 0 1-2.377-1.557 6.896 6.896 0 0 1-1.571-2.369c-.374-.92-.56-1.922-.56-3.005s.186-2.085.56-3.005c.373-.92.897-1.71 1.57-2.37a7.486 7.486 0 0 1 2.378-1.557c.91-.378 1.903-.568 2.978-.568 1.075 0 2.072.19 2.992.568.92.38 1.712.899 2.376 1.557a7.182 7.182 0 0 1 1.572 2.37c.383.92.574 1.922.574 3.005s-.191 2.085-.574 3.005a7.171 7.171 0 0 1-1.571 2.37 7.269 7.269 0 0 1-2.377 1.556c-.92.38-1.917.569-2.992.569zM168.222 27L165 17.887 161.805 27h-2L155 13h2.945l2.916 8.796L163.944 13h2.167l3.083 8.77L172.11 13H175l-4.779 14h-1.999M74 33h11.462v2.642h-8.637v2.588h5.247v2.642h-5.247v3.487H86V47H74V33M94.407 42.087L90.387 47H87l5.715-7.026L87.053 33h3.492l3.915 4.78L98.376 33h3.465l-5.661 6.894L102 47h-3.597l-3.996-4.913M117 44.02a7.473 7.473 0 0 1-1.162 1.678c-.45.488-.918.894-1.405 1.219a6.008 6.008 0 0 1-1.838.84 8.466 8.466 0 0 1-2.108.243c-.992 0-1.951-.15-2.879-.447-.928-.298-1.78-.843-2.553-1.638-.578-.578-1.064-1.322-1.46-2.234-.397-.91-.595-1.944-.595-3.1 0-.992.171-1.976.513-2.95a6.857 6.857 0 0 1 1.568-2.546 7.04 7.04 0 0 1 3.527-1.895 8.801 8.801 0 0 1 1.906-.19c.774 0 1.486.086 2.135.258.649.17 1.225.41 1.73.717.45.253.891.582 1.324.988.432.406.82.862 1.162 1.368l-2.405 1.705a6.317 6.317 0 0 0-.717-.947 4.146 4.146 0 0 0-.905-.758 4.562 4.562 0 0 0-1.014-.407 4.99 4.99 0 0 0-1.337-.162c-.685 0-1.289.1-1.811.297-.523.2-1 .515-1.432.948-.343.343-.654.803-.933 1.38-.28.579-.418 1.3-.418 2.167 0 .758.13 1.435.39 2.03.262.596.591 1.093.988 1.49.36.361.797.645 1.31.853.514.207 1.113.311 1.797.311.541 0 1.028-.072 1.46-.217.433-.144.847-.36 1.244-.65.306-.234.607-.518.905-.852.297-.334.545-.735.743-1.205L117 44.02M129.213 40.713h-6.425V47H120V33h2.788v5.071h6.425V33H132v14h-2.787v-6.287M140.096 40.872h3.753l-1.89-3.75-1.863 3.75zm5.085 2.641h-6.416L137.087 47H134l6.922-14h2.103L150 47h-3.089l-1.73-3.487zM154.968 38.31V47H152V33h1.809l8.224 8.69V33H165v14h-1.78l-8.252-8.69M180 44.29a9.282 9.282 0 0 1-1.102 1.408c-.425.452-.865.83-1.318 1.137a6.254 6.254 0 0 1-1.835.894c-.625.18-1.345.271-2.16.271-.435 0-.889-.027-1.36-.081a7.148 7.148 0 0 1-2.814-.948 6.162 6.162 0 0 1-1.318-1.056 7.098 7.098 0 0 1-1.577-2.572 8.578 8.578 0 0 1-.516-2.87c0-1.12.19-2.14.57-3.06.382-.92.888-1.696 1.523-2.328.58-.577 1.296-1.07 2.147-1.475.852-.407 1.894-.61 3.127-.61.525 0 1.01.036 1.454.109.444.072.833.162 1.17.27.334.108.624.221.869.338.245.118.43.213.557.285.47.253.91.568 1.318.947.408.38.766.777 1.075 1.192l-2.42 1.705c-.2-.342-.435-.64-.707-.893a4.894 4.894 0 0 0-.816-.622 3.927 3.927 0 0 0-1.223-.461 6.159 6.159 0 0 0-1.087-.108c-.635 0-1.219.086-1.754.257-.534.172-1.037.492-1.508.961a4.832 4.832 0 0 0-1.006 1.476c-.254.568-.381 1.232-.381 1.99 0 .776.123 1.471.368 2.084.244.614.547 1.102.91 1.462.435.434.964.75 1.59.949a5.965 5.965 0 0 0 1.808.297c.707 0 1.368-.149 1.984-.446.617-.298 1.142-.763 1.577-1.395v-1.11h-3.343v-2.49H180v4.494M182.65 32.903h11.64v2.732h-8.771v2.676h5.328v2.731h-5.328v3.606h9.318v2.73h-12.188V32.903"/>
        <path fill="#B1293C" d="M0 59.973h59.754V.28H0z"/>
        <path fill="#FFFFFE" d="M20.03 36.897v-12.79l6.415 6.389-6.415 6.4zm13.53-6.401l6.413-6.4v12.803l-6.414-6.403zM15 19.796v20.97L20.03 44v-.01l9.969-9.943 9.974 9.95V44L45 40.766v-20.97L39.973 17v.002L30 26.952l-9.97-9.941V17L15 19.796z"/>
        <g transform="translate(23 23)">
            <mask id="b" fill="#fff">
                <use xlink:href="#a"/>
            </mask>
            <path d="M8.623 5.189L5.049 8.95.165 3.81 3.74.046 8.623 5.19" mask="url(#b)"/>
        </g>
        <g transform="translate(28 28)">
            <mask id="d" fill="#fff">
                <use xlink:href="#c"/>
            </mask>
            <path d="M.099 4.003L3.673.429l4.884 4.884-3.574 3.574L.099 4.003" mask="url(#d)"/>
        </g>
        <path fill="#FFFFFE" d="M32.461 24L36 27.56 27.55 36 24 32.45 32.461 24"/>
    </g>
</svg>
