<svg xmlns="http://www.w3.org/2000/svg" width="31" height="28" viewBox="0 0 31 28">
    <g fill="none" fill-rule="evenodd">
        <path fill="#323232" d="M-467 841H813V-69H-467z"/>
        <path fill="#FFB333" d="M0 18.73c0-3.233.81-6.587 2.428-10.061C4.046 5.195 6.085 2.305 8.544 0l6.723 3.746c-1.277 2.273-2.226 4.579-2.848 6.916-.623 2.337-.934 5.027-.934 8.069V28H0v-9.27zm15.733 0c0-3.233.81-6.587 2.428-10.061C19.78 5.195 21.818 2.305 24.277 0L31 3.746c-1.276 2.273-2.225 4.579-2.848 6.916-.622 2.337-.934 5.027-.934 8.069V28H15.733v-9.27z"/>
    </g>
</svg>
