<svg id="Слой_1" xmlns="http://www.w3.org/2000/svg" viewBox="0 0 44 44"><style>.st0{fill:#4718b4}.st1{fill:#fff}</style><path class="st0" d="M43.3 27.3c-2.9 11.8-14.9 19-26.7 16-11.8-2.9-19-14.9-16-26.7C3.5 4.8 15.5-2.4 27.3.6c11.8 3 19 14.9 16 26.7z"/><path class="st1" d="M16.5 22.5l1.6 6.4c0 .3 0 .9-.7 1.1l-1.8.5.2 3 3.3-.9c.6-.2 1.2-.3 1.8-.5l1 4 2.5-.7-1-4c.7-.2 1.4-.4 2-.5l1 4 2.5-.7-1-4c4.1-1.4 6.8-3.2 6.2-7.2-.5-3.2-2.3-4.1-4.9-4 1.3-1.1 1.8-2.6 1.1-4.7-1-2.8-3.8-3.1-7.1-2.4l-1-4-2.5.7 1 3.9c-.7.2-1.3.4-2 .6l-1-3.9-2.5.7 1 4c-.5.2-1.1.3-1.6.5l-3.4 1 .7 2.6 1.8-.5c1-.3 1.5.2 1.7.7l1.1 4.3zM29 23.9c.8 3-4.6 4.1-6.3 4.6l-1.4-5.3c1.7-.5 6.9-2.4 7.7.7zm-3.1-7.2c.7 2.7-3.8 3.6-5.2 4l-1.2-4.8c1.3-.4 5.6-2.1 6.4.8z"/></svg>