<svg id="Слой_1" xmlns="http://www.w3.org/2000/svg" viewBox="0 0 44 44"><style>.st0{fill:#4718b4}.st1{fill:#fff}</style><path class="st0" d="M43.3 27.3c-2.9 11.8-14.9 19-26.7 16-11.8-2.9-19-14.9-16-26.7C3.5 4.8 15.5-2.4 27.3.6c11.8 3 19 14.9 16 26.7z"/><path class="st1" d="M16.9 19.8l-1.6 6.4c-.1.3-.4.7-1.2.6l-1.8-.4L11 29l3.3.8c.6.1 1.2.3 1.8.4l-1 4 2.5.6 1-4c.7.2 1.4.3 2 .5l-1 4 2.5.6 1-4c4.3.8 7.5.5 8.9-3.3 1.1-3-.1-4.8-2.3-5.9 1.6-.4 2.9-1.4 3.2-3.6.5-2.9-1.9-4.5-5.1-5.6l1-4-2.5-.6-1 3.9c-.7-.2-1.3-.3-2-.5l1-3.9-2.4-.4-1 4c-.5-.1-1.1-.2-1.6-.4l-3.5-.8-.7 2.6s1.9.4 1.8.4c1 .2 1.2.9 1.2 1.4l-1.2 4.6zM27.2 27c-.8 3-6.1 1.4-7.8 1l1.4-5.3c1.7.4 7.2 1.2 6.4 4.3zm.8-7.8c-.7 2.7-5.1 1.3-6.5 1l1.3-4.8c1.3.3 5.9 1 5.2 3.8z"/></svg>