<svg xmlns="http://www.w3.org/2000/svg" width="100" height="100" viewBox="0 0 100 100">
    <path fill="#E04A36" fill-rule="nonzero" d="M73.106 11.81V0H25.398l7.459 7.304L10.635 29.37a30.014 30.014 0 0 0 0 42.58L30.06 91.374v8.236h47.397l-6.993-6.993-.156-.155 20.358-20.357c5.75-5.75 8.858-13.21 8.858-21.29 0-8.081-3.108-15.54-8.858-21.29L73.106 11.81zM30.06 52.525v34.5l-17.25-17.25c-10.567-10.568-10.567-27.662 0-38.229L37.208 7.304l-4.196-4.196h37.141v36.519l-5.128-5.128-26.418 26.418-8.547-8.392zM88.646 69.93L66.113 92.308l-.156.155 2.176 2.331 1.554 1.71H33.323l.156-36.209 5.128 5.128 26.418-26.418 8.236 8.237V16.317l15.385 15.385c5.128 5.128 7.925 11.81 7.925 19.114a26.931 26.931 0 0 1-7.925 19.114z"/>
</svg>
