<svg xmlns="http://www.w3.org/2000/svg" width="281" height="201" viewBox="0 0 281 201">
    <g fill="none" fill-rule="evenodd">
        <path fill="#FFF" d="M0 200h281v1H0zM0 175h280v1H0zM0 145h280v1H0zM0 115h280v1H0zM0 85h280v1H0zM0 55h280v1H0zM0 25h280v1H0z" opacity=".07"/>
        <g fill-rule="nonzero">
            <path fill="#E04A36" d="M121 26l1-1v16h-6v46h6v19l-1-1-1 1V87h6V41h-6V25l1 1zm64-8l1-1v14h-6v26h6v10l-1-1-1 1V57h6V31h-6V17l1 1zm-15 30v12h-6v11h6v7l-1-1-1 1v-7h6V60h-6V48l1 1 1-1zm-65 13l1-1v30h-6v11h6v19l-1-1-1 1v-19h6V90h-6V60l1 1zM73 71l1-1v18h-6v36h6v6l-1-1-1 1v-6h6V88h-6V70l1 1zM10 28v11H4v9h6v10l-1-1-1 1V48h6v-9H8V28l1 1 1-1zm144 45h6v36h-6v16h-2v-16h-6V73h6v-8h2v8z"/>
            <path fill="#FFB333" d="M52 124h6v10l-1-1-1 1v-10h6v-6h-6v-14l1 1 1-1v14h-6v6zm32-23h6v11l-1-1-1 1v-11h6V88h-6V72l1 1 1-1v16h-6v13zm-48 13h6v18l-1-1-1 1v-18h6V93h-6V82l1 1 1-1v11h-6v21zm176 54h6v23l-1-1-1 1v-23h6v-38h-6v-27l1 1 1-1v27h-6v38zm-16-42h6v15l-1-1-1 1v-15h6V31h-6V21l1 1 1-1v10h-6v95zm-64-19h6v20l-1-1-1 1v-20h6V41h-6V18l1 1 1-1v23h-6v66zM20 39v50h6v20l-1-1-1 1V89h6V39h-6V29l1 1 1-1v10h-6z"/>
        </g>
        <path fill="#FFF" d="M280 0h1v200h-1zM192 0h1v200h-1zM128 0h1v200h-1zM64 0h1v200h-1z" opacity=".07"/>
    </g>
</svg>
