<svg xmlns="http://www.w3.org/2000/svg" width="100" height="100" viewBox="0 0 100 100">
    <g fill="#E04A36" fill-rule="nonzero">
        <path d="M46.875 71.844c0-2.5-.938-5-2.813-6.719L24.22 45.281l-1.094 1.094c-1.719 1.719-2.656 3.906-2.656 6.406 0 2.5.937 4.688 2.656 6.407l3.281 3.124h-3.281c-2.188 0-4.375-.78-5.938-2.5l-8.125-7.03V41.218c0-5-3.28-8.594-7.656-8.594H0v26.406l21.875 20.782v4.218H18.75v12.5h3.125v-9.375H43.75v9.375h3.125V71.844zM43.75 84.188H25v-5.626L3.125 57.782v-21.72c2.031.782 2.969 2.97 2.969 5.157v13.125l9.062 7.812c2.188 2.188 5 3.282 8.125 3.282l10.938-.157-8.907-8.437c-1.093-1.094-1.718-2.657-1.718-4.219 0-1.094.312-2.031.781-2.969l17.5 17.5c1.25 1.25 1.875 2.813 1.875 4.531v12.5zM100 59.031v-26.25h-1.563c-4.53 0-7.656 3.594-7.656 8.594v11.563l-8.125 7.03c-1.562 1.563-3.75 2.344-5.937 2.344h-3.281l3.437-3.124c1.719-1.72 2.656-3.907 2.656-6.407a9.117 9.117 0 0 0-2.656-6.406l-1.094-1.094-19.844 19.844c-1.874 1.719-2.812 4.219-2.812 6.719v24.844h3.125v-9.376h21.875v9.376h3.125v-12.5h-3.125v-4.22L100 59.032zM75 78.563v5.624H56.25V71.844c0-1.719.625-3.281 1.875-4.531l17.5-17.5c.469.937.781 1.874.781 2.968 0 1.563-.625 2.969-1.719 4.063l-8.906 8.437 10.938.156c2.969 0 5.937-1.093 7.969-3.28l9.218-7.97V41.063c0-2.188.938-4.376 2.969-5.157v21.719L75 78.563zM75 27C75 13.25 63.75 2 50 2S25 13.25 25 27s11.25 25 25 25 25-11.25 25-25zM50 48.875c-12.031 0-21.875-9.844-21.875-21.875S37.969 5.125 50 5.125 71.875 14.969 71.875 27 62.031 48.875 50 48.875z"/>
        <path d="M53.906 24.813h-2.343v-6.25h2.968c.625 0 1.25.468 1.25 1.25h3.125c0-2.344-1.875-4.375-4.375-4.375h-2.968v-3.126h-3.126v3.126h-3.124c-2.97 0-5.47 2.5-5.47 5.468v1.563c0 2.968 2.5 5.468 5.47 5.468h3.124v6.25h-3.28c-1.094 0-1.876-.78-1.876-1.874h-3.125c0 2.812 2.188 5 5 5h3.282v3.124h3.124v-3.124h2.344c2.969 0 5.469-2.5 5.469-5.47v-1.562c0-2.968-2.5-5.468-5.469-5.468zm-5.468 0h-3.126c-1.25 0-2.343-1.094-2.343-2.344v-1.563c0-1.25 1.093-2.343 2.343-2.343h3.126v6.25zm7.812 7.03c0 1.25-1.094 2.345-2.344 2.345h-2.343v-6.25h2.343c1.25 0 2.344 1.093 2.344 2.343v1.563z"/>
    </g>
</svg>
