<svg xmlns="http://www.w3.org/2000/svg" width="100" height="100" viewBox="0 0 100 100">
    <g fill="#E04A36" fill-rule="nonzero">
        <path d="M94 0v94H0v6h3.125v-3.125h6.25V100H12.5v-3.125h6.25V100h3.125v-3.125h6.25V100h3.125v-3.125h6.25V100h3.125v-3.125h6.25V100H50v-3.125h6.25V100h3.125v-3.125h6.25V100h3.125v-3.125H75V100h3.125v-3.125h6.25V100H87.5v-3.125h6.25V100h3.125v-3.125H100V93.75h-3.125V87.5H100v-3.125h-3.125v-6.25H100V75h-3.125v-6.25H100v-3.125h-3.125v-6.25H100V56.25h-3.125V50H100v-3.125h-3.125v-6.25H100V37.5h-3.125v-6.25H100v-3.125h-3.125v-6.25H100V18.75h-3.125V12.5H100V9.375h-3.125v-6.25H100V0h-4.688z"/>
        <path d="M4.375 51.563H0v3.124h4.375c.625 2.032 2.5 3.594 4.844 3.594 2.812 0 5.156-2.343 5.156-5.156 0-.781-.156-1.563-.625-2.344l9.063-9.062c.625.312 1.406.468 2.187.468 1.094 0 2.188-.312 2.969-.937l3.437 2.813c-.312.624-.312 1.25-.312 1.874 0 2.813 2.343 5.157 5.156 5.157 2.813 0 5.156-2.344 5.156-5.157a5.396 5.396 0 0 0-.781-2.812l9.531-11.719c.625.157 1.25.313 1.875.313 1.563 0 3.125-.782 3.907-2.032l6.562 2.344v.157c0 2.812 2.344 5.156 5.156 5.156 2.813 0 5.156-2.344 5.156-5.157 0-.624-.156-1.406-.468-1.874l9.531-9.688v2.5H85V15h-7.813v3.594h2.5l-9.843 9.531c-.781-.469-1.719-.781-2.656-.781-1.72 0-3.126.781-4.063 2.031l-6.563-2.344v-.156c0-2.813-2.343-5.156-5.156-5.156-2.812 0-5.156 2.343-5.156 5.156 0 1.094.313 2.031.781 2.813L37.5 41.563c-.625-.157-1.25-.313-1.875-.313-.938 0-1.875.313-2.656.781l-3.282-3.281c.157-.469.313-1.094.313-1.563 0-2.812-2.344-5.156-5.156-5.156-2.813 0-5.157 2.344-5.157 5.157 0 .937.313 1.718.625 2.343l-9.062 9.063c-.625-.313-1.406-.625-2.344-.625-2.031 0-3.906 1.562-4.531 3.593zm62.188-20.938c.156 0 .468-.156.624-.156h.313c.938.156 1.719.937 1.719 1.875 0 .468-.156 1.093-.625 1.406-.313.313-.625.469-.938.469-.156.156-.312.156-.469.156-.624 0-1.25-.313-1.562-.781a1.688 1.688 0 0 1-.469-1.094c0-.938.625-1.563 1.406-1.875zm-16.876-4.063c0-1.093.938-1.875 1.876-1.875.624 0 1.25.313 1.562.938.156.313.313.625.313 1.094 0 .937-.626 1.562-1.407 1.875-.156 0-.312.156-.468.156-1.094 0-1.876-.938-1.876-2.188 0 .157 0 .157 0 0zm-13.75 17.5c1.094 0 2.032.938 2.032 2.032 0 .937-.625 1.562-1.407 1.875-.156 0-.312.156-.468.156h-.157c-.78-.156-1.406-.625-1.562-1.406 0-.157-.156-.313-.156-.469-.157-1.25.625-2.188 1.718-2.188zm-12.968-7.03c0-1.094.781-1.876 1.875-1.876H25c.469 0 .781.157 1.094.469l.312.313c.313.312.469.78.469 1.25 0 1.093-.938 2.03-2.031 2.03-1.094-.156-1.875-.937-1.875-2.187 0 .157 0 0 0 0zM11.094 53.124v.313c-.156.937-.938 1.718-1.875 1.718-.469 0-.781-.156-1.094-.468-.469-.313-.781-.938-.781-1.563s.312-1.25.781-1.563c.156-.156.469-.312.781-.312h.313c1.094-.156 1.875.781 1.875 1.875zM89.063 73.438V65H81.25v3.75h2.813l-12.97 12.813c-.624-.313-1.406-.626-2.187-.626-.937 0-1.875.313-2.812.782l-15-12.813c.312-.625.468-1.25.468-2.031 0-2.813-2.343-5.156-5.156-5.156-2.812 0-5.156 2.343-5.156 5.156 0 .781.156 1.406.469 2.031L30.78 79.375c-.781-.469-1.562-.625-2.343-.625-.782 0-1.563.156-2.188.469l-5.781-6.094c.468-.781.781-1.719.781-2.656 0-2.813-2.344-5.156-5.156-5.156-2.188 0-4.219 1.406-4.844 3.437H0v3.125h11.406c.625 2.031 2.5 3.594 4.844 3.594.625 0 1.25-.156 1.875-.313l5.938 6.25c-.47.781-.625 1.563-.625 2.5 0 2.813 2.343 5.156 5.156 5.156 2.812 0 5.156-2.343 5.156-5.156 0-.781-.156-1.562-.469-2.187L44.22 71.25c.781.469 1.562.625 2.5.625.937 0 1.875-.313 2.5-.781l15.156 12.812c-.156.625-.313 1.25-.313 1.875 0 2.813 2.344 5.156 5.157 5.156 2.812 0 5.156-2.343 5.156-5.156 0-.781-.156-1.719-.625-2.344l12.656-12.5v2.5h2.656zM18.124 70.78c-.156.938-.938 1.719-1.875 1.719-.313 0-.625-.156-.938-.313-.156 0-.156-.156-.312-.156-.469-.312-.781-.937-.781-1.562s.312-1.25.781-1.563c.313-.156.625-.312 1.094-.312 1.093 0 2.031.937 2.031 2.031v.156zm12.188 13.594c-.157.781-.782 1.406-1.72 1.563h-.624c-.782-.157-1.407-.782-1.563-1.72v-.156c0-1.093.938-2.03 2.032-2.03 1.093 0 2.03.937 2.03 2.03 0 0-.155.157-.155.313zm16.093-15.469c-1.093 0-2.031-.937-2.031-2.031 0-.156 0-.313.156-.625.157-.625.782-1.094 1.407-1.25.156 0 .312-.156.468-.156.938 0 1.719.781 1.875 1.719v.312c.157 1.25-.781 2.031-1.875 2.031zM70.781 86.25c-.156.938-.781 1.719-1.719 1.719H68.594c-.781-.156-1.406-.625-1.563-1.406 0-.157-.156-.313-.156-.626 0-1.093.938-2.03 2.031-2.03 1.094 0 2.031.937 2.031 2.03l-.156.313z"/>
    </g>
</svg>
