<svg xmlns="http://www.w3.org/2000/svg" xmlns:xlink="http://www.w3.org/1999/xlink" width="139" height="147" viewBox="0 0 139 147">
    <defs>
        <circle id="a" cx="69.398" cy="69.381" r="69.381"/>
        <circle id="b" cx="70.097" cy="70.292" r="69.381"/>
    </defs>
    <g fill="none" fill-rule="evenodd">
        <path fill="#323232" d="M-476-289H804V962H-476z"/>
        <use fill="#FFF" fill-rule="nonzero" opacity=".2" transform="translate(0 7.912)" xlink:href="#a"/>
        <g transform="translate(0 -1)">
            <path fill="#D6B5B0" fill-rule="nonzero" d="M87.756 93.863a57.984 57.984 0 0 0 16.08-2.355 16.287 16.287 0 0 0 11.026-20.776c-4.381-13.471-.867-24.349-3.932-37.582-4.08-17.617-19.792-30.912-40.928-30.912-21.136 0-37.917 12.717-41.385 30.912-2.508 13.16.872 23.877-3.286 37.08a16.403 16.403 0 0 0 10.762 20.752 55.938 55.938 0 0 0 15.185 2.903l36.478-.022z"/>
            <path fill="#CC7E54" fill-rule="nonzero" d="M103.835 85.345A57.985 57.985 0 0 1 87.756 87.7l-36.478.022a55.942 55.942 0 0 1-15.185-2.903 16.187 16.187 0 0 1-11.25-12.572c-1.59 8.203 3.263 16.283 11.25 18.735a55.942 55.942 0 0 0 15.185 2.903l36.478-.022a57.985 57.985 0 0 0 16.08-2.355c8.128-2.297 13.142-10.44 11.534-18.733a16.123 16.123 0 0 1-11.535 12.57z" opacity=".3"/>
            <path fill="#FFF" fill-rule="nonzero" d="M112.326 51.543h.074c-.046-5.954.037-11.889-1.47-18.393-4.08-17.617-19.792-30.912-40.928-30.912-21.136 0-37.917 12.717-41.385 30.912a87.913 87.913 0 0 0-1.029 17.603 64.933 64.933 0 0 1 1.03-11.44C32.084 21.118 48.865 8.4 70.001 8.4s36.848 13.295 40.928 30.912a60.224 60.224 0 0 1 1.396 12.23z" opacity=".3"/>
            <path fill="#242424" fill-rule="nonzero" d="M66.694 95.378c-4.34 0-8.738-.067-13.189-.255A78.64 78.64 0 0 1 35.74 92.17a17.204 17.204 0 0 1-10.347-8.499 17.827 17.827 0 0 1-1.244-13.813c2.276-7.226 2.237-13.613 2.195-20.376A82.79 82.79 0 0 1 27.4 32.918C30.982 14.124 48.501.999 70.002.999c20.788 0 37.721 12.808 42.136 31.871a76.05 76.05 0 0 1 1.492 17.32c.041 6.682.08 12.993 2.41 20.16a17.784 17.784 0 0 1-1.263 13.89 17.076 17.076 0 0 1-10.618 8.463 87.615 87.615 0 0 1-18.656 2.4l-1.721.036c-5.59.118-11.289.24-17.088.24zm3.308-91.9c-20.295 0-36.812 12.296-40.167 29.903a80.755 80.755 0 0 0-1.014 16.086c.041 6.656.083 13.539-2.309 21.135a15.361 15.361 0 0 0 1.069 11.908 14.746 14.746 0 0 0 8.865 7.286 77.183 77.183 0 0 0 17.163 2.852c10.318.435 20.385.22 30.12.013l1.721-.036a86.284 86.284 0 0 0 18.06-2.313 14.619 14.619 0 0 0 9.087-7.25 15.291 15.291 0 0 0 1.086-11.947c-2.448-7.532-2.49-14.333-2.53-20.91a73.983 73.983 0 0 0-1.43-16.776c-4.149-17.915-20.11-29.952-39.72-29.952z"/>
            <g transform="translate(0 8)">
                <mask id="c" fill="#fff">
                    <use xlink:href="#b"/>
                </mask>
                <g fill-rule="nonzero" mask="url(#c)">
                    <path fill="#F9E2DC" d="M108.72 104.373A42.437 42.437 0 0 0 89.584 88.93a6.92 6.92 0 0 1-3.444-9.204H53.509a6.9 6.9 0 0 1 .387 2.896 7.105 7.105 0 0 1-4.104 6.318c-19.204 9.292-25.553 25.476-25.553 38.657v16.553h91.681v-16.553a41.418 41.418 0 0 0-7.2-23.224z"/>
                    <path fill="#CC7E54" d="M70.133 91.867c7.38 0 11.405-3.684 15.888-6.808a6.485 6.485 0 0 1 .017-5.333H53.602a7.418 7.418 0 0 1-.124 5.348c4.48 3.115 9.168 6.793 16.655 6.793z" opacity=".3"/>
                    <path fill="#242424" d="M24.239 144.152a1.238 1.238 0 0 1-1.239-1.24v-15.314A43.335 43.335 0 0 1 43.896 90.65a41.695 41.695 0 0 1 5.637-2.865 7.035 7.035 0 0 0 2.675-8.386 1.239 1.239 0 0 1 2.316-.88 9.519 9.519 0 0 1-3.973 11.525 39.565 39.565 0 0 0-5.375 2.728 40.845 40.845 0 0 0-19.698 34.826v15.315a1.238 1.238 0 0 1-1.24 1.239zM115.92 144.152a1.238 1.238 0 0 1-1.239-1.24v-15.314a40.044 40.044 0 0 0-6.934-22.531 41.12 41.12 0 0 0-12.983-12.26 40.6 40.6 0 0 0-5.447-2.73 9.081 9.081 0 0 1-4.085-11.512 1.238 1.238 0 0 1 2.304.91 6.568 6.568 0 0 0 2.789 8.339 42.55 42.55 0 0 1 5.71 2.866 43.616 43.616 0 0 1 13.766 13 42.509 42.509 0 0 1 7.358 23.918v15.315a1.238 1.238 0 0 1-1.239 1.239z"/>
                    <path fill="#6D6DAA" d="M41.584 144.15a1.238 1.238 0 0 1-1.239-1.238v-14.92c0-5.844.937-9.896 2.947-12.75a1.239 1.239 0 0 1 2.026 1.427c-1.703 2.417-2.495 6.015-2.495 11.323v14.92a1.238 1.238 0 0 1-1.239 1.238zM98.575 144.15a1.238 1.238 0 0 1-1.239-1.238v-14.92c0-5.308-.792-8.906-2.495-11.323a1.239 1.239 0 0 1 2.026-1.428c2.01 2.855 2.947 6.907 2.947 12.751v14.92a1.238 1.238 0 0 1-1.239 1.238z"/>
                    <path fill="#E04A36" d="M99.254 144.15H24.239v-16.553a41.242 41.242 0 0 1 20.319-35.885c3.165 6.055 13.401 11.553 25.789 11.553 10.466 0 21.144-4.646 24.965-11.523a41.937 41.937 0 0 1 13.397 12.63 41.047 41.047 0 0 1 7.211 23.225v16.553H99.254z"/>
                    <path fill="#FFF" d="M108.62 104.373a40.26 40.26 0 0 0-12.645-12.63c-3.676 6.876-15.517 11.522-25.586 11.522-11.917 0-23.115-5.498-26.16-11.553a42.008 42.008 0 0 0-20.006 35.885v4.956c0-14.835 6.873-27.253 19.16-34.746 4.369 5.575 15.089 10.413 27.006 10.413 10.07 0 21.98-5.045 26.122-10.607a33.897 33.897 0 0 1 12.11 11.715 44.155 44.155 0 0 1 6.938 23.225l.361-4.956a42.507 42.507 0 0 0-7.3-23.224z" opacity=".3"/>
                    <path fill="#242424" d="M115.92 144.152a1.238 1.238 0 0 1-1.239-1.24v-15.314a40.044 40.044 0 0 0-6.934-22.531 41.12 41.12 0 0 0-12.983-12.26 1.24 1.24 0 0 1 1.268-2.13 43.625 43.625 0 0 1 13.769 13.004 42.509 42.509 0 0 1 7.358 23.917v15.315a1.238 1.238 0 0 1-1.239 1.239zM41.584 144.15a1.238 1.238 0 0 1-1.239-1.238v-14.92c0-5.844.937-9.896 2.947-12.75a1.239 1.239 0 0 1 2.026 1.427c-1.703 2.417-2.495 6.015-2.495 11.323v14.92a1.238 1.238 0 0 1-1.239 1.238zM98.575 144.15a1.238 1.238 0 0 1-1.239-1.238v-14.92c0-5.308-.792-8.906-2.495-11.323a1.239 1.239 0 0 1 2.026-1.428c2.01 2.855 2.947 6.907 2.947 12.751v14.92a1.238 1.238 0 0 1-1.239 1.238z"/>
                    <path fill="#242424" d="M70.028 104.503c-11.115 0-21.217-4.574-26.367-11.938a1.239 1.239 0 1 1 2.03-1.42c4.694 6.711 14.02 10.88 24.337 10.88 10.368 0 19.714-4.2 24.39-10.959a1.238 1.238 0 1 1 2.037 1.408c-5.13 7.42-15.258 12.03-26.427 12.03z"/>
                    <path fill="#242424" d="M24.239 144.152a1.238 1.238 0 0 1-1.239-1.24v-15.314A43.335 43.335 0 0 1 43.896 90.65a1.24 1.24 0 0 1 1.278 2.124 40.84 40.84 0 0 0-19.696 34.824v15.315a1.238 1.238 0 0 1-1.24 1.239z"/>
                </g>
            </g>
            <path fill="#F9E2DC" fill-rule="nonzero" d="M39.106 40.646c0-34.69 61.947-34.69 61.947 0v21.117A31.141 31.141 0 0 1 85.556 88.56l-7.24 4.258a16.337 16.337 0 0 1-16.531-.006l-7.214-4.248a31.126 31.126 0 0 1-15.463-26.784l-.002-21.133z"/>
            <path fill="#CC7E54" fill-rule="nonzero" d="M101.04 55.684a31.168 31.168 0 0 1-15.468 26.823l-7.236 4.263a16.29 16.29 0 0 1-16.51-.006l-7.21-4.254a31.167 31.167 0 0 1-15.449-26.811v6.08a31.167 31.167 0 0 0 15.448 26.81l7.21 4.255a16.29 16.29 0 0 0 16.51.005l7.237-4.262a31.168 31.168 0 0 0 15.467-26.823v-6.08z" opacity=".3"/>
            <path fill="#242424" fill-rule="nonzero" d="M70.055 96.303c-3.13 0-6.203-.837-8.9-2.425l-7.213-4.248A32.527 32.527 0 0 1 37.87 61.78l-.003-21.133A24.677 24.677 0 0 1 48.044 20.14a36.938 36.938 0 0 1 22.036-6.75 36.938 36.938 0 0 1 22.036 6.75 24.677 24.677 0 0 1 10.176 20.506v21.117a32.536 32.536 0 0 1-16.107 27.865l-7.242 4.257a17.528 17.528 0 0 1-8.888 2.418zm-29.71-55.657l.003 21.133A30.041 30.041 0 0 0 55.2 87.496l7.214 4.248a15.064 15.064 0 0 0 15.274.005l7.24-4.258a30.047 30.047 0 0 0 14.886-25.728V40.646a22.28 22.28 0 0 0-9.182-18.52 34.453 34.453 0 0 0-20.552-6.259c-14.322 0-29.735 7.755-29.735 24.779z"/>
            <path fill="#F9E2DC" fill-rule="nonzero" d="M39.106 62.828v-11.15c0-3.717-2.756-4.905-4.46-3.717-2.713 1.89.743 9.911.743 9.911-2.013 1.29.262 5.867 3.717 4.956z"/>
            <path fill="#242424" fill-rule="nonzero" d="M38.184 64.19a4.925 4.925 0 0 1-4.397-3.035 3.637 3.637 0 0 1 .146-3.571c-.961-2.454-2.965-8.571.006-10.64a3.73 3.73 0 0 1 3.873-.229 5.287 5.287 0 0 1 2.533 4.962v11.15c0 .563-.379 1.055-.923 1.199-.404.108-.82.163-1.238.165zm-2.133-15.433c-.249 0-.492.077-.695.22-1.109.772-.272 5.049 1.172 8.405.238.557.04 1.205-.47 1.533-.278.178-.209.774-.002 1.244a2.628 2.628 0 0 0 1.811 1.518v-10a2.988 2.988 0 0 0-1.202-2.764 1.32 1.32 0 0 0-.614-.156z"/>
            <path fill="#242424" fill-rule="nonzero" d="M35.39 59.11a1.239 1.239 0 0 1-.672-2.28l.464-.299a1.239 1.239 0 1 1 1.343 2.083l-.464.3c-.2.128-.433.197-.67.197z"/>
            <path fill="#F9E2DC" fill-rule="nonzero" d="M101.053 62.828v-11.15c0-3.717 2.757-4.905 4.46-3.717 2.714 1.89-.743 9.911-.743 9.911 2.013 1.29-.262 5.867-3.717 4.956z"/>
            <path fill="#242424" fill-rule="nonzero" d="M101.975 64.19a4.837 4.837 0 0 1-1.238-.164 1.238 1.238 0 0 1-.923-1.198v-11.15a5.287 5.287 0 0 1 2.534-4.963 3.733 3.733 0 0 1 3.874.23c2.969 2.068.965 8.185.005 10.639a3.637 3.637 0 0 1 .145 3.571 4.925 4.925 0 0 1-4.397 3.036zm2.133-15.433a1.32 1.32 0 0 0-.613.156 2.987 2.987 0 0 0-1.203 2.764v10a2.628 2.628 0 0 0 1.811-1.518c.207-.47.276-1.066-.002-1.244a1.242 1.242 0 0 1-.47-1.533c1.444-3.356 2.281-7.633 1.174-8.405a1.215 1.215 0 0 0-.697-.22z"/>
            <path fill="#242424" fill-rule="nonzero" d="M104.769 59.11c-.238.001-.471-.068-.67-.197l-.465-.3a1.239 1.239 0 1 1 1.343-2.082l.464.3a1.239 1.239 0 0 1-.672 2.28z"/>
            <path fill="#000" fill-rule="nonzero" d="M39.107 39.406s27.114 11.206 50.796-9.911c3.562 12.906 11.096 10.555 11.148 10.53l.002-4.56s-7.82 3.262-11.394-9.687c-23.296 19.823-50.492 8.673-50.492 8.673l-.06 4.955z" opacity=".1"/>
            <path fill="#D6B5B0" fill-rule="nonzero" d="M39.153 34.333s26.794 11.844 50.463-9.262c0 12.147 11.386 10.629 11.386 10.629l2.82-.192c-2.736-31.224-61.1-32.079-67.151-2.335l2.482 1.16z"/>
            <path fill="#242424" fill-rule="nonzero" d="M57.204 38.82a50.933 50.933 0 0 1-18.553-3.354l-2.482-1.098a1.24 1.24 0 0 1 1.004-2.266l2.481 1.098c.26.116 26.369 11.251 49.137-9.054a1.24 1.24 0 0 1 2.064.925c0 3.327.916 5.815 2.72 7.396a10.201 10.201 0 0 0 7.263 2.005l1.637-.141a1.24 1.24 0 0 1 .21 2.47l-1.579.134c-.163.023-5.413.68-9.162-2.603a10.605 10.605 0 0 1-3.395-6.723A48.7 48.7 0 0 1 57.204 38.82z"/>
            <path fill="#242424" fill-rule="nonzero" d="M100.936 40.645a1.239 1.239 0 0 1-1.24-1.239 26.057 26.057 0 0 0-.23-3.502 1.24 1.24 0 1 1 2.456-.333c.17 1.271.254 2.553.253 3.835a1.239 1.239 0 0 1-1.24 1.24zM39.106 40.645a1.239 1.239 0 0 1-1.239-1.239c-.003-1.68.144-3.357.44-5.01a1.24 1.24 0 0 1 2.439.44 25.64 25.64 0 0 0-.4 4.57 1.239 1.239 0 0 1-1.24 1.24zM70.141 80.225c-3.81 0-7.261-1.577-8.792-4.019a1.238 1.238 0 1 1 2.098-1.316c1.073 1.71 3.763 2.858 6.694 2.858a10.642 10.642 0 0 0 3.534-.587 1.24 1.24 0 0 1 .833 2.335c-1.403.491-2.88.738-4.367.73z"/>
            <circle cx="88.044" cy="69.76" r="5.575" fill="#FF9797" fill-rule="nonzero" opacity=".3"/>
            <circle cx="52.115" cy="69.76" r="5.575" fill="#FF9797" fill-rule="nonzero" opacity=".3"/>
            <path fill="#242424" fill-rule="nonzero" d="M70.098 66.07a6.584 6.584 0 0 1-3.147-1.129 1.239 1.239 0 1 1 1.372-2.062 4.411 4.411 0 0 0 1.775.713 4.408 4.408 0 0 0 1.776-.715 1.239 1.239 0 1 1 1.37 2.064 6.583 6.583 0 0 1-3.146 1.129zM90.217 49.193a12.772 12.772 0 0 1-3.257-.606c-2.254-.621-4.812-1.325-7.755-.165a1.24 1.24 0 1 1-.908-2.306 13.922 13.922 0 0 1 9.32.081c1.865.512 2.946.774 3.534.191a1.239 1.239 0 1 1 1.743 1.762 3.612 3.612 0 0 1-2.677 1.043zM62.556 50.229a12.495 12.495 0 0 1-4.662-1.468c-3.887-1.752-6.588-2.691-8.677.102a1.239 1.239 0 1 1-1.984-1.483c3.434-4.592 8.198-2.447 11.68-.878a10.995 10.995 0 0 0 3.693 1.249l.041-.001a1.239 1.239 0 0 1 .039 2.477 4.512 4.512 0 0 1-.13.002zM60.168 54.274h-11.15a1.239 1.239 0 0 1 0-2.478h11.15a1.239 1.239 0 0 1 0 2.478zM91.142 53.724h-11.15a1.239 1.239 0 1 1 0-2.477h11.15a1.239 1.239 0 0 1 0 2.477z"/>
            <circle cx="84.327" cy="55.513" r="1.858" fill="#242424" fill-rule="nonzero"/>
            <path fill="#242424" fill-rule="nonzero" d="M84.326 58.61a3.097 3.097 0 1 1 0-6.195 3.097 3.097 0 0 1 0 6.195zm0-3.717a.62.62 0 1 0 0 1.24.62.62 0 0 0 0-1.24z"/>
            <circle cx="55.832" cy="55.513" r="1.858" fill="#242424" fill-rule="nonzero"/>
            <path fill="#242424" fill-rule="nonzero" d="M55.832 58.61a3.097 3.097 0 1 1 0-6.195 3.097 3.097 0 0 1 0 6.195zm0-3.717a.62.62 0 1 0 0 1.24.62.62 0 0 0 0-1.24zM91.203 79.673h-4.026a1.239 1.239 0 0 1 0-2.478h4.026a8.683 8.683 0 0 0 8.673-8.673v-7.124a1.239 1.239 0 1 1 2.478 0v7.124c-.007 6.155-4.995 11.144-11.15 11.15z"/>
            <rect width="7.743" height="6.195" x="79.434" y="75.336" fill="#CED8EE" fill-rule="nonzero" rx="2"/>
            <path fill="#242424" fill-rule="nonzero" d="M84.699 82.77H81.91a3.72 3.72 0 0 1-3.717-3.717v-1.239a3.72 3.72 0 0 1 3.717-3.717H84.7a3.72 3.72 0 0 1 3.717 3.717v1.24a3.72 3.72 0 0 1-3.717 3.716zm-2.788-6.195a1.24 1.24 0 0 0-1.239 1.24v1.238a1.24 1.24 0 0 0 1.24 1.239h2.787a1.24 1.24 0 0 0 1.239-1.239v-1.239a1.24 1.24 0 0 0-1.24-1.239h-2.787z"/>
        </g>
    </g>
</svg>
