<svg xmlns="http://www.w3.org/2000/svg" xmlns:xlink="http://www.w3.org/1999/xlink" width="139" height="148" viewBox="0 0 139 148">
    <defs>
        <circle id="a" cx="69.393" cy="69.381" r="69.381"/>
        <circle id="b" cx="69.393" cy="69.381" r="69.381"/>
    </defs>
    <g fill="none" fill-rule="evenodd">
        <path fill="#323232" d="M-863-288H417V963H-863z"/>
        <use fill="#FFF" fill-rule="nonzero" opacity=".2" transform="translate(0 8.434)" xlink:href="#a"/>
        <g>
            <g transform="translate(0 8.434)">
                <mask id="c" fill="#fff">
                    <use xlink:href="#b"/>
                </mask>
                <g mask="url(#c)">
                    <path fill="#45ACBD" fill-rule="nonzero" d="M99.474 88.814s-8.672-3.717-8.412-3.469C88.2 91.54 77.124 94.637 69.38 96.842c-7.707-2.205-19.588-5.327-21.645-11.41l-8.09 3.506a34.257 34.257 0 0 0-21.062 31.618v18.683h101.593v-18.956a34.257 34.257 0 0 0-20.703-31.469z"/>
                    <path fill="#45ACBD" fill-rule="nonzero" d="M87.37 75.198c-2.007 4.572.966 8.289 3.692 10.147C88.2 91.54 78.672 96.842 69.38 96.842c-9.293 0-19.7-5.352-21.682-11.497 2.664-1.598 5.749-5.464 3.643-10.147H87.37z"/>
                    <path fill="#534D94" fill-rule="nonzero" d="M87.37 75.198H51.342a7.57 7.57 0 0 1-1.995 8.871l4.857 4.113a15.487 15.487 0 0 0 9.998 3.717h10.333a15.487 15.487 0 0 0 9.998-3.717l4.955-4.138a7.607 7.607 0 0 1-2.118-8.846z" opacity=".3"/>
                    <path fill="#FFF" fill-rule="nonzero" d="M99.474 88.814s-8.672-3.717-8.412-3.469C88.2 91.54 78.672 96.842 69.38 96.842c-9.293 0-19.588-5.315-21.645-11.41l-8.09 3.506a34.257 34.257 0 0 0-21.062 31.618v6.194c0-13.529 10.531-32.113 27.566-35.21 2.07 6.095 13.938 11.497 23.23 11.497 9.293 0 20.369-5.302 23.23-11.497 17.036 4.646 27.567 21.248 27.567 34.938v-6.195a34.257 34.257 0 0 0-20.703-31.469z" opacity=".3"/>
                    <path fill="#242424" fill-rule="nonzero" d="M69.38 98.069c-10.06 0-20.74-5.773-22.858-12.39a1.239 1.239 0 0 1 .558-1.4c2.056-1.238 5.017-4.422 3.147-8.573a1.239 1.239 0 0 1 2.254-1.016c2.057 4.572-.136 8.797-3.258 11.15 2.478 5.217 11.683 9.776 20.17 9.776 8.165 0 16.887-4.361 20.095-9.912-2.923-2.341-5.265-6.38-3.233-11.014a1.239 1.239 0 0 1 2.267.991c-2.081 4.77 2.33 8.016 3.246 8.673.51.336.7.993.446 1.549-3.184 6.814-13.207 12.166-22.833 12.166zM100.354 140.478a1.239 1.239 0 0 1-1.239-1.24v-22.92a1.239 1.239 0 0 1 2.478 0v22.92c0 .685-.555 1.24-1.239 1.24zM38.407 140.478a1.239 1.239 0 0 1-1.239-1.24v-22.92a1.239 1.239 0 0 1 2.478 0v22.92c0 .685-.555 1.24-1.239 1.24z"/>
                    <path fill="#242424" fill-rule="nonzero" d="M120.177 140.478a1.239 1.239 0 0 1-1.239-1.24v-18.955a32.993 32.993 0 0 0-19.96-30.329l-8.436-3.717a1.242 1.242 0 0 1 1.016-2.267l8.424 3.717a35.47 35.47 0 0 1 21.434 32.596v18.956c0 .684-.555 1.239-1.239 1.239zM18.584 140.478a1.239 1.239 0 0 1-1.239-1.24v-18.682a35.409 35.409 0 0 1 21.818-32.758l8.053-3.494a1.239 1.239 0 0 1 .991 2.268l-8.065 3.493a32.943 32.943 0 0 0-20.319 30.49v18.684c0 .684-.555 1.239-1.239 1.239z"/>
                    <path fill="#242424" fill-rule="nonzero" d="M69.083 107.708c-14.148 0-28.124-7.434-31.828-17.06a1.241 1.241 0 0 1 2.317-.892c3.308 8.536 16.552 15.474 29.524 15.474 14.867 0 26.24-8.251 29.846-16.391a1.24 1.24 0 0 1 2.267 1.003c-4.572 10.346-18.089 17.866-32.126 17.866z"/>
                    <g fill="#242424" fill-rule="nonzero" opacity=".5">
                        <path d="M69.096 97.251a1.239 1.239 0 0 1-1.24-1.239v-9.564a1.239 1.239 0 0 1 2.479 0v9.564a1.239 1.239 0 0 1-1.24 1.24zM62.604 96.223a1.239 1.239 0 0 1-1.14-1.722 16.664 16.664 0 0 0 1.239-8.004 1.24 1.24 0 0 1 2.478-.111c.278 3.09-.194 6.2-1.376 9.069-.198.484-.679.791-1.201.768zM56.88 94.29a1.239 1.239 0 0 1-.855-2.13c1.239-1.14 1.56-2.54 1.66-6.567a1.239 1.239 0 1 1 2.478 0c-.087 3.605-.322 6.306-2.478 8.3-.21.229-.497.37-.805.397zM51.242 90.635a1.239 1.239 0 0 1-.842-2.193l.285-.272a6.703 6.703 0 0 0 2.627-4.956 1.251 1.251 0 1 1 2.477.347 9.069 9.069 0 0 1-3.394 6.38l-.36.36a1.239 1.239 0 0 1-.793.334zM75.575 96.223c-.497 0-.946-.298-1.14-.756a19.265 19.265 0 0 1-1.338-9.069 1.239 1.239 0 0 1 2.478 0 16.664 16.664 0 0 0 1.24 8.004 1.239 1.239 0 0 1-1.24 1.821zM81.473 94.13a1.239 1.239 0 0 1-.855-.335c-2.07-1.945-2.478-4.275-2.602-8.153a1.239 1.239 0 1 1 2.478 0c.087 3.717.52 5.18 1.821 6.406a1.239 1.239 0 0 1-.855 2.143l.013-.062zM86.8 90.474a1.239 1.239 0 0 1-.842-.334l-.298-.273a8.673 8.673 0 0 1-3.221-6.194 1.251 1.251 0 1 1 2.478-.347 6.257 6.257 0 0 0 2.478 4.732l.297.285a1.239 1.239 0 0 1-.842 2.144l-.05-.013z"/>
                    </g>
                </g>
            </g>
            <path fill="#F9E2DC" fill-rule="nonzero" d="M38.407 58.469v-11.15c0-3.717-2.763-4.956-4.46-3.717-2.713 1.895.743 9.911.743 9.911-2.007 1.24.26 5.873 3.717 4.956z"/>
            <path fill="#242424" fill-rule="nonzero" d="M37.49 59.832a4.956 4.956 0 0 1-4.398-3.036 3.642 3.642 0 0 1 .149-3.568c-.967-2.478-2.961-8.573 0-10.642a3.717 3.717 0 0 1 3.927-.223 5.29 5.29 0 0 1 2.478 4.956v11.15a1.239 1.239 0 0 1-.93 1.239 4.832 4.832 0 0 1-1.226.124zm-2.143-15.437c-.248.003-.49.08-.694.223-1.103.768-.272 5.055 1.177 8.4.242.558.042 1.209-.47 1.536-.273.173-.211.768 0 1.239a2.627 2.627 0 0 0 1.808 1.524v-9.998a2.986 2.986 0 0 0-1.239-2.763 1.313 1.313 0 0 0-.582-.161z"/>
            <path fill="#242424" fill-rule="nonzero" d="M34.69 54.752a1.239 1.239 0 0 1-.669-2.28l.471-.297a1.239 1.239 0 1 1 1.338 2.082l-.458.297c-.203.131-.44.2-.682.198z"/>
            <path fill="#F9E2DC" fill-rule="nonzero" d="M100.354 58.469v-11.15c0-3.717 2.75-4.956 4.46-3.717 2.713 1.895-.743 9.911-.743 9.911 2.02 1.24-.26 5.873-3.717 4.956zM73.246 90.681h-7.731a16.825 16.825 0 0 1-11.906-4.955L43.363 75.48a16.825 16.825 0 0 1-4.956-11.907v-30.39c0-30.714 61.947-30.714 61.947 0v30.39a16.825 16.825 0 0 1-4.956 11.907L85.152 85.726a16.825 16.825 0 0 1-11.906 4.955z"/>
            <path fill="#CC7E54" fill-rule="nonzero" d="M85.152 79.531a16.825 16.825 0 0 1-11.906 4.956h-7.731a16.825 16.825 0 0 1-11.906-4.956L43.363 69.285a16.825 16.825 0 0 1-4.956-11.906v6.194a16.825 16.825 0 0 0 4.956 11.907l10.246 10.246a16.825 16.825 0 0 0 11.906 4.955h7.743a16.825 16.825 0 0 0 11.907-4.955L95.398 75.48a16.825 16.825 0 0 0 4.956-11.907V57.38a16.825 16.825 0 0 1-4.956 11.906L85.152 79.531z" opacity=".3"/>
            <path fill="#242424" fill-rule="nonzero" d="M101.27 59.832c-.417 0-.834-.054-1.238-.161a1.239 1.239 0 0 1-.917-1.202v-11.15a5.29 5.29 0 0 1 2.478-4.956 3.717 3.717 0 0 1 3.878.223c2.973 2.069.966 8.19 0 10.642a3.642 3.642 0 0 1 .148 3.568 4.956 4.956 0 0 1-4.348 3.036zm2.132-15.437c-.217.001-.43.057-.62.16a2.986 2.986 0 0 0-1.19 2.764v9.998a2.627 2.627 0 0 0 1.81-1.524c.21-.47.272-1.066 0-1.239a1.239 1.239 0 0 1-.471-1.536c1.45-3.358 2.28-7.632 1.177-8.4a1.239 1.239 0 0 0-.694-.223h-.012z"/>
            <path fill="#242424" fill-rule="nonzero" d="M104.07 54.752c-.237 0-.469-.07-.668-.198l-.459-.297a1.239 1.239 0 1 1 1.338-2.082l.471.298a1.239 1.239 0 0 1-.681 2.28zM73.246 91.92h-7.731a17.952 17.952 0 0 1-12.773-5.29L42.47 76.36a17.952 17.952 0 0 1-5.303-12.787v-30.39c0-7.558 3.544-13.89 10.234-18.312 5.872-3.84 13.628-5.96 21.979-5.96 8.35 0 16.106 2.12 21.978 5.96 6.69 4.435 10.234 10.766 10.234 18.311v30.391a17.952 17.952 0 0 1-5.29 12.774l-10.271 10.27a17.94 17.94 0 0 1-12.786 5.303zm-3.865-80.53c-14.323 0-29.735 6.826-29.735 21.792v30.391a15.487 15.487 0 0 0 4.572 11.002l10.295 10.296a15.487 15.487 0 0 0 11.002 4.571h7.743c4.126.001 8.082-1.644 10.99-4.571l10.295-10.296a15.487 15.487 0 0 0 4.572-11.002v-30.39a19.018 19.018 0 0 0-9.119-16.243c-5.426-3.58-12.736-5.55-20.615-5.55z"/>
            <path fill="#45ACBD" fill-rule="nonzero" d="M87.828 59.708h-7.433a7.434 7.434 0 0 1-7.434-5.885L70.93 43.602h26.328l-1.97 10.221a7.434 7.434 0 0 1-7.459 5.885zM58.404 59.708H50.97a7.434 7.434 0 0 1-7.434-5.885l-2.032-10.221h26.328l-1.97 10.221a7.434 7.434 0 0 1-7.458 5.885z"/>
            <path fill="#EBF5FF" fill-rule="nonzero" d="M70.93 43.602l1.97 10.221a7.223 7.223 0 0 0 4.2 5.166l16.266-15.387H70.93zM41.504 43.602l1.97 10.221a7.223 7.223 0 0 0 4.2 5.166l16.268-15.387H41.504z" opacity=".5"/>
            <path fill="#000" fill-rule="nonzero" d="M74.027 44.84h-9.292a1.239 1.239 0 0 1 0-2.477h9.292a1.239 1.239 0 1 1 0 2.478z"/>
            <path fill="#242424" fill-rule="nonzero" d="M100.354 44.84h-6.195a1.239 1.239 0 0 1 0-2.477h6.195a1.239 1.239 0 1 1 0 2.478zM44.602 44.84h-6.195a1.239 1.239 0 0 1 0-2.477h6.195a1.239 1.239 0 1 1 0 2.478z"/>
            <path fill="#242424" fill-rule="nonzero" d="M87.828 60.947h-7.433a8.673 8.673 0 0 1-8.673-6.889l-1.97-10.22a1.239 1.239 0 0 1 1.24-1.475h26.265a1.239 1.239 0 0 1 1.239 1.474l-1.983 10.221a8.673 8.673 0 0 1-8.685 6.889zm-15.4-16.106l1.685 8.747a6.195 6.195 0 0 0 6.195 4.881h7.434a6.195 6.195 0 0 0 6.194-4.881l1.822-8.747h-23.33zM58.404 60.947H50.97a8.673 8.673 0 0 1-8.673-6.889l-1.97-10.22a1.239 1.239 0 0 1 1.24-1.475h26.265a1.239 1.239 0 0 1 1.239 1.474L67.1 54.058a8.673 8.673 0 0 1-8.697 6.889zm-15.4-16.106l1.684 8.747a6.195 6.195 0 0 0 6.195 4.881h7.434a6.195 6.195 0 0 0 6.195-4.881l1.82-8.747H43.005z"/>
            <path fill="#CC7E54" fill-rule="nonzero" d="M100.354 38.646v-6.058a18.225 18.225 0 0 0-18.2-18.399H56.991a18.386 18.386 0 0 0-18.398 18.399v5.414c3.097-3.717 6.195-6.765 7.743-11.41 17.036 10.815 38.717 5.203 49.062 6.318 4.262.458 4.844 3.122 4.956 5.736z" opacity=".3"/>
            <path fill="#D6B5B0" fill-rule="nonzero" d="M89.7 4.897c11 5.092 18.397 10.841 14.284 30.974-.57 2.775-3.63 1.536-3.63 1.536s.805-9.106-4.956-9.726c-10.308-1.115-35.086 5.08-52.122-8.858 0 6.195-1.549 9.292-4.646 13.938 0 0-4.299 0-4.646-3.097-1.549-13.938 3.097-20.133 9.292-18.584C58.726-4.395 84.248 2.358 89.7 4.897z"/>
            <path fill="#FFF" fill-rule="nonzero" d="M43.239 17.002c15.487-15.524 41.009-8.735 46.46-6.195 8.177 3.804 14.372 8.016 15.289 18.225 1.239-14.706-5.65-19.674-15.289-24.135-5.5-2.54-30.973-9.292-46.46 6.195-5.885-1.474-10.37 4.076-9.466 16.602.707-8.326 4.634-11.906 9.466-10.692z" opacity=".3"/>
            <path fill="#242424" fill-rule="nonzero" d="M101.816 38.943a5.439 5.439 0 0 1-1.945-.384 1.239 1.239 0 0 1-.756-1.239c0-.074.62-7.904-3.89-8.387a70.892 70.892 0 0 0-9.912.111c-11.943.607-28.086 1.437-40.959-7.756-.36 4.783-1.87 7.843-4.77 12.18-.22.36-.618.574-1.04.557-1.871 0-5.502-.892-5.873-4.2-.979-8.797.409-15.326 3.915-18.374a7.26 7.26 0 0 1 6.195-1.685c16.106-15.45 41.814-8.548 47.377-5.971 10.79 4.955 19.364 10.865 14.966 32.348a3.345 3.345 0 0 1-1.685 2.478 3.593 3.593 0 0 1-1.623.322zm-.186-2.478c.244.034.493 0 .719-.099.074 0 .297-.16.42-.73 4.027-19.737-3.419-24.903-13.627-29.599A52.035 52.035 0 0 0 70.21 2.481h-.384c-7.434 0-17.89 1.685-25.708 9.503a1.239 1.239 0 0 1-1.177.322 4.956 4.956 0 0 0-4.684 1.004c-2.824 2.478-3.952 8.387-3.072 16.242.16 1.388 1.833 1.81 2.787 1.945C40.811 27.137 42 24.274 42 18.823a1.239 1.239 0 0 1 2.02-.954c12.389 10.16 29.053 9.304 41.194 8.673a72.28 72.28 0 0 1 10.271-.1c5.662.632 6.17 7.347 6.108 10.023h.037z"/>
            <path fill="#242424" fill-rule="nonzero" d="M47.885 13.867a1.239 1.239 0 0 1-.52-.111 14.867 14.867 0 0 0-4.25-1.437 1.245 1.245 0 0 1 .248-2.478c1.758.282 3.46.842 5.042 1.66a1.239 1.239 0 0 1-.52 2.366zM89.055 32.451c-11.15-.124-19.352-4.001-27.257-5.34"/>
            <path fill="#242424" fill-rule="nonzero" d="M89.055 33.69a71.772 71.772 0 0 1-19.08-3.332 85.648 85.648 0 0 0-8.35-2.032 1.257 1.257 0 1 1 .421-2.478 87.469 87.469 0 0 1 8.573 2.069 69.727 69.727 0 0 0 18.46 3.295 1.239 1.239 0 0 1 0 2.478h-.024zM38.407 41.124a1.239 1.239 0 0 1-1.239-1.239v-7.297a1.239 1.239 0 0 1 2.478 0v7.297c0 .684-.555 1.239-1.239 1.239zM91.681 44.84a1.239 1.239 0 0 1-.681-.21c-2.069-1.375-5.042-.88-8.19-.36a31.481 31.481 0 0 1-5.054.57 1.239 1.239 0 0 1 0-2.477 29.276 29.276 0 0 0 4.646-.533c3.494-.582 7.086-1.239 9.973.743a1.239 1.239 0 0 1-.694 2.268zM60.708 44.84a1.239 1.239 0 0 1-.88-.359c-1.858-1.858-9.8-2.056-12.513-.693a1.239 1.239 0 0 1-1.103-2.218c3.346-1.685 12.501-1.685 15.376 1.152a1.239 1.239 0 0 1-.88 2.119z"/>
            <circle cx="53.894" cy="51.035" r="1.858" fill="#242424" fill-rule="nonzero"/>
            <path fill="#242424" fill-rule="nonzero" d="M53.894 54.133a3.097 3.097 0 1 1 0-6.195 3.097 3.097 0 0 1 0 6.195zm0-3.717a.62.62 0 1 0 0 1.239.62.62 0 0 0 0-1.24z"/>
            <path fill="#242424" fill-rule="nonzero" d="M59.469 49.796h-11.15a1.239 1.239 0 0 1 0-2.477h11.15a1.239 1.239 0 1 1 0 2.477zM69.38 62.186a6.653 6.653 0 0 1-3.184-1.152 1.239 1.239 0 0 1 1.376-2.057c.541.374 1.16.623 1.809.731a4.473 4.473 0 0 0 1.808-.731 1.239 1.239 0 0 1 1.376 2.057 6.653 6.653 0 0 1-3.184 1.152z"/>
            <circle cx="85.041" cy="51.035" r="1.858" fill="#242424" fill-rule="nonzero"/>
            <path fill="#242424" fill-rule="nonzero" d="M85.04 54.133a3.097 3.097 0 1 1 0-6.195 3.097 3.097 0 0 1 0 6.195zm0-3.717a.62.62 0 1 0 0 1.239.62.62 0 0 0 0-1.24z"/>
            <path fill="#242424" fill-rule="nonzero" d="M90.442 49.796h-11.15a1.239 1.239 0 0 1 0-2.477h11.15a1.239 1.239 0 1 1 0 2.477z"/>
            <path fill="#D6B5B0" fill-rule="nonzero" d="M100.354 59.708v13.888a10.122 10.122 0 0 1-3.58 7.731L84.557 91.673a15.487 15.487 0 0 1-9.999 3.716H64.214a15.487 15.487 0 0 1-9.998-3.716L42 81.327a10.122 10.122 0 0 1-3.593-7.73V59.707L47.91 70.4a4.473 4.473 0 0 0 6.194.47L56.372 69a13.343 13.343 0 0 1 8.548-3.097h8.92c3.12.002 6.141 1.098 8.537 3.097l2.255 1.858a4.473 4.473 0 0 0 6.195-.47l9.527-10.68z"/>
            <path fill="#CC7E54" fill-rule="nonzero" d="M96.773 75.133L84.558 85.478a15.487 15.487 0 0 1-9.999 3.717H64.214a15.487 15.487 0 0 1-9.998-3.717L42 75.133a10.122 10.122 0 0 1-3.593-7.731v6.194a10.122 10.122 0 0 0 3.58 7.731l12.217 10.346a15.487 15.487 0 0 0 9.998 3.716h10.333a15.487 15.487 0 0 0 9.998-3.716l12.216-10.346a10.122 10.122 0 0 0 3.605-7.73v-6.195a10.122 10.122 0 0 1-3.58 7.73z" opacity=".3"/>
            <path fill="#FFF" fill-rule="nonzero" d="M90.851 70.4a4.473 4.473 0 0 1-6.194.47L82.389 69a13.343 13.343 0 0 0-8.548-3.097h-8.92A13.343 13.343 0 0 0 56.383 69l-2.255 1.858a4.473 4.473 0 0 1-6.194-.47l-9.528-10.68v4.646l9.503 10.692a4.473 4.473 0 0 0 6.194.47l2.243-1.87a13.343 13.343 0 0 1 8.536-3.097h8.92c3.12.002 6.141 1.098 8.537 3.097l2.242 1.87a4.473 4.473 0 0 0 6.195-.47l9.577-10.692v-4.646L90.851 70.4z" opacity=".3"/>
            <path fill="#242424" fill-rule="nonzero" d="M74.547 96.566H64.214c-3.955 0-7.782-1.4-10.803-3.952L41.195 82.27a11.336 11.336 0 0 1-4.027-8.673V59.708a1.239 1.239 0 0 1 2.168-.818l9.503 10.73a3.221 3.221 0 0 0 4.497.334l2.243-1.87a14.607 14.607 0 0 1 9.341-3.42h8.92a14.62 14.62 0 0 1 9.342 3.382l2.305 1.87c1.32 1.101 3.273.97 4.435-.297l9.503-10.692a1.239 1.239 0 0 1 2.168.781v13.888a11.336 11.336 0 0 1-4.027 8.673L85.35 92.614a16.738 16.738 0 0 1-10.803 3.952zm-34.901-33.6v10.63a8.858 8.858 0 0 0 3.147 6.777l12.216 10.308a14.273 14.273 0 0 0 9.205 3.37h10.333a14.273 14.273 0 0 0 9.205-3.37l12.216-10.345a8.87 8.87 0 0 0 3.147-6.74v-10.63l-7.347 8.264a5.687 5.687 0 0 1-7.93.595l-2.242-1.871a12.13 12.13 0 0 0-7.755-2.812h-8.92a12.13 12.13 0 0 0-7.744 2.8l-2.242 1.87a5.7 5.7 0 0 1-7.93-.594l-7.359-8.252z"/>
            <path fill="#242424" fill-rule="nonzero" d="M69.38 75.74a10.667 10.667 0 0 1-5.327-1.066 1.242 1.242 0 0 1 1.375-2.069 9.044 9.044 0 0 0 3.965.657 9.044 9.044 0 0 0 3.965-.657 1.242 1.242 0 0 1 1.375 2.07 10.667 10.667 0 0 1-5.352 1.065z"/>
        </g>
    </g>
</svg>
