<?xml version="1.0" encoding="UTF-8"?>
<svg width="135px" height="45px" viewBox="0 0 135 45" version="1.1" xmlns="http://www.w3.org/2000/svg" xmlns:xlink="http://www.w3.org/1999/xlink">
    <!-- Generator: Sketch 48.1 (47250) - http://www.bohemiancoding.com/sketch -->
    <title>logo-color</title>
    <desc>Created with Sketch.</desc>
    <defs></defs>
    <g id="Symbols" stroke="none" stroke-width="1" fill="none" fill-rule="evenodd">
        <g id="logo-color">
            <g id="Logo-English" transform="translate(0.000000, 1.000000)">
                <path d="M3.136665,34.9806975 C2.87994,35.3224725 2.74869,35.7503475 2.74869,36.2580225 C2.74869,36.8559975 2.91984,37.3410975 3.267915,37.7054475 C3.60444,38.0592975 4.026015,38.2362225 4.527915,38.2362225 C5.12064,38.2362225 5.59419,38.0078475 5.95329,37.5463725 C6.215265,37.2098475 6.346515,36.7709475 6.346515,36.2401725 C6.346515,35.6526975 6.16959,35.1744225 5.81049,34.8153225 C5.46294,34.4672475 5.02929,34.2908475 4.49904,34.2908475 C3.93519,34.2908475 3.47844,34.5186975 3.136665,34.9806975 Z M1.916565,38.8515225 L1.916565,31.0689225 L2.74869,31.0689225 L2.74869,34.3585725 C3.25059,33.8109975 3.854865,33.5379975 4.567815,33.5379975 C5.01774,33.5379975 5.440365,33.6519225 5.83884,33.8855475 C6.266715,34.1307225 6.597465,34.4672475 6.836865,34.9008975 C7.071015,35.3172225 7.184415,35.7671475 7.184415,36.2632725 C7.184415,37.0843725 6.89409,37.7626725 6.306615,38.3044725 C5.80524,38.7601725 5.22354,38.9885475 4.567815,38.9885475 C3.84384,38.9885475 3.23379,38.7144975 2.74869,38.1732225 L2.74869,38.8515225 L1.916565,38.8515225 Z" id="Fill-1" fill="#ED655F"></path>
                <path d="M9.2295525,34.974555 C8.9618025,35.311605 8.8305525,35.738955 8.8305525,36.257655 C8.8305525,36.86718 9.0127275,37.35228 9.3718275,37.71138 C9.7199025,38.059455 10.1420025,38.23638 10.6496775,38.23638 C11.2418775,38.23638 11.7096525,38.00748 12.0577275,37.546005 C12.3139275,37.20423 12.4451775,36.771105 12.4451775,36.25188 C12.4451775,35.659155 12.2687775,35.180355 11.9207025,34.814955 C11.5841775,34.467405 11.1510525,34.29048 10.6150275,34.29048 C10.0506525,34.29048 9.5886525,34.518855 9.2295525,34.974555 Z M13.2605025,38.85168 L12.4283775,38.85168 L12.4283775,38.17338 C11.9432775,38.714655 11.3332275,38.988705 10.6092525,38.988705 C10.1588025,38.988705 9.7372275,38.87478 9.3382275,38.64063 C8.9103525,38.395455 8.5796025,38.059455 8.3402025,37.625805 C8.1065775,37.210005 7.9926525,36.75903 7.9926525,36.26343 C7.9926525,35.436555 8.2829775,34.758255 8.8704525,34.22223 C9.3718275,33.766005 9.9535275,33.538155 10.6092525,33.538155 C11.3222025,33.538155 11.9264775,33.811155 12.4283775,34.35873 L12.4283775,33.674655 L13.2605025,33.674655 L13.2605025,38.85168 Z" id="Fill-3" fill="#ED655F"></path>
                <path d="M15.5621025,34.25625 C15.9443025,33.77745 16.4630025,33.53805 17.1187275,33.53805 C17.7513525,33.53805 18.2700525,33.75435 18.6695775,34.193775 C19.0512525,34.604325 19.2050775,35.151375 19.2050775,36.0465 L19.2050775,38.851575 L18.3729525,38.851575 L18.3729525,36.148875 C18.3729525,35.39655 18.2758275,35.0091 18.0196275,34.729275 C17.7744525,34.4673 17.4494775,34.33605 17.0447025,34.33605 C16.5370275,34.33605 16.1548275,34.501425 15.8870775,34.8264 C15.6702525,35.0889 15.5621025,35.5677 15.5621025,36.263325 L15.5621025,38.851575 L14.7294525,38.851575 L14.7294525,33.675075 L15.5621025,33.675075 L15.5621025,34.25625 Z" id="Fill-5" fill="#ED655F"></path>
                <polygon id="Fill-7" fill="#ED655F" points="22.9551525 35.778435 25.3439025 38.851785 24.3117525 38.851785 22.3960275 36.337035 21.5066775 37.21536 21.5066775 38.851785 20.6745525 38.851785 20.6745525 31.06866 21.5066775 31.06866 21.5066775 36.17796 24.0041025 33.67476 25.0703775 33.67476"></polygon>
                <path d="M26.111925,38.851575 L26.944575,38.851575 L26.944575,33.675075 L26.111925,33.675075 L26.111925,38.851575 Z M27.12675,31.95255 C27.12675,32.289075 26.864775,32.551575 26.52825,32.551575 C26.203275,32.551575 25.935525,32.2833 25.935525,31.9473 C25.935525,31.627575 26.20905,31.359825 26.534025,31.359825 C26.859,31.359825 27.12675,31.627575 27.12675,31.95255 Z" id="Fill-9" fill="#ED655F"></path>
                <path d="M29.2585125,34.25625 C29.6407125,33.77745 30.1594125,33.53805 30.8146125,33.53805 C31.4477625,33.53805 31.9664625,33.75435 32.3659875,34.193775 C32.7476625,34.604325 32.9014875,35.151375 32.9014875,36.0465 L32.9014875,38.851575 L32.0693625,38.851575 L32.0693625,36.148875 C32.0693625,35.39655 31.9722375,35.0091 31.7160375,34.729275 C31.4708625,34.4673 31.1458875,34.33605 30.7411125,34.33605 C30.2334375,34.33605 29.8512375,34.501425 29.5834875,34.8264 C29.3666625,35.0889 29.2585125,35.5677 29.2585125,36.263325 L29.2585125,38.851575 L28.4258625,38.851575 L28.4258625,33.675075 L29.2585125,33.675075 L29.2585125,34.25625 Z" id="Fill-11" fill="#ED655F"></path>
                <path d="M35.2775325,34.974555 C35.0097825,35.311605 34.8785325,35.738955 34.8785325,36.257655 C34.8785325,36.86718 35.0607075,37.35228 35.4198075,37.71138 C35.7678825,38.059455 36.1899825,38.23638 36.6971325,38.23638 C37.2846075,38.23638 37.7518575,38.00748 38.0994075,37.546005 C38.3561325,37.20423 38.4821325,36.771105 38.4821325,36.25188 C38.4821325,35.659155 38.3052075,35.180355 37.9571325,34.814955 C37.6263825,34.467405 37.1932575,34.29048 36.6630075,34.29048 C36.0986325,34.29048 35.6366325,34.518855 35.2775325,34.974555 Z M39.3084825,33.674655 L39.3084825,38.948805 C39.3084825,39.70743 39.1032075,40.323255 38.6984325,40.807305 C38.2138575,41.38323 37.4499825,41.71398 36.6005325,41.71398 C36.1159575,41.71398 35.6880825,41.62263 35.3232075,41.445705 C34.9583325,41.26878 34.5992325,40.97268 34.2453825,40.567905 L34.7929575,40.02033 C35.0496825,40.328505 35.2775325,40.539555 35.4654825,40.659255 C35.7852075,40.858755 36.1611075,40.96113 36.5942325,40.96113 C37.1817075,40.96113 37.6379325,40.78473 37.9744575,40.42563 C38.3109825,40.066005 38.4763575,39.57618 38.4763575,38.948805 L38.4763575,38.17338 C37.9912575,38.714655 37.3812075,38.988705 36.6572325,38.988705 C36.2067825,38.988705 35.7852075,38.87478 35.3862075,38.64063 C34.9583325,38.395455 34.6275825,38.059455 34.3881825,37.625805 C34.1545575,37.210005 34.0401075,36.75903 34.0401075,36.26343 C34.0401075,35.436555 34.3309575,34.758255 34.9184325,34.22223 C35.4198075,33.766005 36.0015075,33.538155 36.6572325,33.538155 C37.3696575,33.538155 37.9744575,33.811155 38.4763575,34.35873 L38.4763575,33.674655 L39.3084825,33.674655 Z" id="Fill-12" fill="#ED655F"></path>
                <path d="M46.9685475,33.1391025 C47.1223725,32.9333025 47.2021725,32.7112275 47.2021725,32.4770775 C47.2021725,32.2319025 47.1165975,32.0271525 46.9401975,31.8617775 C46.7632725,31.7021775 46.5464475,31.6218525 46.2844725,31.6218525 C45.9705225,31.6218525 45.7253475,31.7305275 45.5489475,31.9468275 C45.4061475,32.1185025 45.3378975,32.3180025 45.3378975,32.5458525 C45.3378975,32.8934025 45.5830725,33.3611775 46.0734225,33.9596775 C46.5123225,33.6236775 46.8089475,33.3496275 46.9685475,33.1391025 Z M45.9531975,34.9634775 C45.6744225,35.1687525 45.4749225,35.3283525 45.3494475,35.4365025 C44.8533225,35.8817025 44.6081475,36.3258525 44.6081475,36.7710525 C44.6081475,37.2267525 44.8134225,37.6031775 45.2181975,37.8940275 C45.5090475,38.1050775 45.8739225,38.2132275 46.3128225,38.2132275 C46.9911225,38.2132275 47.5560225,37.9680525 48.0117225,37.4719275 L45.9531975,34.9634775 Z M48.4794975,36.8335275 C48.6506475,36.5311275 48.8328225,36.1032525 49.0265475,35.5509525 L49.8082725,35.7672525 C49.5683475,36.5143275 49.3116225,37.0955025 49.0438725,37.5118275 L50.1673725,38.8516275 L49.1520225,38.8516275 L48.5477475,38.1218775 C47.9376975,38.6978025 47.1963975,38.9886525 46.3238475,38.9886525 C45.5090475,38.9886525 44.8643475,38.7434775 44.3797725,38.2531275 C43.9755225,37.8483525 43.7754975,37.3637775 43.7754975,36.8104275 C43.7754975,36.3715275 43.9067475,35.9667525 44.1750225,35.5961025 C44.4369975,35.2259775 44.8758975,34.8264525 45.4859475,34.3985775 L45.4465725,34.3476525 C44.8758975,33.6578025 44.5908225,33.0645525 44.5908225,32.5805025 C44.5908225,32.1069525 44.7619725,31.7021775 45.0984975,31.3772025 C45.4061475,31.0805775 45.8056725,30.9325275 46.2902475,30.9325275 C46.7973975,30.9325275 47.2021725,31.0973775 47.5155975,31.4339025 C47.8011975,31.7363025 47.9434725,32.0954025 47.9434725,32.5117275 C47.9434725,32.8708275 47.8463475,33.1905525 47.6468475,33.4698525 C47.4478725,33.7544025 47.0772225,34.1024775 46.5411975,34.5188025 L48.4794975,36.8335275 Z" id="Fill-13" fill="#ED655F"></path>
                <path d="M55.06683,34.427505 L55.06683,38.85168 L54.234705,38.85168 L54.234705,34.427505 L53.71023,34.427505 L53.71023,33.674655 L54.234705,33.674655 L54.234705,32.625705 C54.234705,31.536855 54.65103,30.98928 55.48893,30.98928 C55.625955,30.98928 55.79658,31.01763 56.00238,31.06908 L56.00238,31.821405 C55.84803,31.78203 55.734105,31.764705 55.64853,31.764705 C55.26108,31.764705 55.06683,32.050305 55.06683,32.625705 L55.06683,33.674655 L56.024955,33.674655 L56.024955,34.427505 L55.06683,34.427505 Z" id="Fill-14" fill="#ED655F"></path>
                <polygon id="Fill-15" fill="#ED655F" points="59.313975 36.160425 61.3494 38.851575 60.374475 38.851575 58.8294 36.793575 57.284325 38.851575 56.308875 38.851575 58.350075 36.1662 56.463225 33.675075 57.43815 33.675075 58.83465 35.538825 60.23745 33.675075 61.19505 33.675075"></polygon>
                <path d="M65.9933925,34.427505 L65.9933925,37.295055 C65.9933925,37.871505 66.1871175,38.15658 66.5750925,38.15658 C66.6606675,38.15658 66.7803675,38.13873 66.9284175,38.099355 L66.9284175,38.85168 C66.7404675,38.902605 66.5693175,38.93148 66.4154925,38.93148 C65.5775925,38.93148 65.1612675,38.383905 65.1612675,37.295055 L65.1612675,34.427505 L64.5795675,34.427505 L64.5795675,33.674655 L65.1612675,33.674655 L65.1612675,32.44878 L65.9933925,32.118555 L65.9933925,33.674655 L66.8543925,33.674655 L66.8543925,34.427505 L65.9933925,34.427505 Z" id="Fill-16" fill="#ED655F"></path>
                <path d="M68.7693825,34.25625 C69.0885825,33.863025 69.5390325,33.6693 70.1149575,33.6693 C70.2115575,33.6693 70.3034325,33.675075 70.3884825,33.680325 L70.3884825,34.4274 C70.2971325,34.421625 70.2236325,34.421625 70.1601075,34.421625 C69.8073075,34.421625 69.5164575,34.5072 69.2880825,34.67835 C69.0943575,34.8264 68.9573325,35.020125 68.8833075,35.2653 C68.8092825,35.511 68.7693825,35.875875 68.7693825,36.35415 L68.7693825,38.851575 L67.9367325,38.851575 L67.9367325,33.675075 L68.7693825,33.675075 L68.7693825,34.25625 Z" id="Fill-17" fill="#ED655F"></path>
                <path d="M72.2633625,34.974555 C71.9950875,35.311605 71.8638375,35.738955 71.8638375,36.257655 C71.8638375,36.86718 72.0465375,37.35228 72.4056375,37.71138 C72.7537125,38.059455 73.1752875,38.23638 73.6829625,38.23638 C74.2756875,38.23638 74.7434625,38.00748 75.0910125,37.546005 C75.3477375,37.20423 75.4789875,36.771105 75.4789875,36.25188 C75.4789875,35.659155 75.3020625,35.180355 74.9545125,34.814955 C74.6179875,34.467405 74.1848625,34.29048 73.6488375,34.29048 C73.0839375,34.29048 72.6224625,34.518855 72.2633625,34.974555 Z M76.2943125,38.85168 L75.4621875,38.85168 L75.4621875,38.17338 C74.9770875,38.714655 74.3670375,38.988705 73.6430625,38.988705 C73.1926125,38.988705 72.7705125,38.87478 72.3715125,38.64063 C71.9441625,38.395455 71.6134125,38.059455 71.3740125,37.625805 C71.1398625,37.210005 71.0259375,36.75903 71.0259375,36.26343 C71.0259375,35.436555 71.3167875,34.758255 71.9037375,34.22223 C72.4056375,33.766005 72.9873375,33.538155 73.6430625,33.538155 C74.3554875,33.538155 74.9602875,33.811155 75.4621875,34.35873 L75.4621875,33.674655 L76.2943125,33.674655 L76.2943125,38.85168 Z" id="Fill-18" fill="#ED655F"></path>
                <path d="M78.6700425,34.974555 C78.4017675,35.311605 78.2705175,35.738955 78.2705175,36.257655 C78.2705175,36.86718 78.4532175,37.35228 78.8123175,37.71138 C79.1603925,38.059455 79.5819675,38.23638 80.0896425,38.23638 C80.6765925,38.23638 81.1443675,38.00748 81.4861425,37.546005 C81.7433925,37.20423 81.8688675,36.771105 81.8688675,36.25188 C81.8688675,35.659155 81.6977175,35.180355 81.3496425,34.814955 C81.0194175,34.467405 80.5857675,34.29048 80.0555175,34.29048 C79.4906175,34.29048 79.0291425,34.518855 78.6700425,34.974555 Z M82.7009925,38.85168 L81.8688675,38.85168 L81.8688675,38.17338 C81.3837675,38.714655 80.7742425,38.988705 80.0497425,38.988705 C79.5992925,38.988705 79.1777175,38.87478 78.7781925,38.64063 C78.3508425,38.395455 78.0200925,38.059455 77.7806925,37.625805 C77.5465425,37.210005 77.4326175,36.75903 77.4326175,36.26343 C77.4326175,35.436555 77.7234675,34.758255 78.3104175,34.22223 C78.8123175,33.766005 79.3940175,33.538155 80.0497425,33.538155 C80.7621675,33.538155 81.3669675,33.811155 81.8688675,34.35873 L81.8688675,31.06908 L82.7009925,31.06908 L82.7009925,38.85168 Z" id="Fill-19" fill="#ED655F"></path>
                <path d="M84.181125,38.851575 L85.013775,38.851575 L85.013775,33.675075 L84.181125,33.675075 L84.181125,38.851575 Z M85.19595,31.95255 C85.19595,32.289075 84.93345,32.551575 84.59745,32.551575 C84.272475,32.551575 84.004725,32.2833 84.004725,31.9473 C84.004725,31.627575 84.27825,31.359825 84.6027,31.359825 C84.9282,31.359825 85.19595,31.627575 85.19595,31.95255 Z" id="Fill-20" fill="#ED655F"></path>
                <path d="M87.3279225,34.25625 C87.7101225,33.77745 88.2288225,33.53805 88.8840225,33.53805 C89.5171725,33.53805 90.0358725,33.75435 90.4353975,34.193775 C90.8170725,34.604325 90.9708975,35.151375 90.9708975,36.0465 L90.9708975,38.851575 L90.1387725,38.851575 L90.1387725,36.148875 C90.1387725,35.39655 90.0416475,35.0091 89.7854475,34.729275 C89.5402725,34.4673 89.2152975,34.33605 88.8099975,34.33605 C88.3023225,34.33605 87.9206475,34.501425 87.6523725,34.8264 C87.4360725,35.0889 87.3279225,35.5677 87.3279225,36.263325 L87.3279225,38.851575 L86.4952725,38.851575 L86.4952725,33.675075 L87.3279225,33.675075 L87.3279225,34.25625 Z" id="Fill-21" fill="#ED655F"></path>
                <path d="M93.3464175,34.974555 C93.0786675,35.311605 92.9474175,35.738955 92.9474175,36.257655 C92.9474175,36.86718 93.1301175,37.35228 93.4886925,37.71138 C93.8372925,38.059455 94.2588675,38.23638 94.7660175,38.23638 C95.3534925,38.23638 95.8212675,38.00748 96.1688175,37.546005 C96.4250175,37.20423 96.5510175,36.771105 96.5510175,36.25188 C96.5510175,35.659155 96.3746175,35.180355 96.0260175,34.814955 C95.6957925,34.467405 95.2621425,34.29048 94.7324175,34.29048 C94.1675175,34.29048 93.7060425,34.518855 93.3464175,34.974555 Z M97.3778925,33.674655 L97.3778925,38.948805 C97.3778925,39.70743 97.1720925,40.323255 96.7678425,40.807305 C96.2827425,41.38323 95.5188675,41.71398 94.6694175,41.71398 C94.1848425,41.71398 93.7569675,41.62263 93.3920925,41.445705 C93.0272175,41.26878 92.6681175,40.97268 92.3142675,40.567905 L92.8618425,40.02033 C93.1185675,40.328505 93.3464175,40.539555 93.5343675,40.659255 C93.8540925,40.858755 94.2305175,40.96113 94.6636425,40.96113 C95.2505925,40.96113 95.7068175,40.78473 96.0433425,40.42563 C96.3798675,40.066005 96.5452425,39.57618 96.5452425,38.948805 L96.5452425,38.17338 C96.0606675,38.714655 95.4506175,38.988705 94.7266425,38.988705 C94.2761925,38.988705 93.8540925,38.87478 93.4550925,38.64063 C93.0272175,38.395455 92.6964675,38.059455 92.4570675,37.625805 C92.2234425,37.210005 92.1095175,36.75903 92.1095175,36.26343 C92.1095175,35.436555 92.3998425,34.758255 92.9873175,34.22223 C93.4886925,33.766005 94.0709175,33.538155 94.7266425,33.538155 C95.4385425,33.538155 96.0433425,33.811155 96.5452425,34.35873 L96.5452425,33.674655 L97.3778925,33.674655 Z" id="Fill-22" fill="#ED655F"></path>
                <polygon id="Fill-23" fill="#ED655F" points="6.3681975 6.165915 6.3681975 0.19299 0.3952725 0.19299"></polygon>
                <polygon id="Fill-24" fill="#001689" points="44.2907325 6.165915 38.4070575 23.286165 33.0846075 23.286165 27.2014575 6.165915 31.9327575 6.165915 35.7306075 18.461415 39.5594325 6.165915"></polygon>
                <path d="M49.82628,12.60924 L58.01313,12.60924 C57.51543,10.741815 56.11473,9.46554 53.96643,9.46554 C51.787155,9.46554 50.386455,10.77279 49.82628,12.60924 M62.74443,15.87789 L49.608405,15.87789 C49.888755,18.61734 51.756705,19.98654 54.05988,19.98654 C55.771905,19.98654 57.266055,19.20849 57.85773,17.838765 L62.464605,17.838765 C61.18833,21.885465 57.763755,23.659965 54.09138,23.659965 C48.73743,23.659965 45.064005,19.862115 45.064005,14.75754 C45.064005,9.62094 48.768405,5.79264 53.997405,5.79264 C59.663205,5.79264 63.180705,10.24359 62.74443,15.87789" id="Fill-25" fill="#001689"></path>
                <path d="M73.5328125,12.48618 C71.0448375,11.926005 70.2610125,11.76588 70.2610125,10.957905 C70.2610125,10.022355 71.3566875,9.52623 73.1248875,9.52623 C75.1807875,9.52623 76.1168625,10.181955 76.4607375,11.27028 L80.9731125,11.27028 C80.3809125,8.09403 78.0446625,5.79033 73.2844875,5.79033 C68.7731625,5.79033 65.7806625,7.878255 65.7806625,11.486055 C65.7806625,14.446005 67.7725125,15.53433 72.6287625,16.68618 C75.2128125,17.30988 76.5484125,17.40648 76.5484125,18.55833 C76.5484125,19.486005 75.7719375,19.95798 73.8115875,19.95798 C71.1472125,19.95798 70.0252875,19.23033 69.7853625,17.83803 L65.2735125,17.83803 C65.6814375,21.526155 68.6272125,23.66238 73.4435625,23.66238 C77.6755875,23.66238 81.1568625,21.79023 81.1568625,17.96613 C81.1568625,14.54208 78.4210875,13.606005 73.5328125,12.48618" id="Fill-26" fill="#001689"></path>
                <path d="M103.645972,12.60924 L111.833348,12.60924 C111.335123,10.741815 109.934948,9.46554 107.786122,9.46554 C105.606848,9.46554 104.206148,10.77279 103.645972,12.60924 M116.564122,15.87789 L103.428098,15.87789 C103.708447,18.61734 105.576922,19.98654 107.879572,19.98654 C109.591597,19.98654 111.086272,19.20849 111.677423,17.838765 L116.284298,17.838765 C115.008022,21.885465 111.583448,23.659965 107.911072,23.659965 C102.557122,23.659965 98.8836975,19.862115 98.8836975,14.75754 C98.8836975,9.62094 102.588098,5.79264 107.817097,5.79264 C113.482897,5.79264 117.000398,10.24359 116.564122,15.87789" id="Fill-27" fill="#001689"></path>
                <polygon id="Fill-28" fill="#001689" points="128.712675 23.2861125 125.195175 17.9011875 121.864575 23.2861125 116.51115 23.2861125 122.549175 14.4461625 116.82195 6.1658625 122.113425 6.1658625 125.3511 11.1780375 128.370375 6.1658625 133.724325 6.1658625 127.9971 14.5705875 134.004675 23.2861125"></polygon>
                <polygon id="Fill-29" fill="#001689" points="1.91646 10.61739 1.91646 23.286165 6.367935 23.286165 6.367935 6.165915"></polygon>
                <path d="M25.9164675,12.547185 L25.9164675,23.28606 L21.4649925,23.28606 L21.4649925,13.512135 C21.4649925,11.27091 20.6249925,10.02561 18.2588175,10.02561 C15.7377675,10.02561 14.3995425,11.488785 14.3995425,14.290185 L14.3995425,23.28606 L9.9475425,23.28606 L9.9475425,6.16581 L14.3995425,6.16581 L14.3995425,8.500485 C15.6437925,6.757485 17.3563425,5.792535 19.7219925,5.792535 C23.5823175,5.792535 25.9164675,8.345085 25.9164675,12.547185" id="Fill-30" fill="#001689"></path>
                <path d="M96.6497175,18.67824 C95.2500675,19.291965 94.2368175,19.689915 93.2372175,19.689915 C91.4606175,19.689915 90.3297675,18.46194 90.3297675,16.438065 L90.3297675,10.365915 L96.7431675,10.365915 L96.7431675,6.165915 L90.3297675,6.165915 L90.3297675,1.49394 L82.8254175,8.99829 L82.8254175,10.365915 L85.8735675,10.365915 L85.8735675,16.68639 C85.8735675,21.60669 89.1254175,23.66259 92.5489425,23.66259 C94.6048425,23.66259 97.0051425,22.67244 97.9412175,22.056615 L96.6497175,18.67824 Z" id="Fill-31" fill="#001689"></path>
            </g>
        </g>
    </g>
</svg>