<svg id="Слой_1" xmlns="http://www.w3.org/2000/svg" viewBox="0 0 127 53"><style>.st0{fill:#ffca00}.st1{fill:#4718b4}.st2{fill:#e2086e}</style><g transform="translate(100 100)"><path class="st0" d="M-64-100h45c1.7 0 3 1.3 3 3v8c0 1.7-1.3 3-3 3h-45c-1.7 0-3-1.3-3-3v-8c0-1.7 1.3-3 3-3z"/><path class="st1" d="M-67-89h58c1.7 0 3 1.3 3 3v36c0 1.7-1.3 3-3 3h-55c-1.7 0-3-1.3-3-3v-39z"/><circle class="st0" cx="-19" cy="-68" r="3"/><path class="st2" d="M-71-79h-17l-6-10.3 6-10.7h17l-5.9 10.7L-71-79zm89 11h3.2L27-57.7 21.2-47H18l5.6-10.7L18-68z"/><path class="st0" d="M-2-68h17l6 10.3L15-47H-2l5.9-10.7L-2-68z"/><path class="st1" d="M-91-79h-3.2l-5.8-10.3 5.8-10.7h3.2l-5.6 10.7L-91-79z"/></g></svg>