<svg id="Слой_1" xmlns="http://www.w3.org/2000/svg" viewBox="0 0 142.5 41"><style>.st0{fill:#e8006c}.st1{fill:#4718b4}</style><path class="st0" d="M12.7 10.1l-8 7L0 11.6 12.9.7h7.8v39.6h-8.1c.1 0 .1-30.2.1-30.2zm61.9-2H58.8l-.2 6.1c.9-.3 2-.4 3.5-.4 2 0 3.9.3 5.5.9s3.1 1.5 4.3 2.6c1.2 1.1 2.2 2.5 2.8 4.1.7 1.6 1 3.4 1 5.5 0 2.2-.4 4.2-1.1 6-.8 1.8-1.8 3.2-3.2 4.5s-2.9 2.1-4.8 2.8-3.9 1-6 1c-3.4 0-6.3-.8-8.6-2.5s-3.9-4.2-4.8-7.6l8.8-2c.2 1.4.8 2.6 1.8 3.4 1 .9 2.2 1.3 3.6 1.3 1.8 0 3.2-.6 4.3-1.7 1.1-1.1 1.6-2.5 1.6-4.3 0-1.3-.3-2.4-.8-3.2-.5-.8-1.3-1.5-2.1-2-.9-.5-1.9-.9-2.9-1-1.1-.2-2.2-.3-3.2-.3-1.4 0-2.8.1-4.2.4-1.4.3-2.8.6-4.1 1.1L50.4.9h24l.2 7.2zm5.7 12.4c0-2.4.2-4.7.6-7.2.4-2.4 1.2-4.6 2.3-6.6 1.1-2 2.6-3.6 4.5-4.8C89.6.6 92.1 0 95 0s5.4.6 7.3 1.9c1.9 1.2 3.4 2.9 4.5 4.8 1.1 2 1.9 4.2 2.3 6.6.4 2.4.6 4.8.6 7.2 0 2.4-.2 4.8-.6 7.2-.4 2.4-1.2 4.6-2.3 6.6-1.1 2-2.6 3.6-4.5 4.8C100.4 40.4 98 41 95 41s-5.4-.6-7.3-1.9c-1.9-1.2-3.4-2.9-4.5-4.8-1.1-2-1.9-4.2-2.3-6.6-.4-2.4-.6-4.8-.6-7.2zm8.4 0c0 1 0 2.3.1 3.8s.3 2.9.8 4.2c.4 1.3 1 2.5 1.9 3.4.8.9 2 1.4 3.6 1.4 1.5 0 2.7-.5 3.5-1.4.9-.9 1.5-2.1 1.9-3.4.4-1.3.7-2.7.8-4.2.1-1.2.1-2.5.1-3.8 0-1.3-.1-2.5-.1-3.8-.1-1.4-.3-2.8-.8-4.2-.4-1.3-1-2.5-1.9-3.4s-2-1.4-3.5-1.4-2.7.5-3.6 1.4c-.8.9-1.5 2.1-1.9 3.4-.4 1.4-.7 2.8-.8 4.2-.1 1.3-.1 2.5-.1 3.8zm24.4 0c0-2.4.2-4.7.6-7.2.4-2.4 1.2-4.6 2.3-6.6 1.1-2 2.6-3.6 4.5-4.8 1.9-1.3 4.3-1.9 7.3-1.9 2.9 0 5.4.6 7.3 1.9 1.9 1.2 3.4 2.9 4.5 4.8 1.1 2 1.9 4.2 2.3 6.6.4 2.4.6 4.8.6 7.2 0 2.4-.2 4.8-.6 7.2-.4 2.4-1.2 4.6-2.3 6.6-1.1 2-2.6 3.6-4.5 4.8-1.9 1.3-4.3 1.9-7.3 1.9-2.9 0-5.4-.6-7.3-1.9-1.9-1.2-3.4-2.9-4.5-4.8-1.1-2-1.9-4.2-2.3-6.6-.4-2.4-.6-4.8-.6-7.2zm8.4 0c0 1 0 2.3.1 3.8s.3 2.9.8 4.2c.4 1.3 1 2.5 1.9 3.4.8.9 2 1.4 3.6 1.4 1.5 0 2.7-.5 3.5-1.4.9-.9 1.5-2.1 1.9-3.4.4-1.3.7-2.7.8-4.2.1-1.2.1-2.5.1-3.8 0-1.3-.1-2.5-.1-3.8-.1-1.4-.3-2.8-.8-4.2-.4-1.3-1-2.5-1.9-3.4-.9-.9-2-1.4-3.5-1.4s-2.7.5-3.6 1.4c-.8.9-1.5 2.1-1.9 3.4-.4 1.4-.7 2.8-.8 4.2-.1 1.3-.1 2.5-.1 3.8z"/><path class="st1" d="M32.5 35.5c0-.7.1-1.4.4-2 .3-.6.6-1.2 1.1-1.7.5-.5 1-.8 1.7-1.1.6-.3 1.3-.4 2-.4s1.4.1 2 .4c.6.3 1.2.6 1.7 1.1.5.5.8 1 1.1 1.7.3.6.4 1.3.4 2s-.1 1.4-.4 2c-.3.6-.6 1.2-1.1 1.7-.5.5-1 .8-1.7 1.1-.6.3-1.3.4-2 .4s-1.4-.1-2-.4c-.7-.3-1.2-.7-1.7-1.1-.5-.5-.8-1-1.1-1.7-.2-.6-.4-1.3-.4-2zm0-17.9c0-.7.1-1.4.4-2 .3-.6.6-1.2 1.1-1.7.5-.5 1-.8 1.7-1.1.6-.3 1.3-.4 2-.4s1.4.1 2 .4c.6.3 1.2.6 1.7 1.1.5.5.8 1 1.1 1.7.3.6.4 1.3.4 2s-.1 1.4-.4 2c-.3.6-.6 1.2-1.1 1.7-.5.5-1 .8-1.7 1.1-.6.3-1.3.4-2 .4s-1.4-.1-2-.4c-.6-.3-1.2-.6-1.7-1.1-.5-.5-.8-1-1.1-1.7-.2-.6-.4-1.3-.4-2z"/></svg>