<svg id="Слой_1" xmlns="http://www.w3.org/2000/svg" viewBox="0 0 103 73"><style>.st0{fill:#4718b4}.st1{fill:#ffca00}.st2{fill:#e2086e}.st3{fill:#fff}</style><g transform="translate(100 100)"><path class="st0" d="M-98-100H1c1.1 0 2 .9 2 2v11c0 1.1-.9 2-2 2h-99c-1.1 0-2-.9-2-2v-11c0-1.1.9-2 2-2z"/><path class="st1" d="M-91-93h85v35c0 1.1-.9 2-2 2h-81c-1.1 0-2-.9-2-2v-35z"/><path class="st2" d="M-33-46v10.7L-48.2-27-64-35.3V-46l15.8 8.1L-33-46z"/><circle class="st3" cx="-48" cy="-75" r="13"/></g></svg>