<svg xmlns="http://www.w3.org/2000/svg" xmlns:xlink="http://www.w3.org/1999/xlink" width="1280" height="607" viewBox="0 0 1280 607">
    <defs>
        <radialGradient id="b" cy="50.003%" r="91.483%" fx="50%" fy="50.003%" gradientTransform="matrix(.47422 0 0 1 .263 0)">
            <stop offset="0%" stop-color="#4FC4D9"/>
            <stop offset="100%" stop-color="#45ACBD"/>
        </radialGradient>
        <path id="a" d="M0 607h1280V0H0z"/>
        <path id="d" d="M.184 39.411h17.558v-.003H.184v.003zm0-34.963h5.869V.647H.184v3.801z"/>
        <radialGradient id="e" cx="-52.74%" cy="-161.848%" r="2328.72%" fx="-52.74%" fy="-161.848%" gradientTransform="matrix(1 0 0 .45293 0 -.885)">
            <stop offset="0%" stop-color="#B8A6A3"/>
            <stop offset="100%" stop-color="#B59C99"/>
        </radialGradient>
        <path id="g" d="M38.518 17.79h.002V.23h-.002v17.56zM.17 13.082h3.762V.23H.17v12.852z"/>
        <radialGradient id="h" cx="98.27%" cy="980.795%" r="2382.323%" fx="98.27%" fy="980.795%" gradientTransform="matrix(.4579 0 0 1 .533 0)">
            <stop offset="0%" stop-color="#B8A6A3"/>
            <stop offset="100%" stop-color="#B59C99"/>
        </radialGradient>
        <path id="j" d="M5.258 28.015L.685 10.31h.003l4.573 17.704h-.003m35.428-14.307L37.709 1.14l-3.001.718-.103-.395L38.295.5l3.345 12.958-.954.249"/>
        <radialGradient id="k" cx="839.435%" cy="529.492%" r="1540.461%" fx="839.435%" fy="529.492%" gradientTransform="matrix(.67182 0 0 1 2.755 0)">
            <stop offset="0%" stop-color="#B8A6A3"/>
            <stop offset="100%" stop-color="#B59C99"/>
        </radialGradient>
    </defs>
    <g fill="none" fill-rule="evenodd">
        <mask id="c" fill="#fff">
            <use xlink:href="#a"/>
        </mask>
        <use fill="url(#b)" xlink:href="#a"/>
        <g mask="url(#c)">
            <path fill="#FF9280" d="M666.496 439.082h61.26v-26.095h-61.26z"/>
            <path fill="#FFEB9D" d="M695.991 441.351h12.48v-31.768h-12.48z"/>
            <path fill="#4E346B" d="M708.47 441.351h61.26v-31.768h-61.26z"/>
            <path fill="#FFB18F" d="M685.781 421.692v9.756c0 7.979-6.388 14.442-14.26 14.442h-28.848v-34.964h13.126v-11.554h14.76l11.43 12.507a14.557 14.557 0 0 1 3.792 9.813"/>
            <g transform="translate(649.48 406.18)">
                <mask id="f" fill="#fff">
                    <use xlink:href="#d"/>
                </mask>
                <path fill="url(#e)" d="M.184 39.411h17.558v-.003H.184v.003zm0-34.963h5.869V.647H.184v3.801z" mask="url(#f)"/>
            </g>
            <path fill="#FF9E86" d="M667.63 444.755h-18.15v-34.792h6.066v-3.784h12.084v38.576"/>
            <path fill="#65CFB2" d="M710.739 549.136H604.102l8.638-54.923a57.048 57.048 0 0 1 17.96-33.307l19.179-17.483 1.968-26.353-14.355-26.367 29.374-4.664 8.919-1.417L663 417.07h-.007l1.968 26.353 19.179 17.483a57.048 57.048 0 0 1 17.96 33.307l8.638 54.923"/>
            <path fill="#FF9280" d="M642.605 426.602h6.942c3.095 0 5.605-2.54 5.605-5.673s-2.51-5.673-5.605-5.673h-6.942c-3.095 0-5.604 2.54-5.604 5.673 0 3.134 2.51 5.673 5.604 5.673"/>
            <path fill="#FF9280" d="M642.605 417.525h6.942c3.095 0 5.605-2.54 5.605-5.673s-2.51-5.673-5.605-5.673h-6.942c-3.095 0-5.604 2.54-5.604 5.673 0 3.134 2.51 5.673 5.604 5.673M642.605 436.813h6.942c3.095 0 5.605-2.54 5.605-5.673s-2.51-5.673-5.605-5.673h-6.942c-3.095 0-5.604 2.54-5.604 5.673 0 3.134 2.51 5.673 5.604 5.673"/>
            <path fill="#FF9280" d="M646.204 447.024h4.282c3.203 0 5.8-2.539 5.8-5.673 0-3.132-2.597-5.672-5.8-5.672h-4.282c-3.203 0-5.8 2.54-5.8 5.672 0 3.134 2.597 5.673 5.8 5.673"/>
            <path fill="#FFB18F" d="M640.337 426.602h6.941c3.095 0 5.605-2.54 5.605-5.673s-2.51-5.673-5.605-5.673h-6.941c-3.096 0-5.605 2.54-5.605 5.673 0 3.134 2.509 5.673 5.605 5.673"/>
            <path fill="#FFB18F" d="M640.337 417.525h6.941c3.095 0 5.605-2.54 5.605-5.673s-2.51-5.673-5.605-5.673h-6.941c-3.096 0-5.605 2.54-5.605 5.673 0 3.134 2.509 5.673 5.605 5.673M640.337 436.813h6.941c3.095 0 5.605-2.54 5.605-5.673s-2.51-5.673-5.605-5.673h-6.941c-3.096 0-5.605 2.54-5.605 5.673 0 3.134 2.509 5.673 5.605 5.673"/>
            <path fill="#FFB18F" d="M642.8 447.024h4.283c3.203 0 5.8-2.539 5.8-5.673 0-3.132-2.597-5.672-5.8-5.672H642.8c-3.203 0-5.8 2.54-5.8 5.672 0 3.134 2.597 5.673 5.8 5.673M671.152 399.372h-15.306l-15.442 15.317 2.04 2.022c3.372 3.345 8.848 3.345 12.228 0l5.952-5.903h.468l.8 4.202.05.23a18.022 18.022 0 0 0 5.845 10.206 18.393 18.393 0 0 0 11.818 4.545l.504.015v-20.992l-8.957-9.642"/>
            <path fill="#FF9280" d="M680.025 432.275l-.505-.016c-4.674-.075-9.209-1.867-12.75-5.042-3.322-2.994-5.506-6.912-6.321-11.333l-.042-.194-.377-2.03-4.425 4.507a9.994 9.994 0 0 1-14.293 0l-2.042-2.08 2.041-2.08 2.043 2.08a7.139 7.139 0 0 0 10.21 0l6.385-6.504h2.264l1.066 5.717c.704 3.814 2.568 7.157 5.401 9.713 3.024 2.71 6.898 4.241 10.905 4.306l.524.016-.084 2.94"/>
            <path fill="#FFF" d="M653.868 517.237a40.813 40.813 0 0 1-4.12-.44 32.916 32.916 0 0 1-3.272-.694 26.593 26.593 0 0 1-4.639-1.712v-9.416h6.911c.797 1.11 1.696 1.929 2.698 2.452 1.003.525 2.033.787 3.089.787.275 0 .581-.024.918-.07.337-.046.654-.177.953-.392.299-.216.55-.556.758-1.019.206-.462.31-1.11.31-1.943a47.856 47.856 0 0 1-3.915-.532 25.42 25.42 0 0 1-3.709-.948 17.117 17.117 0 0 1-3.294-1.516 10.682 10.682 0 0 1-2.64-2.209c-.744-.865-1.325-1.878-1.745-3.043-.422-1.163-.633-2.51-.633-4.036 0-2.222.341-4.084 1.023-5.588.68-1.503 1.592-2.734 2.732-3.69a11.579 11.579 0 0 1 3.938-2.15 22.991 22.991 0 0 1 4.637-.973v-8.12h7.348v8.167c1.301.139 2.476.312 3.525.52a34.43 34.43 0 0 1 2.813.671c.825.24 1.553.49 2.18.752a26.32 26.32 0 0 1 1.677.764v9.415H664.5c-.78-1.11-1.65-1.928-2.607-2.451-.956-.526-1.94-.787-2.95-.787-.276 0-.59.034-.941.104-.352.069-.681.23-.988.485-.306.255-.566.625-.78 1.11-.215.486-.322 1.146-.322 1.978 2.679.093 5.036.387 7.073.88 2.035.494 3.73 1.238 5.085 2.233a9.383 9.383 0 0 1 3.066 3.817c.688 1.55 1.032 3.42 1.032 5.61 0 1.897-.294 3.524-.884 4.88-.589 1.359-1.386 2.5-2.388 3.425a11.295 11.295 0 0 1-3.49 2.186c-1.324.533-2.72.922-4.19 1.168v8.398h-7.348v-8.073"/>
            <path fill="#A62D4D" d="M474.29 517.368H342.046l15.204 91.901 136.81-1.567-19.772-90.334"/>
            <path fill="#EB3C3D" d="M374.946 616.077h-26.23l-18.825-82.951c-1.569-6.935 2.734-13.841 9.615-15.43 6.88-1.589 13.733 2.748 15.302 9.683l20.138 88.698M507.675 616.077h-26.227l-18.828-82.951c-1.569-6.935 2.734-13.841 9.613-15.43 6.88-1.589 13.731 2.748 15.307 9.683l20.135 88.698"/>
            <path fill="#FF9280" d="M607.505 229.185h26.092v-28.364h-26.092z"/>
            <path fill="#4E346B" d="M513.347 453.832v-31.617c25.98 0 50.107-11.684 66.192-32.057 18.099-22.925 28.066-51.628 28.066-80.82v-80.153h31.665v80.153c0 36.263-12.383 71.915-34.865 100.393-10.788 13.664-24.778 24.9-40.456 32.494-15.68 7.593-33.177 11.607-50.602 11.607"/>
            <path fill="#FFEB9D" d="M607.505 229.185h31.765v-12.48h-31.765z"/>
            <path fill="#FF9280" d="M331.377 289.318l-19.96-82.54 25.42-5.957 19.958 82.538-25.418 5.959M310.283 219.594l1.406 5.358.217.83 2.915-.621-.22-.836-1.403-5.351-2.915.62"/>
            <path fill="#4E346B" d="M481.583 422.257v31.575c-40.217 0-78.807-17-105.874-46.645-20.566-22.512-35.17-50.069-42.248-79.685l-15.237-63.775 30.82-7.312 15.237 63.775c5.84 24.435 17.894 47.169 34.86 65.74 21.077 23.087 51.126 36.327 82.442 36.327"/>
            <path fill="#FFEB9D" d="M524.692 421.645v90.05l-61.26-90.058v-.007l11.457-14.316 28.026 8.537h16.097c1.573 0 2.982.645 4.007 1.676a5.694 5.694 0 0 1 1.665 4.039v.079h.008"/>
            <path fill="#CFB13C" d="M525.826 442.915v9.782l-12.023-16.635a3.576 3.576 0 0 0-2.284-1.458c-.855-.15-1.73.057-2.47.576l-24.219 16.956-3.247-4.693 24.147-16.905c2.004-1.4 4.41-1.941 6.773-1.536a9.362 9.362 0 0 1 5.99 3.768l7.333 10.145"/>
            <path fill="#EA5E3F" d="M524.692 484.763v26.932l-20.137-29.713 3.538-28.929-12.897-15.57 9.733-6.94c5.934-4.23 14.126.056 14.126 7.388v15.086l.007.036 5.63 31.71"/>
            <path fill="#DF3738" d="M519.02 452.697h-10.95l-12.874-15.341 9.716-6.838c5.921-4.168 14.1.056 14.1 7.28v14.864l.007.035"/>
            <path fill="#EB5B59" d="M519.02 373.277v42.2l-11.082 8.856-33.162-17.369v-33.687h44.243"/>
            <path fill="#4E346B" d="M550.784 429.068v168.294c0 5.952-4.821 10.773-10.774 10.773h-91.89c-5.952 0-10.78-4.821-10.78-10.773V429.068l25.952-6.984.108-.02 61.66 90.08v-90.08l25.724 7.004"/>
            <path fill="#262763" d="M529.23 545.733a3.404 3.404 0 1 1-6.809 0 3.404 3.404 0 0 1 6.808 0M529.23 567.29a3.404 3.404 0 1 1-6.809 0 3.404 3.404 0 0 1 6.808 0"/>
            <path fill="#FFB18F" d="M535.52 327.7c2.084 6.237 8.832 9.603 15.07 7.518 6.236-2.086 9.602-8.834 7.517-15.072-2.085-6.239-8.833-9.604-15.07-7.519-6.237 2.086-9.603 8.834-7.518 15.072"/>
            <path fill="#9C2D40" d="M519.02 243.622l5.92-1.957 26.978 79.734-5.92 1.956-26.979-79.733"/>
            <path fill="#FFB18F" d="M526.188 262.088l30.268 90.147-4.294 20.785a30.351 30.351 0 0 1-1.088 3.927c-5.27 15.007-21.651 23.605-37.387 18.838l-6.043-1.83-40.036-12.138-30.268-90.147 88.848-29.582"/>
            <path fill="#FF9280" d="M545.111 320.013l-90.379 30.572-2.644-8.003 90.379-30.573 2.644 8.004"/>
            <path fill="#9C2D40" d="M493.288 318.817l-20.78 10.537 2.083 6.482 21.74-7.559-3.043-9.46M517.885 310.777l22.858-4.44 2.1 6.284-21.895 7.33-3.063-9.174"/>
            <path fill="#FF9280" d="M493.2 350.585l14.475 43.114-39.656-12.024-6.856-20.421 32.038-10.669M549.512 332.432l6.944 20.64-4.307 20.811a30.343 30.343 0 0 1-1.092 3.932l-13.887-41.282 12.342-4.101"/>
            <path fill="#F76866" d="M501.32 356.417l-16.006 5.292c-2.263.748-4.71-.459-5.468-2.697l-.308-.912c-.757-2.237.465-4.657 2.727-5.405l16.007-5.292c2.263-.748 4.71.46 5.467 2.697l.308.912c.757 2.237-.464 4.657-2.727 5.405M551.918 339.667l-17.776 6.146c-2.28.789-4.748-.484-5.51-2.843l-.311-.961c-.763-2.36.468-4.91 2.75-5.7l17.774-6.146 3.073 9.504"/>
            <path fill="#9C2D40" d="M519.071 243.935l7.89 23.528-79.13 26.382 18.987 56.628-20.752 6.92-26.877-80.157 99.882-33.301"/>
            <path fill="#FFB18F" d="M460.601 361.93l17.579-6.005-3.976-12.147-17.579 6.005 3.976 12.148"/>
            <path fill="#9C2D40" d="M559.859 287.91l-27.49 9.274c-10.548 3.559-21.447 3.233-31.2-.187l2.937 8.863c-16.36 2.331-32.603-4.014-43.18-16.272l-28.346 9.542c-6.483 2.182-13.493-1.349-15.66-7.889l49.267-16.59c10.105 13.68 28.245 20.038 45.06 14.366 20.904-7.053 32.365-30.2 25.396-51.299l11.842-3.995c3.352 10.115 2.328 20.633-2.046 29.482a39.812 39.812 0 0 1-3.885 6.28c7.899 3.147 14.402 9.666 17.305 18.425"/>
            <path fill="#B5364A" d="M536.252 237.543l.012.034c6.966 20.903-4.49 43.836-25.385 50.822-16.807 5.62-34.938-.68-45.04-14.232a39.663 39.663 0 0 1-5.81-11.137l38.109-12.742 22.072-33.583a40.203 40.203 0 0 1 16.042 20.838"/>
            <path fill="#B5364A" d="M475.91 271.73l-58.472 19.857-3.921-11.912 58.472-19.856 3.922 11.911"/>
            <path fill="#FFF" d="M536.036 352.854l-1.834 12.26c-.456 3.046-2.604 5.58-5.56 6.557l-7.014 2.318a8.34 8.34 0 0 1-8.431-1.933l-8.925-8.704 31.764-10.498"/>
            <path fill="#262763" d="M514.482 321.666l-5.387 1.69-1.42-3.984 5.386-1.69 1.42 3.984"/>
            <path fill="#262763" d="M549.462 324.466a4.972 4.972 0 0 1-3.371 5.455l-16.683 5.54c-2.347.779-4.955-.289-6.068-2.482l-6.188-12.19 30.258-10.046 1.968 13.163.083.56zm-44.948 14.763c.44 2.418-1 4.829-3.345 5.608l-16.682 5.54a5.024 5.024 0 0 1-5.997-2.345l-6.673-12.19 30.258-10.046 2.44 13.433zm49.442-35.162l-107.83 35.805c-4.121 1.368-6.353 5.812-4.975 9.904l2.564 7.617 4.077-1.355-2.564-7.616c-.627-1.86.388-3.88 2.261-4.501l10.954-3.638c5.349-1.776 11.187.507 13.88 5.427h.002l2.388 4.36c2.162 3.948 6.845 5.78 11.136 4.355l16.683-5.54c4.358-1.446 7.029-5.923 6.213-10.413l-1.78-9.799 8.023-2.664 4.513 8.892c2.068 4.074 6.913 6.055 11.27 4.608l16.683-5.54c4.292-1.424 6.924-5.685 6.26-10.13l-1.634-10.931a4.26 4.26 0 0 1 2.888-4.675l.353-.117-1.363-4.049h-.002z"/>
            <path fill="#FFB18F" d="M462.814 351.914c2.086 6.238-1.28 12.986-7.517 15.072-6.238 2.086-12.984-1.28-15.07-7.518-2.086-6.239 1.28-12.987 7.518-15.072 6.236-2.087 12.984 1.28 15.07 7.518"/>
            <path fill="#221C54" d="M482.008 344.912a7.354 7.354 0 0 1 .436-5.916c.972-1.852 2.644-3.234 4.709-3.89a8.463 8.463 0 0 1 6.221.415c1.948.923 3.401 2.514 4.091 4.477l-4.072 1.294c-.326-.929-1.014-1.68-1.935-2.117a4.013 4.013 0 0 0-2.944-.197 3.779 3.779 0 0 0-2.227 1.84 3.477 3.477 0 0 0-.207 2.8l-4.072 1.294M526.25 330.163a7.362 7.362 0 0 1 .437-5.92c.972-1.853 2.644-3.235 4.709-3.891 4.259-1.355 8.888.84 10.312 4.894l-4.072 1.295c-.674-1.917-2.862-2.956-4.88-2.315-2.015.641-3.107 2.724-2.432 4.642l-4.073 1.295"/>
            <path fill="#FFF" d="M769.651 383.79l-24.294 164.889c-.528 3.565-3.575 6.13-7.05 6.13a7.46 7.46 0 0 1-1.055-.079c-3.903-.582-6.593-4.24-6.015-8.164l24.302-164.89c.528-3.564 3.56-6.13 7.042-6.13.35 0 .706.021 1.063.079 3.895.582 6.585 4.233 6.007 8.164"/>
            <path fill="#C3E3F5" d="M951.159 383.79l-24.456 164.889a7.191 7.191 0 0 1-7.097 6.13h-181.64a7.192 7.192 0 0 0 7.096-6.13l24.456-164.89a7.184 7.184 0 0 0-7.118-8.243h181.641c.352 0 .711.021 1.07.079 3.922.582 6.637 4.24 6.048 8.164"/>
            <path fill="#262763" d="M827.586 553.675h34.033V468.58h-34.033z"/>
            <path fill="#B7D5E6" d="M915.353 578.508c-5.508 7.898-14.562 12.608-24.227 12.608H777.671v-8.577h51.531a20.92 20.92 0 0 0 15.576-6.947 20.683 20.683 0 0 0 5.134-16.195l-10.642-90.181h-12.031l.008-8.577h57.256l34.237 90.904a29.15 29.15 0 0 1-3.387 26.965"/>
            <path fill="#FFF" d="M828.901 591.116h-51.23v-8.577h51.23c5.914 0 11.561-2.533 15.492-6.95a20.744 20.744 0 0 0 5.102-16.19l-10.58-90.18-11.96-.003v-8.577l19.593.005 11.468 97.756a29.323 29.323 0 0 1-7.212 22.89 29.347 29.347 0 0 1-21.903 9.826"/>
            <path fill="#262763" d="M806.032 407.314l-5.028 34.037h-2.914l5.02-34.037h2.922M815.107 407.314l-5.027 34.037h-2.914l5.027-34.037h2.914M825.317 407.314l-5.023 34.037h-2.918l5.022-34.037h2.919M834.392 407.314l-5.027 34.037h-2.914l5.02-34.037h2.921M844.602 407.314l-5.027 34.037h-2.914l5.027-34.037h2.914M853.678 407.314l-5.023 34.037h-2.918l5.022-34.037h2.919M863.888 407.314l-5.027 34.037h-2.914l5.02-34.037h2.92M872.963 407.314l-5.027 34.037h-2.914l5.027-34.037h2.914M882.039 407.314l-5.023 34.037h-2.918l5.022-34.037h2.919M892.249 407.314l-5.028 34.037h-2.913l5.02-34.037h2.92M901.324 407.314l-5.027 34.037h-2.914l5.027-34.037h2.914M911.534 407.314l-5.023 34.037h-2.918l5.023-34.037h2.918"/>
            <path fill="#FFEB9D" d="M320.11 270.03l-3.02-12.91 31.012-7.513 3.02 12.91-31.011 7.513"/>
            <path fill="#FF8166" d="M811.94 237.265c-18.875-7.825-19.49-22.717-17.18-29.499l4.171 1.365 4.184 1.325c-.398 1.248-3.43 12.374 12.253 18.876l-3.428 7.933M296.94 392.265c-18.875-7.825-19.49-22.717-17.18-29.499l4.171 1.365 4.184 1.325c-.398 1.248-3.43 12.374 12.253 18.876l-3.428 7.933"/>
            <path fill="#FFF" d="M712.39 274.265l-1.537-8.625.768 4.312-.807-4.304c1.264-.267 12.302-3.086 10.6-19.976l8.463-.906c2.047 20.329-10.544 28.185-17.488 29.5M253.39 170.265l-1.537-8.625.768 4.312-.807-4.304c1.264-.267 12.302-3.086 10.6-19.976l8.463-.906c2.047 20.329-10.544 28.185-17.488 29.5M798.784 319.247c-4.917 0-8.666-1.214-8.97-1.315l2.594-8.415-1.297 4.208 1.281-4.213c.102.032 10.344 3.263 16.627-2.746l5.752 6.504c-4.977 4.76-11.067 5.977-15.987 5.977M179.784 221.247c-4.917 0-8.666-1.214-8.97-1.315l2.594-8.415-1.297 4.208 1.281-4.213c.102.032 10.344 3.263 16.627-2.746l5.752 6.504c-4.977 4.76-11.067 5.977-15.987 5.977M1189.784 149.247c-4.917 0-8.666-1.214-8.97-1.315l2.594-8.415-1.297 4.208 1.281-4.213c.102.032 10.344 3.263 16.627-2.746l5.752 6.504c-4.977 4.76-11.067 5.977-15.987 5.977"/>
            <path fill="#FFCA3D" d="M886.385 313.593c-11.199-8.078-9.517-23.187-9.437-23.827l8.672 1.006-4.34-.503 4.34.487c-.007.107-1.129 10.84 5.941 15.94l-5.176 6.897M198.385 330.593c-11.199-8.078-9.517-23.187-9.437-23.827l8.672 1.006-4.34-.503 4.34.487c-.007.107-1.129 10.84 5.941 15.94l-5.176 6.897M1106.385 253.593c-11.199-8.078-9.517-23.187-9.437-23.827l8.672 1.006-4.34-.503 4.34.487c-.007.107-1.129 10.84 5.941 15.94l-5.176 6.897"/>
            <path fill="#FFF" d="M878.308 176.282l-3.69-7.92 1.844 3.96-1.86-3.953c.1-.048 9.937-4.883 10.621-13.644l8.665.685c-1.082 13.876-14.988 20.593-15.58 20.872M964.011 220.785c-7.274 0-15.705-2.924-23.197-11.43l6.492-5.589c10.067 11.431 21.716 8.905 25.779 5.893l5.165 6.808c-3.255 2.414-8.37 4.318-14.239 4.318M238.011 481.785c-7.274 0-15.705-2.924-23.197-11.43l6.492-5.589c10.067 11.431 21.716 8.905 25.779 5.893l5.165 6.808c-3.255 2.414-8.37 4.318-14.239 4.318M1100.011 398.785c-7.274 0-15.705-2.924-23.197-11.43l6.492-5.589c10.067 11.431 21.716 8.905 25.779 5.893l5.165 6.808c-3.255 2.414-8.37 4.318-14.239 4.318"/>
            <path fill="#FF8166" d="M1000.895 323.92c-3.686 0-7.717-.663-12.081-2.215l2.87-8.262c14.541 5.172 23.456-2.937 25.498-7.677l7.934 3.5c-2.842 6.604-11.382 14.654-24.22 14.654M139.895 545.92c-3.686 0-7.717-.663-12.081-2.215l2.87-8.262c14.541 5.172 23.456-2.937 25.498-7.677l7.934 3.5c-2.842 6.604-11.382 14.654-24.22 14.654M70.895 254.92c-3.686 0-7.717-.663-12.081-2.215l2.87-8.262c14.541 5.172 23.456-2.937 25.498-7.677l7.934 3.5c-2.842 6.604-11.382 14.654-24.22 14.654"/>
            <path fill="#FFCA3D" d="M787.914 155.073c-4.788-7.76-6.003-24.478 11.127-36.307l5.058 6.989c-12.74 8.798-11.35 20.574-8.68 24.899l-7.505 4.419M1019.914 518.073c-4.788-7.76-6.003-24.478 11.127-36.307l5.058 6.989c-12.74 8.798-11.35 20.574-8.68 24.899l-7.505 4.419M138.914 122.073c-4.788-7.76-6.003-24.478 11.127-36.307l5.058 6.989c-12.74 8.798-11.35 20.574-8.68 24.899l-7.505 4.419M1208.914 382.073c-4.788-7.76-6.003-24.478 11.127-36.307l5.058 6.989c-12.74 8.798-11.35 20.574-8.68 24.899l-7.505 4.419"/>
            <path fill="#FF8166" d="M712.666 178.207c-7.732-4.444-16.89-18.539-8.542-37.44l7.578 3.632c-6.208 14.058.683 23.722 4.994 26.198l-4.03 7.61M527.672 178.265c-8.955-.109-23.621-8.07-24.858-28.965l8.443-.534c.92 15.541 11.524 20.695 16.514 20.756l-.099 8.743M1176.672 533.265c-8.955-.109-23.621-8.07-24.858-28.965l8.443-.534c.92 15.541 11.524 20.695 16.514 20.756l-.099 8.743"/>
            <path fill="#FFCA3D" d="M422.156 208.054c-2.594 0-5.375-.297-8.342-.955l1.87-8.176c14.775 3.283 22.566-5.426 24.024-10.157l8.139 2.433c-2.224 7.222-10.916 16.855-25.691 16.855M1006.156 131.054c-2.594 0-5.375-.297-8.342-.955l1.87-8.176c14.775 3.283 22.566-5.426 24.024-10.157l8.139 2.433c-2.224 7.222-10.916 16.855-25.691 16.855M85.156 432.054c-2.594 0-5.375-.297-8.342-.955l1.87-8.176c14.775 3.283 22.566-5.426 24.024-10.157l8.139 2.433c-2.224 7.222-10.916 16.855-25.691 16.855"/>
            <path fill="#FFB18F" d="M615.836 208.763h11.262c7.975 0 14.44-6.49 14.44-14.495v-26.35h-34.96v13.342h-11.551v15.001l8.05 7.483a18.74 18.74 0 0 0 12.76 5.019"/>
            <g transform="translate(601.833 166.783)">
                <mask id="i" fill="#fff">
                    <use xlink:href="#g"/>
                </mask>
                <path fill="url(#h)" d="M38.518 17.79h.002V.23h-.002v17.56zM.17 13.082h3.762V.23H.17v12.852z" mask="url(#i)"/>
            </g>
            <path fill="#FF9E86" d="M641.538 186.071h-38.57v-4.868h3.783v-13.285h34.787v18.153"/>
            <path fill="#FF9280" d="M623.387 167.85v6.943c0 3.095-2.539 5.605-5.672 5.605-3.132 0-5.672-2.51-5.672-5.605v-6.943c0-3.095 2.54-5.605 5.672-5.605 3.133 0 5.672 2.51 5.672 5.605"/>
            <path fill="#FF9280" d="M613.177 167.85v6.943c0 3.095-2.539 5.605-5.672 5.605-3.132 0-5.672-2.51-5.672-5.605v-6.943c0-3.095 2.54-5.605 5.672-5.605 3.133 0 5.672 2.51 5.672 5.605M633.597 167.85v6.943c0 3.095-2.539 5.605-5.672 5.605-3.132 0-5.672-2.51-5.672-5.605v-6.943c0-3.095 2.54-5.605 5.672-5.605 3.133 0 5.672 2.51 5.672 5.605"/>
            <path fill="#FF9280" d="M642.673 170.314v4.284c0 3.203-2.54 5.8-5.672 5.8-3.133 0-5.673-2.597-5.673-5.8v-4.284c0-3.203 2.54-5.8 5.673-5.8s5.672 2.597 5.672 5.8"/>
            <path fill="#FFB18F" d="M623.387 164.447v6.942c0 3.096-2.539 5.605-5.672 5.605-3.132 0-5.672-2.509-5.672-5.605v-6.942c0-3.096 2.54-5.606 5.672-5.606 3.133 0 5.672 2.51 5.672 5.606"/>
            <path fill="#FFB18F" d="M613.177 164.447v6.942c0 3.096-2.539 5.605-5.672 5.605-3.132 0-5.672-2.509-5.672-5.605v-6.942c0-3.096 2.54-5.606 5.672-5.606 3.133 0 5.672 2.51 5.672 5.606M633.597 164.447v6.942c0 3.096-2.539 5.605-5.672 5.605-3.132 0-5.672-2.509-5.672-5.605v-6.942c0-3.096 2.54-5.606 5.672-5.606 3.133 0 5.672 2.51 5.672 5.606"/>
            <path fill="#FFB18F" d="M642.673 168.045v4.283c0 3.204-2.54 5.801-5.672 5.801-3.133 0-5.673-2.597-5.673-5.8v-4.284c0-3.203 2.54-5.8 5.673-5.8s5.672 2.597 5.672 5.8M595.027 195.266V179.96l15.314-15.445 2.023 2.04c3.344 3.372 3.344 8.85 0 12.23l-5.903 5.953v.468l4.202.8.229.05a18.02 18.02 0 0 1 10.205 5.845 18.398 18.398 0 0 1 4.545 11.82l.014.504h-20.989l-9.64-8.958"/>
            <path fill="#FF9280" d="M624.986 204.224l-.015-.504a16.79 16.79 0 0 0-4.31-10.93c-2.552-2.83-5.896-4.695-9.667-5.39l-.275-.058-5.483-1.016v-2.265l6.504-6.386a7.142 7.142 0 0 0 0-10.21l-2.08-2.044 2.079-2.042 2.08 2.044a9.997 9.997 0 0 1 .002 14.293l-4.508 4.427 2.264.427a19.973 19.973 0 0 1 11.289 6.31c3.178 3.546 4.969 8.082 5.044 12.775l.015.486-2.94.083"/>
            <path fill="#FFB18F" d="M334.086 242.964l-10.915 2.781c-7.73 1.97-15.622-2.586-17.628-10.174l-6.604-24.982 33.884-8.634 3.344 12.649 11.196-2.853 3.76 14.222-5.929 9.082c-2.555 3.916-6.523 6.74-11.108 7.909"/>
            <g transform="translate(298.939 199.686)">
                <mask id="l" fill="#fff">
                    <use xlink:href="#j"/>
                </mask>
                <path fill="url(#k)" d="M5.258 28.015L.685 10.31h.003l4.573 17.704h-.003m35.428-14.307L37.709 1.14l-3.001.718-.103-.395L38.295.5l3.345 12.958-.954.249" mask="url(#l)"/>
            </g>
            <path fill="#FF9280" d="M336.05 214.436l-3.078-12.88 2.847-.735 2.825 12.883-2.594.732"/>
            <path fill="#FF9E86" d="M303.489 228.05l-4.55-17.4 33.753-8.695 3.33 12.735 2.721-.701.95-.245 1.22 4.666-37.424 9.64"/>
            <path fill="#FF9280" d="M317.28 205.652l1.832 6.802c.817 3.034 4.031 4.855 7.18 4.067 3.148-.787 5.038-3.884 4.22-6.917l-1.831-6.802c-.818-3.034-4.032-4.855-7.18-4.067-3.148.787-5.038 3.884-4.22 6.917"/>
            <path fill="#FF9280" d="M326.356 203.383l1.832 6.802c.817 3.034 4.03 4.854 7.18 4.067 3.148-.787 5.037-3.885 4.22-6.917l-1.832-6.802c-.817-3.034-4.032-4.855-7.18-4.067-3.148.787-5.037 3.884-4.22 6.917M307.07 207.922l1.832 6.801c.818 3.034 4.031 4.855 7.18 4.067 3.148-.787 5.038-3.884 4.22-6.917l-1.831-6.802c-.817-3.034-4.032-4.854-7.18-4.067-3.148.787-5.038 3.884-4.22 6.918"/>
            <path fill="#FF9280" d="M297.989 213.814l1.059 4.182c.792 3.127 3.907 5.004 6.96 4.193 3.05-.812 4.883-4.005 4.09-7.132l-1.059-4.182c-.791-3.127-3.907-5.004-6.96-4.192-3.05.811-4.882 4.005-4.09 7.131"/>
            <path fill="#FFB18F" d="M316.146 203.383l1.832 6.802c.817 3.034 4.031 4.854 7.18 4.067 3.148-.787 5.037-3.885 4.22-6.917l-1.832-6.803c-.817-3.033-4.032-4.854-7.18-4.066-3.148.787-5.037 3.884-4.22 6.917"/>
            <path fill="#FFB18F" d="M326.356 199.98l1.832 6.801c.817 3.034 4.03 4.855 7.18 4.067 3.148-.787 5.037-3.884 4.22-6.917l-1.832-6.803c-.817-3.033-4.032-4.853-7.18-4.066-3.148.787-5.037 3.884-4.22 6.917M305.936 205.652l1.832 6.802c.817 3.034 4.031 4.855 7.18 4.067 3.148-.787 5.038-3.884 4.22-6.917l-1.832-6.803c-.817-3.033-4.032-4.854-7.18-4.066-3.148.787-5.037 3.884-4.22 6.917"/>
            <path fill="#FFB18F" d="M296.854 211.545l1.06 4.181c.791 3.128 3.907 5.005 6.959 4.193 3.052-.811 4.883-4.005 4.091-7.131l-1.059-4.182c-.792-3.127-3.908-5.004-6.96-4.193-3.05.812-4.883 4.005-4.09 7.132M351.123 225.366l-3.857-14.699-18.885-10.981-1.467 2.467c-2.425 4.08-1.045 9.338 3.081 11.743l7.28 4.233.118.45-3.913 1.824-.21.106a18.173 18.173 0 0 0-8.52 8.177c-1.919 3.758-2.532 8.163-1.471 12.492l.113.487 20.55-5.275 7.18-11.024"/>
            <path fill="#FF9280" d="M322.306 242.8l-.115-.489c-1.127-4.508-.552-9.304 1.624-13.484 2.058-3.923 5.302-6.981 9.389-8.844l.174-.087 1.879-.86-5.517-3.148c-4.91-2.809-6.556-8.968-3.671-13.73l1.497-2.472 2.546 1.452-1.498 2.472c-2.06 3.402-.883 7.802 2.624 9.809l7.96 4.54.58 2.176-5.278 2.422c-3.527 1.61-6.297 4.219-8.052 7.566a16.372 16.372 0 0 0-1.384 11.53l.12.508-2.878.639"/>
            <path fill="#FFF" d="M587.085 422.064h21.555v-3.404h-21.555zM705.33 394.834l-1.398-2.402 15.62-8.944 1.397 2.402-15.619 8.944M687.095 376.68l-2.448-1.438 23.645-41.676 2.447 1.439-23.644 41.675M658.555 368.738h3.403v-27.23h-3.403zM633.35 375.546l-30.382-51.892 2.517-1.433 30.381 51.891-2.517 1.434M615.13 394.834l-35.986-20.242 1.452-2.45 35.985 20.241-1.452 2.45"/>
            <path fill="#FFCA3D" d="M1028.766 619.48h-775.59c-7.932 0-14.362-6.35-14.362-14.182 0-7.833 6.43-14.182 14.362-14.182h775.59c7.928 0 14.363 6.35 14.363 14.182 0 7.832-6.435 14.182-14.363 14.182"/>
            <path fill="#FFE994" d="M323.29 603.596h-67.988c-1.588 0-2.875-1.27-2.875-2.836 0-1.567 1.287-2.837 2.875-2.837h67.988c1.588 0 2.875 1.27 2.875 2.837 0 1.566-1.287 2.836-2.875 2.836M353.885 603.596h-15.734c-1.607 0-2.91-1.27-2.91-2.836 0-1.567 1.303-2.837 2.91-2.837h15.734c1.607 0 2.91 1.27 2.91 2.837 0 1.566-1.303 2.836-2.91 2.836"/>
        </g>
    </g>
</svg>
