<svg xmlns="http://www.w3.org/2000/svg" width="100" height="100" viewBox="0 0 100 100">
    <g fill="#E04A36" fill-rule="nonzero">
        <path d="M55.313 78.438l1.093-4.532 5.938 3.125V65.47l18.437 7.5L81.875 70l-22.656-9.219v11.094l-9.063-4.688-9.375 4.844V60.625L18.125 70l1.25 2.969 18.281-7.656V77.03l6.25-3.125.938 4.219-1.719 9.063 2.969.624 2.031-9.687-1.406-5.781 3.437-1.563 3.282 1.719-1.407 5.781 1.875 9.531 2.969-.624zM29.688 38.594l1.562 5.625 3.438 2.031 2.968 6.25c.625 1.719 2.657 3.438 4.532 4.844.468.312.78.625 1.093.937 1.25 1.094 2.813 1.563 4.375 1.719h3.75c1.719 0 3.282-.625 4.375-1.563l.625-.624c2.344-2.032 4.219-3.594 4.844-5.157l3.125-6.25 4.063-2.031 1.093-5.469v-.312c0-.938-.312-1.719-.937-2.5-.469-.469-.938-.625-1.406-.938.156-1.25.156-2.343.156-3.281v-.625c0-9.844-7.969-17.969-17.969-17.969-9.844 0-17.969 7.969-17.969 17.969v.625c0 1.094 0 2.188.157 3.281-.782.625-1.875 2.032-1.875 3.438zm3.437-.313h2.5l-.313-1.718C35 34.843 35 33.437 35 32.03v-.625c0-8.125 6.563-14.843 14.844-14.843 8.125 0 14.843 6.562 14.843 14.843v.625c0 1.25-.156 2.813-.468 4.532l-.313 1.874h2.813v.157l-.781 3.593-3.75 1.876-3.594 7.5c-.469 1.093-2.657 2.968-3.907 4.062l-.624.625a2.882 2.882 0 0 1-2.5.781h-3.594c-.938 0-1.719-.312-2.344-.937-.313-.313-.781-.625-1.094-.938-1.25-1.093-3.281-2.656-3.593-3.75L37.5 44.22l-3.594-2.032-1.093-3.593c.156-.157.156-.313.312-.313z"/>
        <path d="M50 0C22.5 0 0 22.5 0 50s22.5 50 50 50 50-22.5 50-50S77.5 0 50 0zm0 96.875C24.219 96.875 3.125 75.781 3.125 50S24.219 3.125 50 3.125 96.875 24.219 96.875 50 75.781 96.875 50 96.875z"/>
        <path d="M21.25 21.25l-2.188-2.188c-.78.782-1.562 1.563-2.187 2.344l2.344 2.032c.625-.782 1.25-1.563 2.031-2.188zM17.344 25.625l-2.5-1.875c-.625.781-1.25 1.719-1.875 2.656l2.5 1.719c.625-.781 1.25-1.563 1.875-2.5zM14.063 30.781L11.25 29.22c-.469.937-.938 1.875-1.406 2.968l2.812 1.25c.469-.937.938-1.874 1.406-2.656zM14.531 71.094l-2.656 1.562c.469.938 1.094 1.875 1.719 2.813l2.5-1.719c-.469-.938-1.094-1.875-1.563-2.656zM11.875 65.625l-2.969 1.094c.469 1.094.938 2.031 1.406 2.969l2.813-1.407c-.469-.781-.781-1.719-1.25-2.656zM11.563 36.25l-2.97-1.094c-.312.938-.78 2.032-.937 3.125l2.969.782a9.932 9.932 0 0 1 .938-2.813zM55.313 91.094l.468 3.125c1.094-.156 2.188-.313 3.125-.469l-.625-3.125c-.937.156-2.031.313-2.968.469zM61.25 89.844l.781 2.969c1.094-.313 2.032-.626 3.125-.938l-1.094-2.969a9.932 9.932 0 0 1-2.812.938zM84.219 27.656l2.656-1.718C86.25 25 85.625 24.218 85 23.28l-2.5 1.875c.469.938 1.094 1.719 1.719 2.5zM87.188 32.969L90 31.562c-.469-.937-.938-1.875-1.563-2.812l-2.656 1.563c.469.78.938 1.718 1.406 2.656zM9.844 42.031l-3.125-.625c-.157 1.094-.469 2.188-.469 3.125L9.375 45c.156-1.094.313-2.031.469-2.969zM9.063 53.906l-3.126.313c.157 1.093.157 2.187.47 3.281l3.124-.469c-.156-1.093-.312-2.031-.469-3.125zM9.063 50.469v-2.5l-3.126-.157c0 .938-.156 1.72-.156 2.657v.625h3.125l.156-.625zM10.156 59.844l-2.969.781c.313 1.094.47 2.031.938 3.125l2.813-.938c-.313-.937-.626-1.874-.782-2.968zM90.625 44.375l3.125-.469c-.156-1.093-.313-2.187-.625-3.125L90 41.406c.313 1.094.469 2.032.625 2.969zM89.531 61.25l2.969.781c.313-1.093.469-2.031.781-3.125l-3.125-.625c-.156 1.094-.312 2.032-.625 2.969zM81.25 77.031l2.344 2.031c.625-.78 1.406-1.718 2.031-2.5l-2.5-1.874-1.875 2.343zM84.688 72.188l2.656 1.718c.625-.937 1.094-1.875 1.562-2.812l-2.812-1.406c-.313.78-.781 1.718-1.406 2.5zM78.125 16.406c-.781-.625-1.719-1.406-2.5-2.031l-1.875 2.5 2.344 1.875 2.031-2.344zM72.813 12.656c-.938-.625-1.876-1.094-2.813-1.562l-1.406 2.812c.937.469 1.719.938 2.656 1.406l1.563-2.656zM82.813 20.781c-.782-.781-1.407-1.562-2.188-2.343l-2.188 2.187c.782.625 1.407 1.406 2.032 2.188l2.344-2.032zM72.188 85l1.718 2.656c.938-.625 1.875-1.25 2.656-1.875l-1.874-2.5c-.938.625-1.72 1.094-2.5 1.719zM17.969 75.938l-2.5 1.874c.625.782 1.406 1.72 2.187 2.5L20 78.126c-.781-.625-1.406-1.406-2.031-2.188zM76.875 81.406l2.031 2.344c.781-.781 1.563-1.406 2.344-2.188l-2.188-2.187c-.624.625-1.406 1.25-2.187 2.031zM66.875 87.813l1.25 2.812c.938-.469 2.031-.938 2.969-1.406l-1.563-2.813c-.937.625-1.719.938-2.656 1.406zM30.938 14.063L29.53 11.25c-.937.469-1.875 1.094-2.812 1.563l1.718 2.656c.782-.469 1.563-.938 2.5-1.406zM36.406 11.719L35.313 8.75a24.04 24.04 0 0 0-2.97 1.25l1.25 2.813c.938-.47 1.876-.782 2.813-1.094zM90.938 50.469h3.124c0-1.094 0-2.188-.156-3.282l-3.125.157c.156 1.093.156 2.031.156 3.125zM89.219 38.594l2.969-.938a24.8 24.8 0 0 0-1.094-3.125l-2.969 1.094c.469.938.938 2.031 1.094 2.969zM90.781 55.313l3.125.312c.156-1.094.156-2.188.313-3.281l-3.125-.157c-.156 1.094-.313 2.188-.313 3.126zM67.031 9.688c-.937-.47-2.031-.782-2.969-1.094l-.937 2.969c.938.312 1.875.624 2.656.937l1.25-2.813zM25.781 17.344l-1.875-2.5a15.776 15.776 0 0 0-2.5 2.031l2.032 2.344c.78-.782 1.562-1.407 2.343-1.875zM54.531 6.563c-1.093-.157-2.187-.313-3.125-.313l-.156 3.125c.938 0 2.031.156 2.969.156l.312-2.969zM60.938 7.656c-1.094-.312-2.032-.468-3.126-.625l-.468 3.125c.937.156 2.031.313 2.968.625l.626-3.125zM48.281 9.375l-.156-3.125c-1.094 0-2.188.156-3.281.313l.312 3.125c1.094-.157 2.032-.157 3.125-.313zM42.188 10.156l-.626-3.125c-1.093.157-2.187.469-3.124.782l.78 2.968c1.094-.312 2.032-.469 2.97-.625zM87.5 66.875l2.813 1.25c.468-.938.78-2.031 1.25-2.969l-2.97-1.094c-.312.938-.624 1.876-1.093 2.813zM42.813 93.906l3.28.469.313-3.125c-.937-.156-2.031-.156-2.968-.313l-.626 2.97zM25 86.719c.938.625 1.875 1.25 2.656 1.719l1.563-2.657c-.938-.469-1.719-1.094-2.5-1.562L25 86.719zM36.563 92.5c1.093.313 2.03.625 3.124.938l.782-2.97c-.938-.156-1.875-.468-2.969-.78l-.938 2.812zM19.844 82.656c.781.781 1.562 1.406 2.5 2.188l2.031-2.5c-.781-.625-1.563-1.25-2.344-2.031l-2.187 2.343zM30.469 90a24.04 24.04 0 0 0 2.968 1.25l1.094-2.969c-.937-.312-1.875-.781-2.812-1.25L30.469 90zM50 91.406h-.625v3.125h3.281l-.156-3.125H50z"/>
    </g>
</svg>
