<svg xmlns="http://www.w3.org/2000/svg" xmlns:xlink="http://www.w3.org/1999/xlink" width="140" height="147" viewBox="0 0 140 147">
    <defs>
        <circle id="a" cx="69.892" cy="69.88" r="69.88"/>
        <circle id="b" cx="69.892" cy="69.88" r="69.88"/>
    </defs>
    <g fill="none" fill-rule="evenodd">
        <path fill="#323232" d="M-89-289h1280V962H-89z"/>
        <use fill="#FFF" fill-rule="nonzero" opacity=".2" transform="translate(0 6.487)" xlink:href="#a"/>
        <g transform="translate(0 6.487)">
            <mask id="c" fill="#fff">
                <use xlink:href="#b"/>
            </mask>
            <g mask="url(#c)">
                <path fill="#CED8EE" fill-rule="nonzero" d="M94.9 97.145H44.984l.25-17.158h49.352z"/>
                <path fill="#242424" fill-rule="nonzero" d="M94.837 98.393H44.923c-.69 0-1.248-.559-1.248-1.248l.25-17.158c0-.689.558-1.248 1.247-1.248h49.415c.69 0 1.248.56 1.248 1.248l.25 17.133c0 .69-.56 1.248-1.248 1.248v.025zM46.17 95.897H93.59l-.225-14.662H46.47l-.3 14.662z"/>
                <path fill="#EFF7FF" fill-rule="nonzero" d="M99.828 91.467s-9.097-3.743-8.735-3.493c-2.882 6.239-13.364 9.358-21.213 11.58-7.7-2.222-19.417-5.366-21.488-11.506l-8.46 3.544a34.503 34.503 0 0 0-21.214 31.845v18.818h102.024v-19.092a34.503 34.503 0 0 0-20.914-31.696z"/>
                <path fill="#EFDCD2" fill-rule="nonzero" d="M88.06 77.754c-2.02 4.63.974 8.385 3.744 10.22-2.882 6.239-14.038 9.358-21.837 11.58-7.824-2.222-19.866-5.391-21.862-11.58 2.683-1.61 5.79-5.504 3.668-10.22h36.288z"/>
                <path fill="#FFF" fill-rule="nonzero" d="M92.903 94.213c17.157 4.68 28.139 21.4 28.139 35.19v-6.24a34.503 34.503 0 0 0-20.914-31.696s-9.097-3.743-8.735-3.493l1.51 6.239z" opacity=".3"/>
                <path fill="#4E4E96" fill-rule="nonzero" d="M83.98 97.332H73.623l-3.68 2.21-3.807-2.21H55.904v9.36H83.98z" opacity=".3"/>
                <path fill="#FFF" fill-rule="nonzero" d="M48.142 88.048l-8.473 3.544a34.278 34.278 0 0 0-20.951 31.833v6.24c0-13.615 10.669-32.333 27.827-35.452l1.597-6.165z" opacity=".3"/>
                <path fill="#242424" fill-rule="nonzero" d="M101.076 143.503c-.69 0-1.248-.559-1.248-1.248V119.17a1.248 1.248 0 0 1 2.496 0v23.085c0 .69-.559 1.248-1.248 1.248zM38.683 143.503c-.689 0-1.247-.559-1.247-1.248V119.17a1.248 1.248 0 0 1 2.495 0v23.085c0 .69-.558 1.248-1.248 1.248zM121.042 143.503c-.69 0-1.248-.559-1.248-1.248v-19.092A33.23 33.23 0 0 0 99.69 92.616l-8.735-3.744a1.25 1.25 0 1 1 .986-2.296l8.735 3.743a35.726 35.726 0 0 1 21.612 32.831v19.105c0 .69-.558 1.248-1.247 1.248zM18.718 143.503c-.69 0-1.248-.559-1.248-1.248v-18.818a35.664 35.664 0 0 1 21.975-32.993l8.435-3.519a1.25 1.25 0 1 1 .96 2.309l-8.435 3.519a33.18 33.18 0 0 0-20.44 30.684v18.818a1.248 1.248 0 0 1-1.247 1.248z"/>
                <path fill="#CC7E54" fill-rule="nonzero" d="M88.06 77.754H51.774a7.175 7.175 0 0 1 0 6.114l2.284 2.234a16.946 16.946 0 0 0 11.992 4.991h7.799a16.946 16.946 0 0 0 11.992-4.991l2.258-2.246a7.125 7.125 0 0 1-.037-6.102z" opacity=".3"/>
                <path fill="#242424" fill-rule="nonzero" d="M69.88 100.789a1.248 1.248 0 0 1-.587-.15L47.456 89.072a1.248 1.248 0 0 1 0-2.172c2.071-1.247 5.054-4.454 3.17-8.635a1.248 1.248 0 0 1 2.27-1.023 8.922 8.922 0 0 1-2.495 10.544L69.88 98.131l19.566-10.37c-2.608-2.42-4.467-6.239-2.583-10.507a1.248 1.248 0 1 1 2.283.999c-2.096 4.804 2.346 8.073 3.27 8.735a1.248 1.248 0 0 1-.075 2.084l-21.837 11.567a1.248 1.248 0 0 1-.624.15z"/>
                <path fill="#EFF7FF" fill-rule="nonzero" d="M51.324 104.433l-14.138-11.78 7.799-12.479 18.718 15.599-4.642 7.424a5.204 5.204 0 0 1-7.737 1.236zM88.597 104.433l14.101-11.78L94.9 80.174 76.181 95.773l4.642 7.424a5.204 5.204 0 0 0 7.774 1.236z"/>
                <path fill="#FFF" fill-rule="nonzero" d="M44.985 86.414l16.147 13.464 2.57-4.105-18.717-15.599-7.799 12.479 2.558 2.134zM94.837 86.414l5.228 8.373 2.57-2.134-7.798-12.479-18.718 15.599 2.57 4.105z" opacity=".3"/>
                <path fill="#242424" fill-rule="nonzero" d="M54.656 106.89c-1.51 0-2.971-.53-4.13-1.496L36.386 93.589a1.248 1.248 0 0 1-.262-1.622l7.8-12.479a1.248 1.248 0 0 1 1.859-.3L64.5 94.788c.482.399.594 1.092.262 1.622l-4.642 7.425a6.451 6.451 0 0 1-5.465 3.032v.025zm-2.496-3.406a3.956 3.956 0 0 0 5.89-.936l4.018-6.463-16.783-14.039-6.464 10.295 13.302 11.08.037.063zM85.166 106.89a6.451 6.451 0 0 1-5.466-3.031l-4.642-7.425a1.248 1.248 0 0 1 .262-1.622l18.718-15.598a1.248 1.248 0 0 1 1.86.3l7.798 12.478c.332.53.22 1.223-.262 1.622l-14.138 11.78a6.451 6.451 0 0 1-4.13 1.497zm-7.412-10.805l4.055 6.5a3.956 3.956 0 0 0 5.89.937l13.302-11.181-6.464-10.345-16.783 14.089z"/>
                <path fill="#FFB333" fill-rule="nonzero" d="M59.897 103.41l6.8 10.144h6.477l6.688-10.244-3.444-5.978H63.466zM66.698 113.554l-4.854 28.701H78.04l-4.867-28.7z"/>
                <path fill="#242424" fill-rule="nonzero" d="M78.04 143.503a1.248 1.248 0 0 1-1.247-1.036l-4.667-27.665h-4.368l-4.68 27.665a1.265 1.265 0 0 1-2.495-.412l4.854-28.7a1.248 1.248 0 0 1 1.248-1.036h6.477a1.248 1.248 0 0 1 1.247 1.036l4.855 28.7a1.248 1.248 0 0 1-1.024 1.435l-.2.013z"/>
                <path fill="#242424" fill-rule="nonzero" d="M73.186 114.802h-6.488c-.415 0-.804-.205-1.036-.549l-6.8-10.145a1.248 1.248 0 0 1 0-1.322l3.53-6.09a1.248 1.248 0 0 1 1.074-.611h12.952c.448-.002.862.236 1.086.623l3.444 5.978c.223.386.223.861 0 1.248l-6.676 10.244a1.248 1.248 0 0 1-1.086.624zm-5.802-2.495H72.5l5.89-9.047-2.695-4.68H64.177l-2.808 4.78 6.015 8.947z"/>
            </g>
        </g>
        <g fill-rule="nonzero" transform="translate(31.196)">
            <path fill="#F9E2DC" d="M7.487 58.897v-11.23c0-3.744-2.783-4.992-4.492-3.744-2.733 1.909.749 9.982.749 9.982-2.022 1.248.262 5.915 3.743 4.992z"/>
            <path fill="#242424" d="M6.564 60.27a4.991 4.991 0 0 1-4.43-3.058 3.669 3.669 0 0 1 .15-3.594c-.974-2.495-2.983-8.635 0-10.719a3.744 3.744 0 0 1 3.955-.224 5.328 5.328 0 0 1 2.496 4.991v11.23a1.248 1.248 0 0 1-.936 1.249c-.405.094-.82.136-1.235.124zM4.404 44.72c-.25.003-.493.082-.698.225-1.11.774-.274 5.091 1.186 8.46a1.248 1.248 0 0 1-.475 1.548c-.274.174-.212.773 0 1.248a2.645 2.645 0 0 0 1.822 1.534v-10.07a3.007 3.007 0 0 0-1.248-2.783 1.323 1.323 0 0 0-.586-.162z"/>
            <path fill="#242424" d="M3.744 55.153a1.248 1.248 0 0 1-.674-2.296l.474-.3a1.248 1.248 0 1 1 1.348 2.097l-.462.3a1.248 1.248 0 0 1-.686.2z"/>
            <path fill="#F9E2DC" d="M69.88 58.897v-11.23c0-3.744 2.77-4.992 4.492-3.744 2.733 1.909-.749 9.982-.749 9.982 2.034 1.248-.262 5.915-3.743 4.992zM42.577 91.341H34.79a16.946 16.946 0 0 1-11.992-4.991l-10.32-10.32a16.946 16.946 0 0 1-4.99-11.992v-30.61c0-30.934 62.392-30.934 62.392 0v30.61a16.946 16.946 0 0 1-4.992 11.992l-10.32 10.32a16.946 16.946 0 0 1-11.991 4.991z"/>
            <path fill="#CC7E54" d="M54.569 80.11a16.946 16.946 0 0 1-11.992 4.992H34.79a16.946 16.946 0 0 1-11.992-4.992l-10.32-10.32A16.946 16.946 0 0 1 7.489 57.8v6.239a16.946 16.946 0 0 0 4.99 11.992l10.32 10.32A16.946 16.946 0 0 0 34.79 91.34h7.8A16.946 16.946 0 0 0 54.58 86.35l10.307-10.32a16.946 16.946 0 0 0 4.992-11.992v-6.24a16.946 16.946 0 0 1-4.992 11.993l-10.32 10.32z" opacity=".3"/>
            <path fill="#242424" d="M70.803 60.27c-.421 0-.84-.055-1.248-.163a1.248 1.248 0 0 1-.923-1.21v-11.23a5.328 5.328 0 0 1 2.496-4.992 3.744 3.744 0 0 1 3.905.224c2.995 2.084.974 8.249 0 10.72.674 1.09.731 2.451.15 3.593a4.991 4.991 0 0 1-4.38 3.057zM72.95 44.72a1.323 1.323 0 0 0-.624.162 3.007 3.007 0 0 0-1.197 2.783v10.07a2.645 2.645 0 0 0 1.821-1.534c.213-.475.275-1.074 0-1.248a1.248 1.248 0 0 1-.474-1.548c1.46-3.381 2.296-7.686 1.186-8.46a1.248 1.248 0 0 0-.7-.225h-.012z"/>
            <path fill="#242424" d="M73.623 55.153c-.239 0-.473-.07-.674-.2l-.461-.299a1.248 1.248 0 1 1 1.347-2.096l.475.3a1.248 1.248 0 0 1-.687 2.295zM42.577 92.589H34.79a18.081 18.081 0 0 1-12.865-5.328L11.58 76.916a18.081 18.081 0 0 1-5.34-12.878v-30.61c0-7.612 3.568-13.988 10.307-18.443 5.914-3.868 13.726-6.002 22.136-6.002 8.41 0 16.222 2.134 22.137 6.002 6.739 4.467 10.308 10.844 10.308 18.443v30.61a18.081 18.081 0 0 1-5.329 12.865L55.455 87.248a18.081 18.081 0 0 1-12.878 5.34zm-3.894-81.11c-14.425 0-29.948 6.875-29.948 21.95v30.609a15.598 15.598 0 0 0 4.605 11.08l10.37 10.37a15.598 15.598 0 0 0 11.08 4.605h7.8c4.155 0 8.139-1.656 11.068-4.604l10.37-10.37a15.598 15.598 0 0 0 4.604-11.081v-30.61a19.155 19.155 0 0 0-9.184-16.36c-5.466-3.605-12.828-5.59-20.765-5.59z"/>
            <path fill="#242424" d="M61.145 45.17a1.248 1.248 0 0 1-.687-.212c-2.084-1.385-5.078-.886-8.248-.362-1.679.329-3.381.52-5.091.574a1.248 1.248 0 1 1 0-2.495 29.487 29.487 0 0 0 4.68-.537c3.518-.586 7.137-1.248 10.045.749a1.248 1.248 0 0 1-.7 2.283zM29.948 45.794a1.248 1.248 0 0 1-.886-.361c-1.859-1.847-9.858-2.696-12.603-1.323a1.248 1.248 0 0 1-1.11-2.234c3.469-1.734 12.678-1.01 15.473 1.797a1.248 1.248 0 0 1-.874 2.121z"/>
            <circle cx="23.085" cy="51.41" r="1.872" fill="#242424"/>
            <path fill="#242424" d="M23.085 54.53a3.12 3.12 0 1 1 0-6.24 3.12 3.12 0 0 1 0 6.24zm0-3.744a.624.624 0 1 0 0 1.248.624.624 0 0 0 0-1.248z"/>
            <path fill="#242424" d="M28.7 50.162H17.47a1.248 1.248 0 1 1 0-2.496H28.7a1.248 1.248 0 0 1 0 2.496zM38.683 63.589a6.701 6.701 0 0 1-3.207-1.16 1.248 1.248 0 0 1 1.386-2.072 4.505 4.505 0 0 0 1.821.736 4.505 4.505 0 0 0 1.822-.736 1.248 1.248 0 0 1 1.385 2.071 6.701 6.701 0 0 1-3.207 1.16zM38.509 73.871c-3.332 0-6.589-.524-8.049-1.572a1.248 1.248 0 1 1 1.46-2.022c1.96 1.41 10.707 1.61 13.627-.075a1.248 1.248 0 0 1 1.247 2.16c-1.747.997-5.04 1.51-8.285 1.51zM42.427 85.102a1.248 1.248 0 0 1-.861-.35c-1.023-.973-4.742-.973-5.765 0a1.249 1.249 0 1 1-1.722-1.809c1.984-1.897 7.225-1.897 9.209 0a1.248 1.248 0 0 1-.861 2.159z"/>
            <circle cx="54.456" cy="51.41" r="1.872" fill="#242424"/>
            <path fill="#242424" d="M54.456 54.53a3.12 3.12 0 1 1 0-6.24 3.12 3.12 0 0 1 0 6.24zm0-3.744a.624.624 0 1 0 0 1.248.624.624 0 0 0 0-1.248z"/>
            <path fill="#242424" d="M59.897 50.162h-11.23a1.248 1.248 0 1 1 0-2.496h11.23a1.248 1.248 0 0 1 0 2.496z"/>
            <path fill="#CC7E54" d="M69.88 38.931V32.83A18.356 18.356 0 0 0 51.549 14.3H26.205a18.518 18.518 0 0 0-18.53 18.53v5.453c3.119-3.743 6.239-6.813 7.798-11.492 17.158 10.893 38.996 5.24 49.415 6.364 4.293.461 4.88 3.144 4.992 5.777z" opacity=".3"/>
            <path fill="#D6B5B0" d="M59.148 4.94c11.081 5.128 18.53 10.918 14.388 31.196-.574 2.795-3.656 1.547-3.656 1.547s.81-9.171-4.992-9.795c-10.382-1.123-35.339 5.116-52.497-8.922 0 6.239-1.56 9.359-4.68 14.038 0 0-4.33 0-4.679-3.12-1.56-14.038 3.12-20.277 9.36-18.717C27.951-4.42 53.657 2.382 59.147 4.94z"/>
            <path fill="#FFF" d="M12.354 17.131c15.598-15.635 41.304-8.797 46.794-6.239 8.236 3.83 14.475 8.074 15.399 18.356 1.247-14.812-5.69-19.816-15.399-24.308-5.54-2.558-31.196-9.36-46.794 6.239C6.426 9.694 1.909 15.284 2.82 27.9c.711-8.385 4.667-11.992 9.534-10.769z" opacity=".3"/>
            <path fill="#242424" d="M71.352 39.23a5.478 5.478 0 0 1-1.959-.386 1.248 1.248 0 0 1-.761-1.248c0-.075.624-7.961-3.918-8.448a71.402 71.402 0 0 0-9.983.112c-12.03.612-28.289 1.448-41.254-7.811-.362 4.817-1.884 7.899-4.804 12.266-.23.349-.619.56-1.036.562-1.884 0-5.54-.899-5.915-4.23-.986-8.86.412-15.436 3.943-18.506a7.312 7.312 0 0 1 6.24-1.697c16.222-15.56 42.114-8.61 47.717-6.015 10.87 4.992 19.504 10.944 15.074 32.582A3.37 3.37 0 0 1 73 38.906a3.619 3.619 0 0 1-1.647.325zm-.187-2.495c.246.034.496 0 .724-.1.075 0 .3-.162.424-.736 4.055-19.878-3.444-25.082-13.726-29.811a52.41 52.41 0 0 0-19.068-3.582h-.386c-7.487 0-18.02 1.698-25.893 9.571-.311.31-.761.432-1.186.325a4.991 4.991 0 0 0-4.717 1.01c-2.845 2.496-3.98 8.449-3.094 16.36.162 1.398 1.847 1.822 2.807 1.96 2.858-4.393 4.056-7.276 4.056-12.766a1.248 1.248 0 0 1 2.034-.961c12.478 10.232 29.262 9.371 41.49 8.735a72.8 72.8 0 0 1 10.346-.1c5.702.636 6.214 7.4 6.152 10.095h.037z"/>
            <path fill="#242424" d="M17.033 13.974c-.18.001-.36-.037-.524-.112a14.974 14.974 0 0 0-4.28-1.448 1.254 1.254 0 1 1 .25-2.495c1.77.284 3.485.848 5.078 1.672a1.248 1.248 0 0 1-.524 2.383zM7.487 41.427c-.69 0-1.248-.559-1.248-1.248v-7.35a1.248 1.248 0 0 1 2.496 0v7.35c0 .69-.559 1.248-1.248 1.248z"/>
        </g>
    </g>
</svg>
